<?xml version="1.0" encoding="UTF-8"?>
<!DOCTYPE svg PUBLIC "-//W3C//DTD SVG 1.1//EN" "http://www.w3.org/Graphics/SVG/1.1/DTD/svg11.dtd">
<!-- Creator: CorelDRAW 2021 (64-Bit) -->
<svg xmlns="http://www.w3.org/2000/svg" xml:space="preserve" width="68.9138mm" height="88.1449mm" version="1.1" style="shape-rendering:geometricPrecision; text-rendering:geometricPrecision; image-rendering:optimizeQuality; fill-rule:evenodd; clip-rule:evenodd"
viewBox="0 0 5820.18 7444.35"
 xmlns:xlink="http://www.w3.org/1999/xlink"
 xmlns:xodm="http://www.corel.com/coreldraw/odm/2003">
 <defs>
  <style type="text/css">
   <![CDATA[
    .str0 {stroke:#035EC1;stroke-width:6.44;stroke-miterlimit:22.9256}
    .fil1 {fill:#035EC1}
    .fil3 {fill:#568692}
    .fil9 {fill:#738B71}
    .fil7 {fill:#76A4D3}
    .fil6 {fill:#B1B151}
    .fil8 {fill:#D6C932}
    .fil5 {fill:#F5DC67}
    .fil4 {fill:#FCF8C8}
    .fil0 {fill:#FDD800}
    .fil2 {fill:white}
    .fil10 {fill:#035EC1;fill-rule:nonzero}
   ]]>
  </style>
 </defs>
 <g id="Слой_x0020_1">
  <metadata id="CorelCorpID_0Corel-Layer"/>
  <g id="_2466756020656">
   <path class="fil0" d="M3836.86 4837.83c-48.84,-28.97 -7.8,-12.91 -82.94,-24.98 18.66,-54.13 100.4,-86.86 82.94,24.98zm-2980.88 -1118.77c55.3,65.62 -6.08,57.66 129.54,239.93 89.81,120.7 128.69,217.77 276.26,361.31 151.57,147.43 215.66,226.81 414.27,343.72 52.25,30.77 121.35,61.07 159.25,94.29 21.39,11.87 47.08,18.28 74.84,32.88 21.84,11.49 42.51,25.61 69.35,38.51 85.05,40.87 337.94,114.63 455.83,132.64l52.68 18.07 -4.42 -8.13 156.6 24.81c213.05,10.77 268.19,38.12 486.99,-13.87 94.46,-22.46 188.51,-40.7 284.14,-64.9 97.65,-24.72 178.44,-60.77 257.93,-92.86 -3.78,89.35 -92.66,-19.54 -99.08,210.84 -3.71,132.82 24.15,148.04 162.47,145.97l19.95 -3.86c18.95,-24.02 16.82,-12.52 40.23,-34.76 25.83,-24.54 19.33,-24.69 38.7,-47.24 60.7,-70.71 74.94,3.34 107.12,-72.7 -6.41,1.16 -26.06,5.76 -28.19,5.81 -2.23,0.05 -6.46,0.3 -8.79,0.2 -2.22,-0.08 -6.3,-0.73 -8.34,-0.94l-15.93 -4.37c14.67,-26.18 15.25,-39.64 17.36,-79.82 136.08,4.37 121.96,-58.94 168.67,-142.66 -25.94,0 -19.04,5.33 -12.65,-22.02 -13.32,-12.81 -20.44,30.56 -9.55,-11.08 8.82,-33.69 -22.03,9.81 12.73,-15.95l-1.93 -31.71c-24.05,-17.81 -6.34,0.21 -24.17,-28.28 -18.89,-30.19 -6.94,-7.67 -21.22,-45.45 2.97,-1.05 7.22,-6.52 8.56,-4.04 7.78,14.4 272.84,-205.53 275.12,-207.43 102.75,-86.18 53.71,-49.8 118.83,-121.91 135.2,-149.66 73.4,-130.36 208.2,-283.07l234.06 -419.43c4.73,-10.93 7.46,-17.91 10.43,-23.33l18.23 -21.98c0.41,-0.37 2.86,-1.44 3.74,-2.72 -0.79,-3.93 -3.78,-21.26 -2.15,-31.41 12.31,-76.25 10.63,10.29 24.84,-72.37 0.56,-3.22 1.78,-39.99 2.42,-48.2 37.3,-15.99 -10.96,53.87 37.41,-82.99 19.96,-56.46 -5.41,-31.42 9.3,-96.82 23.32,-103.7 -26.05,75.6 14.81,-35.89 19.25,-52.55 37.2,-384.07 20.05,-446.23 -19.18,-69.51 -8.76,-123.54 -15.32,-193.02 -6.87,-72.89 -13.88,-21.54 -21.48,-84.84 -6.06,-50.46 1.94,-52.03 -8.99,-101.03l-22.64 -86.26c-20.3,-59.01 -10.41,-28.85 -16.49,-83.98 -5.28,-47.95 -36.21,-12.85 -8.68,-73.97 -0.66,-101.21 -167.49,-388.92 -216.1,-466.91 -174.71,-280.34 -401.24,-509.89 -685.58,-685.99 -77.21,-47.81 -359.32,-213.12 -457.21,-221.8 -52.4,-1.01 -23.5,2.91 -28.73,-14.31 -70.67,-4.58 -88.39,41.22 -201.06,29.44l48.3 -9.35c-44.53,-30.24 -6.28,-21.96 -73.28,-12.89 -104.59,14.16 -64.57,-12.54 -137.87,-15.26 -81.47,-3.05 -68.52,16.05 -71.56,22.07 40.38,8.64 64.89,26.77 114.17,21.2 51.32,2.63 66.31,3.26 81.99,42.36 -44.53,-3.56 -27.84,-11.27 -81.81,2.8l132.46 50.71c-14.27,44.74 -0.93,19.31 -30.71,51.43 13.96,-14.72 5.76,-32.49 38.14,1.73 1.38,1.45 3.02,5.04 4.21,6.79 1.2,1.75 2.33,5.42 3.35,7.32 1.07,1.98 2.38,5.9 3.27,7.8l11.21 25.78c51.42,25.9 124.66,50.05 187.39,76.49 157.38,66.39 380.31,203.93 501.68,316.34 118.19,109.46 458.74,460 473.76,603.56 2.4,2.16 5.86,4.8 7.21,6.49l16.25 23.2c16.21,43.3 -12.35,24.97 22.38,113.37 18.87,48.01 15.35,73.09 39.02,128.8l23.35 67.54 -6.02 23.13c43.77,16.32 28.69,-16.91 40.44,181.14 -14.37,-6.46 -65.25,-35.28 -72.44,-41.74 -30.1,-27.03 -28.31,-46.26 -23.42,-88.7 0.37,-17.49 12.21,-21.58 -4.27,-14.73 -3.81,-3.18 -47.08,7.04 -20.62,-48.64l4.07 -20.18c-34.65,-34.78 -11.28,1.57 -23.3,-44.95 -1.92,-40.05 -91.59,-203.07 -116.17,-251.07 -17.09,-33.38 -47.61,-93.33 -74.01,-117.08l-36.06 -22.79c-2.26,-1.41 -5.46,-3.05 -7.68,-4.5 -29.95,-19.66 -24.67,-26.7 -58.6,-40.14 26.82,40.67 20.01,24.94 29.6,78.72 -4.55,-2.17 -9.57,-4.47 -13.61,-6.66l-42.95 -28.23c-19.24,0 -15.4,5.36 -15.4,-12.04l-11.01 -12.03c-18.01,0 -13.77,4.16 -10.68,-14.23 -20.86,3.16 -15.73,6.34 -9.14,-14.54l-6.44 -17.59c-24.94,6.42 -17.79,8.85 -10.58,-16.96 -17.58,-15.73 -39.54,-45.96 -63.2,-56.08 -53.41,-22.84 -18.79,16.99 -67.9,-38.51 -37.35,-42.23 -82.26,-61.89 -122.57,-103.58 -8.12,-0.58 -44.89,0.07 -48.96,-0.82 -49.82,-10.93 -30.93,-13.18 -43.66,-26.04l-54.63 -38.32c-1.47,-4.91 -4.97,-5.47 -7.31,-8.33l-47.44 -21.81 -23.88 7.81c32.76,28.15 52.33,44.99 67.37,82.45 -26.16,-3.53 -35.18,-8.34 -49.55,-16.82l-39.03 -30.71c-53.46,-32.83 -62.31,-49.9 -143.29,-54.3 24.68,12.64 14.49,12.74 39.05,28.47l36.02 5.3c40.5,66.48 122.87,82.5 157.04,175.16 128.29,275.22 323.76,338.62 455.47,789.53 35.94,123.04 66.91,237.65 13.83,317.68l-28.45 55.53c-47.44,89.87 -15.81,158.24 -85.31,381.67 -22.84,73.43 -75.89,163.03 -89.74,222.48l28.72 13.12c-11.4,68.76 -50.17,113.39 -86.76,160.84 -15.62,20.25 -37.7,40.54 -59.06,62.63 -55.18,57.13 -21.36,14.56 -75.4,29.71 -20.2,57.15 8.1,51.61 -29.99,92.76l-48.47 37.35c-18.28,12.85 -2.55,4.03 -26.27,16.87l3.09 -1.79 -12.69 16.16c-1.55,1.63 -4.68,5.35 -6.6,7.29l-111.25 76.93c-42.82,19.75 -74.25,47.81 -127.31,71.09 -159.6,69.99 -286.15,123.42 -482.66,141.58 -238.83,22.07 -520.92,-43.7 -692.95,-135.09 -61.35,-32.59 -140.11,-33.09 -198.51,-102.16 -46.95,-55.55 -168.5,-142.44 -212.4,-208.07 -72.89,-108.99 -145.88,-193.59 -197.16,-330.68 -29.02,-77.57 -106.75,-233.41 -90.2,-326.33 -21.54,-25.46 -2.77,26.32 -19.04,-38.42l-0.68 -132.05c2.06,-262.28 37.29,-448.74 192.08,-678.55l133.04 -185.1c-0.02,-24.48 -6.99,-21.6 14.83,-15.98 -6.42,-20.37 -11.73,-17.04 8.23,-15.58 -4.7,-23.44 -10.8,-21.86 10.92,-13.01 1.86,-2.48 4.16,-6.28 5.42,-7.58l27.76 -19.81c-5.27,-23.39 -7.32,-16.71 15.58,-7.72l40.14 -24.2 15.68 -20.89c19.9,-36.16 -2.96,-12.47 31.44,-32.66l-2.13 -0.8 -12.8 -10.51 -0.32 -4.4c-26.96,40.86 0.79,1.84 -27.46,28.92l-79.49 52.06c18.05,-50.12 -2.09,-8.41 23.29,-36.23l51.06 -44.71c28.54,-19.39 -14.64,-2.58 25.55,-10.51 -14.99,-24.45 -12.27,-13.97 18.47,-12.2 23.1,-27.69 34.32,-34.83 64.67,-43.58 0,-22.52 -5.99,-18.87 15.11,-14.39 2.15,-2.33 5.97,-4.44 7.74,-5.57 116.41,-74.63 91.86,-110.05 122.6,-140.71 57.93,-57.81 139.32,-94.76 175.23,-132.46 -14.12,-30.37 -13.97,-21.57 -24.66,-41.41 -28.28,-52.46 11,-56.32 64.1,-56.75l26.19 1.8c-23.46,-23.65 9.54,-13.39 -48.14,-16.7 -61.37,-3.53 -228.47,69.36 -288.7,91.2 -126.98,46.03 -253.09,141.35 -291.34,134.75 14.86,-19.71 12.36,0.84 20.54,-21.19l2.31 -32.49c8.03,-59.14 0.55,-18.96 24.63,-36.94 3.21,-2.4 91.78,-49.78 114.56,-90l14.03 -50.6c42.55,-19.2 -30.89,23.48 38.89,-2.74 17.3,-7.21 49.06,-28.7 80.43,-43.28 23.37,-10.88 66.8,-23.79 86.61,-34.57 43.15,-23.44 22.94,-60.32 157.72,-87.95l16.26 -46.01 40.99 -5.48c132.69,-4.69 32.74,-60.52 154.23,-64.92 -12.14,-30.34 20.56,-11.07 -37.66,-19.89 -44.62,-6.76 -39.06,8.55 -134.99,-19.11 -118.95,-34.3 -467.27,125.74 -590.01,185.77 -153.71,75.17 -69.14,-24.88 -197.74,81.33l-170.01 126.46c-59.22,40.94 -114.34,113.51 -167.66,173.04l-157.25 172.35 66.66 -123.77 34.75 -56.02c20.69,-24.48 15.06,-8.99 27.16,-43.46 -20.68,22.15 -30.76,31.1 -52.95,53.68 -96.29,98.06 -234.09,342.27 -272.48,472.46l-27.24 8.89c-0.16,0.17 9.28,-23.01 -5.83,15.66 -13.18,33.75 -14.7,31.32 -26.06,57.56 -12.46,28.76 -12.63,41.8 -19.42,66.55 -13.99,50.94 -4.65,26.62 -41.09,56.77 -31.08,139.88 -65.32,251.93 -72.66,410.47 -16.04,346.59 14.62,553.64 120.73,867.31l71.91 229.8c34.43,96.26 71.15,107.36 51.59,130.23 -16.29,-26.81 -22.82,-37.64 -38.03,-60.53 -61.38,-92.34 -69.43,-164.75 -112.11,-161.03l-0.01 0z"/>
   <path class="fil1" d="M3752.57 5178.4l-19.95 3.86 -57.5 19.37 -25.11 11.54 6.24 55.69c-44.47,-17.31 -17.39,24.1 -35.4,-36.12l-368.24 125.65 164.2 -23.25c-14.01,21 -88.67,49.65 -134.23,58.9 52.2,35.1 80.2,-8.79 111.42,3.47 -222.61,110.14 -338.09,46.14 -426.6,129.18 110.81,13.22 194.38,-32.33 300.78,-9.78 -30.4,15.64 -74.76,23.66 -112.62,33.94 -63.75,17.35 -44.56,24.07 -99.21,46.61 41.02,29.9 150.7,2.77 197.57,-5.04 65.06,-10.84 127.29,-28.99 193.02,-37.35 -165.64,71.96 -474.16,77.23 -518.47,108.4 175.43,21.94 581.84,-106.4 626.47,-85.42l-134.12 46.03c-2.83,0.8 -5.96,1.77 -8.83,2.51 -2.93,0.76 -6.06,1.6 -9.07,2.32 -98.98,23.8 -175.54,20.45 -212.19,49.81 37.91,11.59 35.39,8.63 77.07,0.71l131.89 -28.03c3.81,-1.04 14.04,-3.94 17.81,-4.92 8.16,-2.12 19.42,-4.54 28.11,-6.62 326.92,-78.31 685.88,-258.05 937.6,-448.7l336.44 -289.9c37.31,-41.03 65.61,-82.29 98.77,-117.85 100.38,-107.66 95.65,-112.96 185.74,-235.56 37.52,-51.06 147.7,-219.93 163.74,-275.84l-43.09 -21.73c4.97,-52.11 33.65,-65.54 71.5,-92.5l-11.1 -15.2c-1.23,-2.36 -7.69,-12.63 -8.93,-16.22 -10.49,-30.53 -6.57,-19.92 -4.49,-56.21l-71.51 -8c-1.3,-52.75 7.91,-69.36 33.46,-94.64 23.77,-23.52 46.3,-44.48 63.9,-66.17 30.66,23.68 38.44,71.19 48.17,126.76l7.76 42.49c0.87,3.18 2.72,7.44 3.5,10 0.78,2.55 2.25,6.71 3.87,9.81l80.41 -197.49c-27.42,-29.08 -1.1,-39.29 -27.47,-12.83l33.37 -94.58c-10.35,59.33 -37.9,60.61 7.74,88.56l30.85 -134.72c-7.61,-32.62 0.54,-18.42 -13.51,-35.33l-25.08 81.49c7.73,-69.69 53.82,-194.5 74.8,-361.53 16.35,-130.1 27.3,-252.63 34.28,-385.98 18.9,-360.85 -149.9,-1094.58 -353.31,-1355.77l-181.2 -240.56c-53.64,-70.12 -67.07,-116.67 -131.66,-191.73l229.08 275.1c5.79,8.83 16.57,25.13 19.01,29.06l120.67 204.52c10.89,19.07 -15.42,-28.85 8.88,15.46 72.13,131.52 136.13,310.48 181.99,452.49l101.66 476.85c1.82,15.25 2.45,30.62 2.79,45.85 4.64,204.15 11.99,245.5 2.2,469.42 -6.55,149.81 -62.7,314.97 -17.28,345.22l8.91 -104.29c-3.82,-76.15 -8.26,-31.32 14.32,-43.16l-4.16 -27.42c-0.74,-83.53 -4.71,-26.76 15.56,-47.72 -8.14,-105.92 12.43,-216.76 12.45,-326.98 0.02,-111.68 -17.98,-241.77 -11.47,-342.87 -23.32,-11.2 -16.58,36.07 -14.2,-42.24l-33.7 -234.18c-24.1,-2.25 -20.07,31.19 -13.53,-30.61l0.82 -15.73c-23.99,-4.23 -18.94,30.94 -14.59,-29.43l-14.24 -72.36 -8.12 -31.73c-15.68,-10.24 -12.61,0.98 -15.82,-35.82l-46.72 -139.45 -9.32 -28.14c-22.74,-6.47 -16.71,25.94 -13.94,-30.71l3.66 -7.2c-28.42,-2.04 -17.08,28.2 -19.95,-20.28 -18.12,-51.84 -58.46,-104.82 -65.44,-158.76 -29.42,9.51 -20.24,11.58 -13.59,-20.17l3.4 -6.77c-29.93,11.27 -22.3,14.1 -14.57,-17.31l2.49 -6.95c-29.3,0.04 -15.56,28.13 -21.17,-18.61l-21.35 -45.91 -6.53 -20.21c-23.01,0.14 -22.27,26.85 -13.57,-19.63l-15.44 -21.1 -12.5 -21.53c-30.11,-24.26 -13.3,-3.69 -22.59,-39.97 -19.46,0 -13.23,3.5 -7.72,-18.19 -28.79,10.57 -21.6,13.5 -14.09,-16.59 -11.25,-8.51 -50.37,-61.32 -65.48,-80.81l-5.57 -20.2c-27.25,-3.54 -17.24,23.32 -20.13,-16.55l-6.63 -17.34 -15.02 -19.29c-19.79,-17.36 -204.01,-232.81 -207.71,-240.79l-41.28 -11.01 59.87 76.23c-38.88,-17.28 -70.34,-77.16 -142.65,-133.53 -124.34,-96.94 -89.11,-98.6 -162.45,-117.66 35.03,-25.29 -8.07,-39.4 58.87,-8.81l19.69 -7.6 -19.69 7.6c-12.1,-25.07 6.18,1.58 -15.55,-20.3 -0.3,-0.3 -18.94,-16.34 -19.52,-16.84 -23.23,-19.97 -26.06,-18.74 -35.97,-38.29 -28.52,2.61 -25.13,10.76 -20.02,-14.81l-18.11 -6.6 2.03 -1.44c-25.29,-10.43 -12.97,-4.37 -30.46,-13.94 -7.31,-3.99 -17,-10.3 -23.62,-15.19l-32.37 -28.91 2.2 -3.37 -35.29 -23.65 -0.82 -1.28c-26.98,4.4 -21.72,10.74 -18.91,-15.58l-20.37 -4.49 -1.75 -1.41c-38.78,-13.92 -21.5,1.62 -37.6,-30.1l-20.13 -5.41 2.47 -1.89c-32.03,5.45 -29.3,14.1 -19.4,-15.48l-4.67 0.86c-28.64,7.02 -24.81,13.81 -17.57,-14.05l-19.3 -5.96 -23.32 -14.67c-30.89,5.72 -27.93,13.74 -18.39,-15.12l-5.68 3c-29.84,4.96 -26.34,12.9 -19.46,-14.9l-4.61 3.65c-28.53,3.02 -25.38,11.3 -20.25,-14.05l-3.83 2.65c-29.2,3.29 -25.97,11.91 -21.33,-13.82l-4.27 2.04c-27.92,3.87 -24.67,11.66 -19.15,-13.86l-3.58 1.06c-29.36,4.46 -26.32,12.8 -20.01,-13.94l-27.95 -10.68c-30.22,4.71 -27.42,13.49 -20.62,-13.88l-35.02 -8.33c-26.14,27.01 -26.58,1.39 15.68,26.57l581.59 336.28c-31.25,25.83 -0.01,47.81 -62.38,5.01l-131.24 -99.03c-62.29,-41.22 -132.37,-89.34 -192.93,-121.89 -28.3,-15.21 -195.74,-82.78 -220.89,-90.78 -308.85,-98.08 -224.8,-126.12 -713.35,-199.89 -466.87,-70.5 -370.5,7.81 -552.72,-16.57l-0.8 -66.37 -15.59 -27.9c-17.38,-33.66 -3.46,-42.94 -28.17,-75.17 -55.43,34.93 -101.76,85.82 -104.57,153.4 40.03,23.68 30.13,7.8 72.38,19.08l-127.44 21.03c19.6,-63.15 16.55,-37.37 15.12,-109.89 -19.13,-3.93 -13.4,10.82 -16.1,-21.62l-21.38 -2.09c-0.57,29.95 7.35,38.33 -14.11,33.66 -1.41,10.84 18.45,20.4 -27.06,20.59l-17.4 8.23 -10.4 15.32 -8.23 13.58 -5.22 58.35c-114.94,28.98 -82.29,26.84 -116.35,-5.67 -41.32,44.61 2.69,28.43 -49.38,51.19 -13.77,-14.68 -11.37,-13.99 -24.44,-30.82 -12.34,-15.88 -5.71,-3.22 -21.38,-26.6l16.66 -19.31 3.07 -46.1c-43.66,-3.31 -24.28,-8.01 -46.11,21.51 -3.07,92.75 -19.48,132.34 -107.03,150.21l-120.97 35.85c-31.18,27.92 -69.26,35.96 -107.71,47.86 -42.62,30.63 -43.55,29.96 -95.11,52.4 -32.21,14.01 -70.19,40.32 -104.38,61.48 -2.82,1.7 -6.17,4.67 -8.08,5.65 -1.84,0.95 -5.8,4.11 -8.06,5.08 -2.85,1.22 -13.71,5.25 -16.58,5.9 -31.75,7.35 -7.25,5.5 -25.13,-2.63l1.93 -24.32 -12.09 -22.99c-0.52,-3.79 -3.35,-4.54 -4.51,-7.09 3.01,29.69 3.51,31.87 10.04,55.42 1.82,45.1 4.42,10.29 -11.01,24.21l-114.45 69.25 -38.05 14.81c-25.46,37.08 -52.11,50.79 -91.8,80.52 -89.55,67.1 -76.29,58.23 -89.42,40.33l6.55 -5.19c-17.53,-24.79 -0.69,-44.9 -21.73,11.73 -11.02,29.64 7.68,7.78 -17.77,46.12 -6.9,10.38 -38.64,39.43 -58.49,63.13 -18.64,22.26 -38.69,46.32 -61.53,69.97 -27.82,28.82 -38.13,28.04 -65.44,55.28 -41.11,41.02 -70.64,83.38 -118.98,133.63l-117.82 140.78 1.9 -1.87c-9.91,28.23 -6.44,23.54 -23.24,38.29l-2.85 -3.28c-16.97,35.62 -25.21,46.11 -47.6,82.55l-46.67 67.66 -8.94 13.66c-2.48,22.33 3.87,17.03 -18.05,17.03l2.71 4.68 -71.35 129.83 -0.67 2.58c-0.8,23.58 6.2,19.4 -13.91,19.4l-28.08 109.89c29.01,-6.03 66.01,-114.53 86.7,-151.23 14.86,-26.35 31.23,-43.31 48.24,-71.35 8.45,-13.94 10.1,-21.08 22.44,-37.78l-61.06 180.11c-29.96,71.62 -40.15,153.05 -68.96,231.85 -168.61,461.13 -190.01,855.42 -117.31,1340.69 13.42,89.58 49.18,174.61 57.05,252.95 22.65,-22.91 14.83,22.05 22.4,-43.03l39.08 106.25c0.78,3.12 1.47,6.3 2.23,9.38 28.69,116.95 47.77,109 104.71,234.96 14.55,32.19 9.92,13.5 14.57,53.98 32.84,78.7 71.66,161.59 111.95,222.59 47.95,72.62 109.07,144.13 142.52,207.85 -35.35,-22.21 -74.95,-85.27 -97.46,-119.61 -26.89,-41.01 -56.16,-83.82 -85.56,-133.06 -16.09,23.8 76.49,136.48 93.23,161.57 36.1,54.13 85.18,102.39 111.18,156.07l-21.38 -64.98 51.92 57.17c52.54,61.44 -4.57,18.66 58,24.61 22.9,50.57 -13.01,-30.73 -6.69,13.5 3.02,21.02 -17.44,-11.8 6.9,13.84 17.95,18.91 -5.63,0.49 24.48,18.01 -11.16,-28.27 -6.36,-46.65 -28.32,-76.68 -58.71,-80.3 -46.06,-22.94 -130.53,-182.16 -6.93,-13.07 -5.32,-8.07 -13.94,-25.78 -13.68,-28.14 7,22.32 -13.8,-31.69 2.95,2.15 7.14,1.87 8.54,6.87 12.6,45.16 -1.89,-4.81 15.67,14l65.46 82.27c99.07,99.13 181.83,212.13 279.4,298.04 346.01,304.66 814.37,558.97 1289.09,601.16 49.93,4.44 43.16,-0.75 81.47,-4.74 71.06,-7.4 143.68,29.71 243.2,26.54l-33.63 -22.31c55.52,-17.46 30.27,0.95 59.18,-30.34 -88.51,-19 -76.97,8.99 -162.84,7.82 -46.51,-0.62 -157.52,2.65 -178.45,0.03 -100.79,-12.65 -230.86,-48 -335.14,-72.73 -82.1,-19.49 -378.86,-138 -430.44,-171.35 -48.48,-31.36 -84.81,-57.19 -128.61,-77.84 25.58,-12.9 19.28,4.59 102.46,44.74 34.49,16.65 61.8,30.9 96.88,47.57 168.32,80 512.01,209.48 693.01,182.99l-99.02 -26.76c108.41,-1.89 205.86,-14.26 304.88,-18.74 -43.47,-23.14 -151.07,-36.72 -207.1,-58.28 -9.76,-21.51 -6.84,1.93 35.22,-23.29 -191.99,-53.52 -163.91,-64.97 -168.01,-72.47 -17.23,-31.53 -92.08,-43.98 -123.28,-52.95 -55.14,-26.22 -38.41,-33 -53.03,-49.59 -19.71,-22.36 -210.96,-98.83 -228.94,-98.96 -111.69,-13.42 -382.91,-218.07 -467.68,-310.49 -41.92,-45.7 -34.21,-18.02 -74.1,-59.33 -124.34,-128.73 -64.7,-21.68 -247.73,-269.79l-110.89 -144.24c-21.43,-32.37 -25.08,-48.64 -50.23,-80.75 -40.06,-51.17 -17.26,-28.76 -44.13,-88.19 -19.18,-42.42 -27.51,-51.01 -53.8,-87.38 6.78,-23.63 13.12,-29.9 13.23,-30.12 8.01,-16.6 2.85,6.55 18.16,-35.49 42.68,-3.72 50.72,68.69 112.11,161.03 15.21,22.89 21.74,33.71 38.03,60.53 19.57,-22.87 -17.15,-33.97 -51.59,-130.23l-71.91 -229.8c-106.11,-313.67 -136.77,-520.72 -120.73,-867.31 7.34,-158.54 41.58,-270.59 72.66,-410.47l86.85 -248.49c50.08,-115.33 169.97,-314.36 242.59,-407.59 22.79,-29.26 40.61,-61.59 71.23,-81.69 23.79,-15.62 1.53,-30.83 32.08,-38.46 4.97,-1.25 21.89,1.66 41.63,3.66 -1.98,63.93 -27.68,89.2 -91.23,140.48l-66.66 123.77 157.25 -172.35c53.32,-59.53 108.44,-132.11 167.66,-173.04l188.51 -156.32c190.95,-142.16 473.39,-258.99 698.83,-302.83 65.38,-12.72 123.44,-24.55 192.35,-22.63 78.3,2.2 134.68,-17.42 204.71,-15.94 16.91,41.73 -12.47,2.76 11.02,22.47 0.24,0.2 4.11,1.21 16.28,13.75 38.88,40.09 -4.04,-27.37 12.08,17.85 -85.92,21.43 -200.9,-15.07 -297.88,-3.19l6.41 41.72 199.1 29.33 -101.01 21.22c-121.49,4.4 -21.54,60.23 -154.23,64.92 -16.86,23.81 -13.96,9.81 -16.83,46.63l-40.41 4.86c-134.78,27.63 -114.57,64.51 -157.72,87.95 -19.81,10.78 -63.24,23.69 -86.61,34.57 -31.37,14.59 -63.13,36.07 -80.43,43.28l-9.04 18.53c-1.08,2.1 -3.07,6.53 -4.45,9.05 -14.79,27.28 -2.34,9.81 -19.62,31.68l-11.78 12.84c-39.34,40.69 -83.16,61.7 -123.81,87.36l175.17 -98.49c216.59,-106.67 492.73,-166.59 739.52,-141.23 -50.45,27.54 -260.08,31.48 -337.92,41.6 18.42,14.15 -0.64,7.87 30.05,15.62 55.12,13.9 87.36,-12.31 128.59,11.71l-153.49 36.05 -26.19 -1.8c15.28,12.36 -16.11,18.34 51.19,14.68 57.72,-1.19 61.52,-16.44 108.51,-20.57 109.62,-9.64 285.57,-12.66 398.1,6.65 246.82,42.35 396.19,113.3 454.73,122.98 29.22,-9.11 22.36,-7.99 48.94,3.7 21.13,-21 8.37,6.57 9.19,-32.23 -24.56,-15.73 -14.37,-15.83 -39.05,-28.47 80.98,4.4 89.83,21.47 143.29,54.3 35.25,10.94 12.95,2.56 50.12,16.53 -8.79,-10.11 -18.6,-23.33 -27.08,-30.67l-21.79 -15.46c-91.11,-57.54 -97.72,-16.87 -139.53,-77.21l138.9 35.72c15.14,5.18 21.16,-0.35 44.47,28.35l47.44 21.81c34.63,-15.02 23.39,20.8 29.55,-29.67 -37.55,-12.43 -26.59,-13.19 -56.7,-30.97 -34.96,-20.63 -36.44,-12.09 -66.97,-25.57l14.84 -28.45c-33.36,-19.8 -49.55,-15.73 -62.78,-50.45 43.66,15.78 102.28,41.5 152.63,65.88 64.16,31.07 92.26,71.7 140.15,97.13 54.74,30.79 34.7,36.18 87.96,61.25 15.89,7.47 42.1,11.08 44.27,27.41 0.76,5.75 6.06,14.36 7.41,17.27 10.17,21.92 -2.4,0.66 11.74,24.11l125.26 125.72c21.81,-5.54 0.46,-4.45 18.1,-4.64 33.28,-0.38 56.9,38.11 69.85,50.39 42.08,39.88 7.51,19.85 40.38,19.98 21.5,-44.96 -28.85,-53.6 -27.85,-83.69l24.42 -44.8c21,30.97 38.74,54.56 67.52,90.47l152.9 303.49c21.27,22.53 3.59,8.72 39.3,25.78 -8.32,-30.41 -20.8,-55.24 -23.87,-83.59 -7.66,-70.81 10.73,-2.05 0.21,-60.99 -15.02,-143.57 -355.58,-494.1 -473.76,-603.56 -121.37,-112.41 -344.3,-249.95 -501.68,-316.34 -62.73,-26.44 -135.97,-50.59 -187.39,-76.49l-151.54 -37.33c33.38,-21.34 42.55,-3.88 48.6,-19.76 1.5,-3.97 6.19,-2.56 10.53,-8.63l-46.43 -14.9c8.1,-5.29 11,13.31 12.18,-25.81 0.11,-3.74 -1.2,-5.56 -2.15,-8.23 -88.59,-21.34 -163.11,-23.39 -250.26,-50.3 5.63,-47.04 -2.99,-16.95 20.34,-24.33l-133.23 -27.16c-44.03,-12.41 -6.72,-0.23 -24.02,-13.46 63.12,-38.61 114.94,12.14 170.09,-28.01 -73.54,-19.4 -53.2,-14.81 -57.13,-29.72 -15.88,-11.07 7.94,25.87 -11.1,-17.23 64.46,-3.45 123.09,14.88 172.5,11.4 76.8,-5.41 -6.87,-68.94 342.19,33.55l58.6 27.99c50.71,-5.95 16.69,-3.56 28.73,14.31 97.89,8.68 380,173.99 457.21,221.8 284.34,176.1 510.87,405.65 685.58,685.99 48.6,77.99 215.44,365.69 216.1,466.91 81.55,70.3 125.29,574.01 129.34,659.17 17.44,367.21 -60.12,462.98 -85.02,704.15l17.64 -25.95c-0.88,105.98 -39.92,219.72 -73.11,320.75 89.57,-81.6 89.61,-254.14 135.67,-357.72 1.15,180.36 -140,515.22 -131.54,566.18 9.27,55.82 -7.56,92.6 -57.47,163.3l-3.99 14.49 -237.9 336.55c-84.21,106.89 -374.82,393.26 -495.16,456.26 -14.06,7.37 1.4,3.94 -27.88,10.32 29.34,18.07 61.52,-3.9 61.53,-3.91 -18.51,59.38 -53.82,21.92 -77.78,24.57 -26.72,2.96 -74.57,48.9 -98.75,66.24 -67.44,48.33 -133.41,62.37 -199.86,117.51l0 -0.01zm-3363.25 -1430.18l9.4 50.71c4.59,-10.28 14.86,18.94 7.06,-34.17 -0.42,-2.88 -3.81,-13.18 -4.87,-15.02 -19.7,-33.77 9.58,-27.02 -11.59,-1.52zm-13.23 -35.71l-2.18 16.41c16.47,-20.81 21.98,34.3 11.84,-47.12l-9.66 30.71zm4568.97 403.35l-4.57 -50.07c8.8,-27.52 49.32,-49.21 62.48,-61.75 18.89,-18.01 10.89,-18.17 32.19,-36.99 57.82,73.22 11.7,186 -90.1,148.8z"/>
   <path class="fil2" d="M4828.37 4170.87c-28.77,-10.84 -21.29,8.38 -25.89,-24.46 -6.17,-44.09 10.37,-20.59 16.04,-27.63 16.27,19.17 17.61,-31.97 13.85,37.6 49.91,-70.7 66.75,-107.48 57.47,-163.3 -8.46,-50.96 132.69,-385.83 131.54,-566.18 -46.06,103.59 -46.1,276.12 -135.67,357.72 33.18,-101.03 72.23,-214.76 73.11,-320.75l-17.64 25.95 1.26 5.93c-8.01,66.2 -22.15,89.79 -40.31,154.98 -33.05,118.62 -34.27,86.05 -46.17,109.56 -19.95,39.42 -30.55,91.86 -50.01,131.59 -21.39,43.69 -41.15,77.29 -64.32,126.55 -25.92,79.5 45.37,146.04 19.76,213.23 -32.04,36.37 -33.77,13.88 -71.11,50.67 -35.4,34.89 -13.12,17.66 -57.37,51.09 -45.83,34.63 -48.24,92.91 -103.31,97.98 -25.84,-1.83 -23.59,6 -16.64,-16.17 -22.49,6.59 -16.86,9.46 -11.6,-13.94 -11.53,-6.68 -14.61,19.97 -15.46,-39.05 -1.15,-80.63 -1.02,-26.83 14.99,-41.37l-4.62 -14.02 -43.93 26.21c-12.1,10.42 -25.96,25.44 -36.9,35.45 -36.39,33.27 -38.44,27.93 -79.68,52.95 -41.56,25.2 -38.8,28.34 -62.59,69.75 -24.91,43.37 -34.78,34.59 -49.55,92.94 6.45,5.42 19.15,-20.17 17.88,42.28 -1.42,70.13 0.68,19 -14.88,39.4 -7.68,43.66 -68.55,111.45 -133.17,86.82 -18.32,-1.9 -13.97,2.36 -7.13,-16.24 -11.88,-15.59 -12.11,-2.54 -11.38,-55.48 0.07,-5.39 12.39,1.81 0.95,-32.76 -22.78,24.35 -29.1,28.45 -23.9,73.02 1.9,2.42 4.96,5.79 5.47,7.45l-3.54 24.26 -3.18 27.03c22.11,-4.01 13.04,-6.19 12.65,22.02 -46.7,83.72 -32.59,147.04 -168.67,142.66 -2.1,40.18 -2.69,53.64 -17.36,79.82l15.93 4.37c2.04,0.2 6.12,0.85 8.34,0.94 2.33,0.1 6.56,-0.15 8.79,-0.2 2.13,-0.05 21.78,-4.65 28.19,-5.81 -32.19,76.04 -46.43,1.99 -107.12,72.7 -19.37,22.55 -12.87,22.7 -38.7,47.24 -23.4,22.24 -21.27,10.74 -40.23,34.76 66.45,-55.13 132.43,-69.17 199.86,-117.51 24.17,-17.34 72.02,-63.28 98.75,-66.24 23.95,-2.64 59.26,34.81 77.78,-24.57 -0.02,0.01 -32.19,21.98 -61.53,3.91 29.28,-6.38 13.82,-2.95 27.88,-10.32 120.35,-63 410.95,-349.38 495.16,-456.26l237.9 -336.55 0 0.01z"/>
   <path class="fil0" d="M4051.98 4721.16l1.93 31.71c-34.76,25.75 -3.91,-17.74 -12.73,15.95 -10.89,41.64 -3.77,-1.73 9.55,11.08 -6.38,27.35 -13.29,22.02 12.65,22.02 0.39,-28.21 9.46,-26.03 -12.65,-22.02l3.18 -27.03 3.54 -24.26c-0.52,-1.66 -3.57,-5.03 -5.47,-7.45 -5.2,-44.58 1.12,-48.67 23.9,-73.02 11.44,34.57 -0.88,27.37 -0.95,32.76 -0.73,52.94 -0.5,39.89 11.38,55.48 -6.84,18.6 -11.19,14.34 7.13,16.24l-7.13 -16.24 7.84 -103.91c45.38,-10.19 64.43,-40.4 98.48,-65.72 3.4,2.11 14.43,6.71 16.15,7.73 1.28,0.76 6.33,3.86 7.59,4.63 1.25,0.75 4.87,3.29 7.25,5.02l3 81.68c15.57,-20.4 13.46,30.73 14.88,-39.4 1.28,-62.45 -11.43,-36.86 -17.88,-42.28 14.77,-58.34 24.64,-49.57 49.55,-92.94 23.79,-41.41 21.03,-44.55 62.59,-69.75 41.24,-25.02 43.28,-19.68 79.68,-52.95 10.94,-10.02 24.8,-25.03 36.9,-35.45l43.93 -26.21c39.6,-11.32 4.69,0.12 30.03,-17.98 26.16,-18.68 -15.02,-0.35 17.58,-15.16l2.4 -21.23 -16.22 -9.68c24.15,-25.13 31.27,-45.79 61.58,-59.68 8.8,-40.98 73.66,-116.85 101.46,-162.89 117.25,-194.16 239.46,-509.38 249.33,-524.45l-1.26 -5.93c24.91,-241.17 102.46,-336.95 85.02,-704.15 -4.05,-85.17 -47.79,-588.87 -129.34,-659.17 -27.53,61.12 3.4,26.02 8.68,73.97 6.07,55.13 -3.82,24.97 16.49,83.98l22.64 86.26c10.94,48.99 2.94,50.56 8.99,101.03 7.6,63.29 14.6,11.94 21.48,84.84 6.56,69.48 -3.86,123.52 15.32,193.02 17.15,62.16 -0.8,393.68 -20.05,446.23 -40.85,111.5 8.51,-67.81 -14.81,35.89 -14.7,65.4 10.66,40.36 -9.3,96.82 -48.38,136.87 -0.11,67.01 -37.41,82.99 -0.64,8.21 -1.87,44.98 -2.42,48.2 -14.21,82.66 -12.52,-3.88 -24.84,72.37 -1.64,10.15 1.34,27.48 2.15,31.41 -0.88,1.28 -3.34,2.35 -3.74,2.72l-18.23 21.98c-2.97,5.41 -5.7,12.4 -10.43,23.33l-234.06 419.43c-134.8,152.71 -73,133.41 -208.2,283.07 -65.12,72.11 -16.08,35.73 -118.83,121.91 -2.28,1.9 -267.35,221.83 -275.12,207.43 -1.34,-2.48 -5.59,2.99 -8.56,4.04 14.28,37.78 2.33,15.25 21.22,45.45 17.83,28.5 0.12,10.47 24.17,28.28zm449.36 -319.89c-5.26,23.39 -10.89,20.53 11.6,13.94 -6.95,22.18 -9.2,14.34 16.64,16.17 0,-26.15 7.15,-22.76 -16.64,-16.17 6.02,-21.76 10.45,-17.62 -11.6,-13.94l-0.46 -80.43c-16.01,14.54 -16.14,-39.26 -14.99,41.37 0.84,59.02 3.93,32.37 15.46,39.05z"/>
   <path class="fil3" d="M1873.16 4824.84c-16.05,-20.73 -3.07,-6.44 -21.73,-22.7 -11.46,-9.97 -14.19,-9.43 -25.59,-18.45 13.42,-10.46 2.74,-5.25 9.46,-25.36 -37.9,-33.22 -107,-63.52 -159.25,-94.29 -198.61,-116.91 -262.7,-196.29 -414.27,-343.72 -147.58,-143.54 -186.45,-240.61 -276.26,-361.31 -135.62,-182.27 -74.24,-174.31 -129.54,-239.93 -15.31,42.03 -10.15,18.89 -18.16,35.49 -0.11,0.22 -6.44,6.49 -13.23,30.12 26.29,36.37 34.62,44.96 53.8,87.38 26.87,59.43 4.07,37.02 44.13,88.19 25.15,32.11 28.81,48.38 50.23,80.75l110.89 144.24c183.03,248.11 123.39,141.06 247.73,269.79 39.89,41.31 32.19,13.63 74.1,59.33 84.78,92.43 355.99,297.07 467.68,310.49l0 -0.01z"/>
   <path class="fil4" d="M2040.62 1925.64l-21.6 -4.19c17.31,-15.37 20.78,-18 43.28,-34.39 13.09,8.46 13.38,-16.62 8.57,23.26 2.57,-2.45 4.75,-11.23 5.42,-9.18 3.43,10.65 -13,-38.06 77.63,-92.33 73.26,-43.86 88.07,-60.4 110.93,-117.77 -42.79,13.17 -15.03,4.02 -42.2,27.63l-32.2 28.24c-2.85,2.17 -35.32,23.72 -36.85,24.31 -17.25,6.55 -19.97,5.02 -41.47,5.32 2.15,1.68 5.24,4.39 6.25,5.3l20.73 20.1 -55.64 15.91c25.94,-43.09 30.46,-6.75 13.55,-26.92 -30.34,8.75 -41.57,15.89 -64.67,43.58l-18.47 12.2 7.04 10.47 0.32 4.4c23.71,-34.48 2.87,-19.19 30.01,-22.85 33.85,-4.58 2.43,-8.02 27.79,13.49l-45 19.87 2.13 0.8c-11.55,34.13 8.02,18.83 -31.44,32.66l-15.68 20.89c27.02,12.25 13.99,1.33 28.23,20.01 -34.26,15.4 -30.1,21.55 -68.38,4.19l-15.58 7.72c21.59,36.87 10.81,12.22 11.89,32.18 1.06,19.57 11.89,9.44 -7.56,16.65 -19.29,7.14 -28.34,-10.67 -29.28,-13.61 -1.48,-4.66 -5.52,-5.18 -8.23,-7.82 5.47,18.87 8.83,14.3 -10.92,13.01 4.43,22.63 11.84,21.97 -8.23,15.58 7.47,22.82 10.42,15.98 -14.83,15.98l-133.04 185.1c-154.79,229.81 -190.02,416.27 -192.08,678.55l0.68 132.05c16.27,64.74 -2.5,12.96 19.04,38.42 15.12,-82.12 26.69,-124.2 22.3,-218.86 -3.91,-84.42 -18.81,-50.33 11.57,-115.77 66.28,-142.8 5.25,-141.06 55.49,-224.57 30.7,-51.03 17.61,-41.87 38.86,-91.43 19.58,-45.67 8.53,-11.96 20.52,-33.27 4.86,-8.63 7.53,-21.6 14.74,-40.75 13.3,-35.4 32.21,-66.36 48.05,-95.76l-33.11 0.67c-1.12,-0.05 -4.96,0.2 -7.2,-0.67l27.88 -49.84c23.25,60.25 7.28,28.64 31.03,36.81 37.91,-52.31 48.8,-59.25 69.42,-129.1l11.57 -31.11c79.08,-94.51 -21.17,58.98 99.18,-75.19 17.79,-19.84 -0.69,-2.18 23.99,-22.79 39.49,-32.95 18.12,5.6 45.56,-47.19l0 0.01z"/>
   <path class="fil0" d="M1475.93 1449.09l170.01 -126.46c128.6,-106.21 44.04,-6.17 197.74,-81.33 122.74,-60.03 471.06,-220.07 590.01,-185.77 95.92,27.67 90.37,12.35 134.99,19.11 58.22,8.82 25.51,-10.46 37.66,19.89l101.01 -21.22 -199.1 -29.33 -6.41 -41.72c96.98,-11.87 211.96,24.62 297.88,3.19 -16.11,-45.22 26.81,22.25 -12.08,-17.85 -12.17,-12.54 -16.05,-13.55 -16.28,-13.75 -23.5,-19.71 5.89,19.26 -11.02,-22.47 -70.03,-1.49 -126.41,18.13 -204.71,15.94 -68.91,-1.93 -126.97,9.91 -192.35,22.63 -225.44,43.84 -507.88,160.68 -698.83,302.83l-188.51 156.32z"/>
   <path class="fil4" d="M2483.58 4972.27l52.89 32.82c0.82,0.72 2.69,2.91 3.37,3.65 0.69,0.75 1.99,3.57 2.62,4.38 1.46,1.89 2.45,6.95 5.62,10.62 1.06,1.21 2.92,4.53 4.22,5.7 64.65,58.26 451.67,12.73 508.48,13.03 15.84,0.08 33.24,1.38 49.11,-1.52l35.05 -11.33c3.45,-1.23 7.79,-3.12 11.39,-5.23l-71.1 -24.01c10.62,11.21 4.88,2.4 41.95,0.92 95.33,-3.79 50.86,73.62 445.34,-72.44 -44.88,65.75 -29.8,119.96 -29.8,203.79l61.19 49.47c2.58,1.55 5.57,3.22 8.27,4.6 2.78,1.42 5.97,2.85 8.84,4.07l54.09 10.83 57.5 -19.37c-138.31,2.07 -166.18,-13.17 -162.47,-145.97 6.42,-230.38 95.29,-121.49 99.08,-210.84 -79.49,32.09 -160.28,68.14 -257.93,92.86 -95.64,24.21 -189.68,42.45 -284.14,64.9 -218.8,51.99 -273.94,24.64 -486.99,13.87l-156.6 -24.81z"/>
   <path class="fil0" d="M4597.74 2237.7c-23.67,-55.71 -20.15,-80.78 -39.02,-128.8 -34.73,-88.4 -6.17,-70.07 -22.38,-113.37l-16.25 -23.2c-1.36,-1.7 -4.81,-4.33 -7.21,-6.49 10.51,58.94 -7.86,-9.81 -0.21,60.99 3.07,28.34 15.55,53.17 23.87,83.59 -35.71,-17.05 -18.02,-3.24 -39.3,-25.78l-152.9 -303.49c-28.78,-35.91 -46.53,-59.5 -67.52,-90.47l-24.42 44.8c-1.01,30.09 49.35,38.73 27.85,83.69 -32.87,-0.14 1.71,19.9 -40.38,-19.98 -12.96,-12.27 -36.57,-50.77 -69.85,-50.39 -17.65,0.19 3.71,-0.9 -18.1,4.64l-125.26 -125.72c-14.14,-23.45 -1.57,-2.2 -11.74,-24.11 -1.34,-2.91 -6.65,-11.52 -7.41,-17.27 -2.17,-16.33 -28.39,-19.94 -44.27,-27.41 -53.26,-25.07 -33.22,-30.45 -87.96,-61.25 33.68,40.65 24.66,9.29 69.38,67.62l111.8 116.87c1.72,1.7 4.43,4.03 6.18,5.71 1.77,1.69 4.49,3.99 6.27,5.68l63.9 77.9c21.24,-1.27 15.62,-5.25 10.58,16.96 21.54,-7.78 12.42,-7.13 6.44,17.59 17.69,-2.71 12.02,-5.14 9.14,14.54 17.69,-3.29 11.93,-5.73 10.68,14.23l11.01 12.03 15.4 12.04 42.95 28.23c4.04,2.2 9.05,4.49 13.61,6.66 -9.59,-53.78 -2.78,-38.05 -29.6,-78.72 33.93,13.44 28.66,20.48 58.6,40.14 2.22,1.45 5.41,3.09 7.68,4.5l36.06 22.79c26.4,23.75 56.92,83.7 74.01,117.08 24.58,48 114.25,211.02 116.17,251.07 2.91,2.72 9.26,1.23 10.38,5.92 11.37,47.36 -0.66,-11.94 15.29,9.54l-2.79 -61.85c5.93,-1.61 9.95,16.66 14.53,26.96l48.77 84.33 -3.99 -77.79zm-58.92 57.84l-4.07 20.18c33.63,-38.26 23.95,-1.28 20.02,-52.68l-15.95 32.5 0 0.01zm16.56 68.82c16.48,-6.85 4.64,-2.76 4.27,14.73l22.56 -2.85c-3.07,-14.31 -3.63,-26.96 -9.46,-41.92 -9.7,-24.99 -18.97,-28.96 -19.26,-29.27l1.88 59.31 0.01 0.01zm40.98 -10.44c26.12,0 16.77,5.4 18.7,-25.54l6.02 -23.13 -29.27 21.75 4.54 26.92 0.01 0z"/>
   <path class="fil0" d="M2070.11 1376.75c-69.79,26.22 3.66,-16.45 -38.89,2.74l-14.03 50.6c-22.79,40.22 -111.36,87.6 -114.56,90 -24.08,17.98 -16.6,-22.2 -24.63,36.94l-2.31 32.49c-8.18,22.03 -5.68,1.48 -20.54,21.19 38.25,6.6 164.36,-88.72 291.34,-134.75 60.23,-21.84 227.33,-94.73 288.7,-91.2 57.67,3.31 24.68,-6.95 48.14,16.7l153.49 -36.05c-41.23,-24.01 -73.47,2.2 -128.59,-11.71 -30.69,-7.74 -11.63,-1.47 -30.05,-15.62 77.84,-10.13 287.47,-14.06 337.92,-41.6 -246.79,-25.36 -522.93,34.56 -739.52,141.23l-175.17 98.49c40.64,-25.67 84.46,-46.67 123.81,-87.36l11.78 -12.84c17.28,-21.87 4.83,-4.4 19.62,-31.68 1.38,-2.52 3.37,-6.94 4.45,-9.05l9.04 -18.53 -0.01 0z"/>
   <path class="fil1" d="M265.36 1419.48c-40.69,20.81 -59.58,-8.46 -88.3,46.87 -61.96,119.34 47.68,255.68 171.75,195.62 128.34,-62.14 83.32,-193.7 17.47,-238.06 -40.18,-27.06 -67.05,-21.78 -100.92,-4.43z"/>
   <path class="fil0" d="M3069.75 5313.25c14.75,-75.22 10.08,-160.47 -66.64,-194.73 -120.59,-53.87 -225.23,74.27 -183.12,170.34 74.08,169.01 207.42,48.74 249.75,24.39z"/>
   <path class="fil0" d="M4688.48 4104.08c19.86,50.87 -49.55,98.05 -89.13,170.83l-55.47 -1.22c-32.6,14.81 8.57,-3.52 -17.58,15.16 -25.35,18.1 9.57,6.66 -30.03,17.98l4.62 14.02 0.46 80.43c22.04,-3.67 17.62,-7.82 11.6,13.94 23.79,-6.59 16.64,-9.97 16.64,16.17 55.07,-5.07 57.48,-63.35 103.31,-97.98 44.25,-33.43 21.97,-16.2 57.37,-51.09 37.34,-36.79 39.07,-14.31 71.11,-50.67 25.61,-67.18 -45.68,-133.73 -19.76,-213.23 -29.42,25.71 -44.93,42.5 -53.13,85.66z"/>
   <path class="fil4" d="M1873.16 4824.84c17.98,0.13 209.23,76.59 228.94,98.96 14.62,16.6 -2.11,23.38 53.03,49.59 -36.19,-38.88 -6.96,-7.82 3.4,-17.31 44.62,14.81 104.67,28.77 151.8,41.77 27.7,7.66 49.46,16.24 76.05,22.14 94.84,21.05 92.46,-10.98 109.1,-31.65l-7.5 -7.94 -52.68 -18.07c-117.88,-18.01 -370.78,-91.77 -455.83,-132.64 -26.84,-12.9 -47.51,-27.03 -69.35,-38.51 -27.75,-14.6 -53.44,-21 -74.84,-32.88 -6.71,20.11 3.96,14.91 -9.46,25.36 11.4,9.04 14.13,8.49 25.59,18.45 18.66,16.26 5.68,1.97 21.73,22.7l0 0.01z"/>
   <path class="fil0" d="M2947.04 681.8c71.11,19.57 101.81,33.51 172.37,33.61 -70.89,-16.22 -59.57,1.51 -75.43,20 9.54,21.4 5.06,2.12 29.79,16.11 3.04,-6.02 -9.92,-25.12 71.56,-22.07 73.29,2.72 33.28,29.42 137.87,15.26 67,-9.07 28.75,-17.35 73.28,12.89l-48.3 9.35c112.67,11.78 130.39,-34.02 201.06,-29.44 5.23,17.21 -23.67,13.3 28.73,14.31 -12.04,-17.87 21.98,-20.25 -28.73,-14.31l-58.6 -27.99c-349.06,-102.49 -265.39,-38.95 -342.19,-33.55 -49.42,3.48 -108.04,-14.85 -172.5,-11.4 19.04,43.1 -4.78,6.16 11.1,17.23z"/>
   <path class="fil5" d="M2036.18 1872.92c-34.4,20.19 -11.55,-3.5 -31.44,32.66 39.47,-13.83 19.9,1.47 31.44,-32.66zm4.44 52.72c15.71,-10.61 16.63,-9.54 30.25,-15.32 4.81,-39.88 4.52,-14.8 -8.57,-23.26 -22.5,16.39 -25.97,19.02 -43.28,34.39l21.6 4.19zm-51.57 0.83l-40.14 24.2c-22.9,-8.99 -20.85,-15.68 -15.58,7.72l-27.76 19.81c-1.26,1.29 -3.56,5.09 -5.42,7.58 -21.72,-8.85 -15.62,-10.44 -10.92,13.01 -19.96,-1.46 -14.64,-4.79 -8.23,15.58 -21.82,-5.62 -14.85,-8.5 -14.83,15.98 25.25,0 22.3,6.84 14.83,-15.98 20.07,6.38 12.66,7.04 8.23,-15.58 19.75,1.29 16.39,5.86 10.92,-13.01 2.71,2.64 6.75,3.16 8.23,7.82 0.94,2.95 9.99,20.75 29.28,13.61 19.45,-7.2 8.62,2.92 7.56,-16.65 -1.08,-19.96 9.7,4.7 -11.89,-32.18l15.58 -7.72c38.28,17.36 34.12,11.21 68.38,-4.19 -14.25,-18.68 -1.22,-7.76 -28.23,-20.01zm31.88 -69.27l-7.04 -10.47 18.47 -12.2c-30.74,-1.77 -33.46,-12.25 -18.47,12.2 -40.18,7.93 2.99,-8.88 -25.55,10.51l-51.06 44.71c-25.39,27.82 -5.24,-13.89 -23.29,36.23l79.49 -52.06c28.25,-27.08 0.5,11.94 27.46,-28.92zm13.12 14.91l45 -19.87c-25.35,-21.51 6.06,-18.07 -27.79,-13.49 -27.14,3.66 -6.3,-11.64 -30.01,22.85l12.8 10.51zm78.08 -95.56c21.49,-0.3 24.21,1.22 41.47,-5.32 1.53,-0.59 34,-22.14 36.85,-24.31l32.2 -28.24c27.17,-23.61 -0.59,-14.47 42.2,-27.63 64.15,-54.51 -102.24,-3.05 52.69,-79.27 64.68,-31.82 148.56,-123.61 152.42,-126.72 18.72,-15.07 31.48,-15.15 56.02,-21.02 -8.45,-11.91 -25.84,-33.64 -44.3,-33.22 53.62,-7.63 4.44,2.85 26.64,-16.48 -67.3,3.66 -35.91,-2.31 -51.19,-14.68 -53.11,0.42 -92.38,4.28 -64.1,56.75 10.69,19.84 10.54,11.04 24.66,41.41 -35.91,37.7 -117.3,74.65 -175.23,132.46 -30.73,30.66 -6.18,66.08 -122.6,140.71 -1.77,1.12 -5.58,3.23 -7.74,5.57 -21.1,-4.48 -15.11,-8.13 -15.11,14.39 16.92,20.18 12.39,-16.16 -13.55,26.92l55.64 -15.91 -20.73 -20.1c-1.01,-0.91 -4.1,-3.62 -6.25,-5.3z"/>
   <path class="fil6" d="M1217.68 1670.71c63.54,-51.28 89.25,-76.55 91.23,-140.48 -19.74,-2 -36.65,-4.91 -41.63,-3.66 -30.55,7.63 -8.29,22.85 -32.08,38.46 -30.62,20.09 -48.44,52.43 -71.23,81.69 -72.62,93.23 -192.51,292.26 -242.59,407.59l-86.85 248.49c36.43,-30.15 27.1,-5.83 41.09,-56.77 6.78,-24.75 6.96,-37.79 19.42,-66.55 11.37,-26.24 12.88,-23.81 26.06,-57.56 15.11,-38.66 5.67,-15.49 5.83,-15.66l27.24 -8.89c38.39,-130.2 176.19,-374.4 272.48,-472.46 22.19,-22.58 32.26,-31.53 52.95,-53.68 -12.1,34.47 -6.47,18.99 -27.16,43.46l-34.75 56.02z"/>
   <path class="fil5" d="M3561.94 3954.11l111.25 -76.93c1.93,-1.93 5.05,-5.66 6.6,-7.29l12.69 -16.16 -130.55 100.38zm127.46 -98.59c23.72,-12.85 7.99,-4.02 26.27,-16.87l48.47 -37.35c38.09,-41.15 9.79,-35.61 29.99,-92.76 54.04,-15.15 20.23,27.41 75.4,-29.71 21.36,-22.09 43.44,-42.37 59.06,-62.63 36.59,-47.45 75.36,-92.07 86.76,-160.84l-28.72 -13.12 -33.82 43.15c-69.37,111.09 -159.87,224.58 -254.53,311.05 -1.88,-2.5 -3.6,-10.17 -4.21,-8.4 -0.61,1.77 -3.2,-6.61 -4.04,-8.5 -14.21,-31.82 -7.2,-38.65 -51.09,-61.64 -32.34,15.63 -44.75,23.25 -56.23,54.74 20,36.27 24,31.92 52.89,50.19 2.2,1.39 6.29,4.04 8.11,5.18 1.85,1.17 5.68,3.25 8.2,5.31l-106.92 93.47c52.99,-15.02 158.61,-93.69 188.13,-139.59l-7.14 23.9c-1.66,1.33 -4.86,3.62 -6.66,5.27 -16.51,15.11 -16.11,16.89 -29.92,39.15zm-68.54 -57.81c-16.25,-4.55 -24.27,-24.05 -15.8,-37.66 32.41,-52.1 -35.23,30.24 21.8,-11.56 15.74,-11.53 -23.64,-19.02 18.61,-12.33 35.2,5.57 25.18,75.54 -24.61,61.55z"/>
   <path class="fil0" d="M5167.94 4272.02c75.16,-77.18 47.83,-138.68 93.05,-181.6 -1.62,-3.11 -3.09,-7.26 -3.87,-9.81 -0.79,-2.56 -2.64,-6.82 -3.5,-10l-7.76 -42.49c-9.73,-55.57 -17.51,-103.08 -48.17,-126.76 -17.6,21.69 -40.13,42.65 -63.9,66.17 -25.56,25.29 -34.76,41.89 -33.46,94.64l71.51 8c-2.08,36.28 -6,25.67 4.49,56.21 1.23,3.59 7.69,13.86 8.93,16.22l11.1 15.2c-37.85,26.96 -66.53,40.39 -71.5,92.5l43.09 21.73z"/>
   <path class="fil1" d="M4591.64 4183.08c-30.3,13.89 -37.42,34.56 -61.58,59.68l16.22 9.68c36.26,-29.48 36.07,-24.49 45.36,-69.36 32.13,14.25 9.1,-8.12 19.82,35.15 13.66,-24.91 14.96,-27.28 35.85,-51.5l41.17 -62.66c8.2,-43.16 23.71,-59.95 53.13,-85.66 23.17,-49.25 42.93,-82.86 64.32,-126.55 19.46,-39.73 30.06,-92.17 50.01,-131.59 11.9,-23.5 13.12,9.06 46.17,-109.56 18.16,-65.19 32.3,-88.77 40.31,-154.98 -9.87,15.07 -132.08,330.29 -249.33,524.45 -27.79,46.04 -92.66,121.92 -101.46,162.89z"/>
   <path class="fil0" d="M3879.13 1573.28c-35.18,-35.55 -27.79,-28.72 -92.63,-26.86 12.74,12.85 -6.15,15.11 43.66,26.04 4.07,0.89 40.84,0.24 48.96,0.82 40.31,41.69 85.22,61.35 122.57,103.58 49.11,55.5 14.49,15.68 67.9,38.51 23.66,10.12 45.61,40.34 63.2,56.08 -7.2,25.81 -14.36,23.38 10.58,16.96l6.44 17.59c-6.59,20.89 -11.72,17.7 9.14,14.54 -3.08,18.39 -7.33,14.23 10.68,14.23l11.01 12.03c0,17.41 -3.84,12.04 15.4,12.04l-15.4 -12.04 -11.01 -12.03c1.25,-19.97 7.01,-17.52 -10.68,-14.23 2.88,-19.69 8.55,-17.25 -9.14,-14.54 5.98,-24.72 15.1,-25.37 -6.44,-17.59 5.03,-22.21 10.66,-18.23 -10.58,-16.96l-63.9 -77.9c-1.77,-1.69 -4.5,-3.99 -6.27,-5.68 -1.75,-1.68 -4.46,-4.01 -6.18,-5.71l-111.8 -116.87c-44.72,-58.33 -35.7,-26.97 -69.38,-67.62 -47.89,-25.43 -75.98,-66.06 -140.15,-97.13 -50.35,-24.38 -108.96,-50.11 -152.63,-65.88 13.23,34.72 29.42,30.66 62.78,50.45 66.91,21.6 112.85,75.12 150.35,100.74l72.18 47.51c55.04,43.48 71.76,47.09 48.87,56.28 -17.82,-15.63 -9.37,-11.95 -37.54,-16.36l0.01 -0.01z"/>
   <path class="fil0" d="M3350.04 969.44l-11.21 -25.78c-0.89,-1.91 -2.2,-5.82 -3.27,-7.8 -1.02,-1.9 -2.15,-5.57 -3.35,-7.32 -1.19,-1.75 -2.84,-5.34 -4.21,-6.79 -32.38,-34.22 -24.18,-16.45 -38.14,-1.73 29.78,-32.13 16.44,-6.69 30.71,-51.43l-132.46 -50.71c53.98,-14.07 37.29,-6.37 81.81,-2.8 -15.68,-39.1 -30.67,-39.74 -81.99,-42.36 14.74,25.37 -16.79,18.83 14.09,20.6 -82.01,12.62 -131.15,-2.53 -210.7,-13.16 -23.33,7.38 -14.7,-22.71 -20.34,24.33 87.15,26.91 161.67,28.96 250.26,50.3 0.95,2.67 2.25,4.48 2.15,8.23 -1.18,39.12 -4.08,20.52 -12.18,25.81l46.43 14.9c-4.34,6.07 -9.03,4.66 -10.53,8.63 -6.06,15.89 -15.23,-1.58 -48.6,19.76l151.54 37.33z"/>
   <path class="fil0" d="M4086.32 4736.38l7.13 16.24c64.62,24.63 125.49,-43.15 133.17,-86.82l-3 -81.68c-2.37,-1.73 -6,-4.27 -7.25,-5.02 -1.27,-0.77 -6.32,-3.87 -7.59,-4.63 -1.71,-1.02 -12.74,-5.62 -16.15,-7.73 -34.04,25.31 -53.1,55.53 -98.48,65.72l-7.84 103.91z"/>
   <path class="fil7" d="M361.71 3690.38l14.38 22.14 9.66 -30.71c10.14,81.42 4.63,26.31 -11.84,47.12l15.4 19.31c21.16,-25.5 -8.11,-32.25 11.59,1.52 1.06,1.83 4.45,12.14 4.87,15.02 7.8,53.11 -2.47,23.89 -7.06,34.17 38.94,131.83 90.27,234.69 156.3,350.46l38.14 62.02c2.56,2.88 6.47,5.98 8.72,8.34 2.37,2.49 6.33,5.62 9.46,8.5l-88.21 -198.56c2.11,3.29 7.88,2.81 8.8,7.75 9.53,51.15 -7.25,-11.63 12.76,14.47 -4.65,-40.48 -0.02,-21.79 -14.57,-53.98 -56.94,-125.97 -76.02,-118.02 -104.71,-234.96 -0.76,-3.08 -1.45,-6.27 -2.23,-9.38l-39.08 -106.25c-7.57,65.08 0.25,20.12 -22.4,43.03l-0.01 0z"/>
   <path class="fil1" d="M1215.28 366.41c-28.82,122.44 62.07,95.11 81.58,78.38 27.41,-23.51 19.84,-25.07 24.08,-72.72l-55.84 -26.46c17.09,-124.43 -75.63,-79.07 -84.82,-49.74 -15.7,50.07 10.89,49.29 35,70.54z"/>
   <path class="fil0" d="M2991.32 780.15c79.55,10.62 128.69,25.78 210.7,13.16 -30.88,-1.77 0.65,4.77 -14.09,-20.6 -49.28,5.57 -73.79,-12.56 -114.17,-21.2 -24.73,-13.99 -20.25,5.3 -29.79,-16.11 15.86,-18.49 4.54,-36.22 75.43,-20 -70.55,-0.1 -101.25,-14.05 -172.37,-33.61 3.93,14.91 -16.42,10.32 57.13,29.72 -55.16,40.15 -106.97,-10.6 -170.09,28.01 17.3,13.23 -20.01,1.06 24.02,13.46l133.23 27.16z"/>
   <path class="fil1" d="M1189.75 696.55c120.48,33.15 149.86,-61.15 104.04,-102.62 -46.32,-41.92 -144.56,-7.86 -104.04,102.62z"/>
   <path class="fil1" d="M1145.27 4.49c-68.03,156.13 117.8,154.91 107.61,27.63 -2.58,-32.33 -58.65,-37.48 -107.61,-27.63z"/>
   <path class="fil0" d="M4945.06 4115.87c101.79,37.19 147.92,-75.58 90.1,-148.8 -21.3,18.83 -13.29,18.98 -32.19,36.99 -13.16,12.53 -53.68,34.22 -62.48,61.75l4.57 50.07z"/>
   <path class="fil8" d="M4596.37 2353.91l-3.45 29.48 -10.72 -7.17 -22.56 2.85c-4.89,42.44 -6.68,61.67 23.42,88.7 7.19,6.46 58.08,35.28 72.44,41.74 -11.75,-198.05 3.34,-164.82 -40.44,-181.14 -1.93,30.94 7.42,25.54 -18.7,25.54z"/>
   <path class="fil0" d="M3724.55 1499.77c2.34,2.85 5.84,3.42 7.31,8.33l54.63 38.32c64.85,-1.87 57.45,-8.69 92.63,26.86 28.17,4.41 19.72,0.73 37.54,16.36 22.89,-9.18 6.17,-12.8 -48.87,-56.28l-72.18 -47.51c-37.5,-25.62 -83.44,-79.14 -150.35,-100.74l-14.84 28.45c30.53,13.49 32.02,4.94 66.97,25.57 30.11,17.78 19.15,18.54 56.7,30.97 -6.17,50.47 5.08,14.65 -29.55,29.67l0 0.01z"/>
   <path class="fil0" d="M3469.66 1523.41c43.15,35.61 93.49,42.35 134.99,69.38 36.06,23.5 90.88,64 116.2,82.56 -34.16,-92.66 -116.54,-108.68 -157.04,-175.16l-36.02 -5.3c-0.82,38.8 11.94,11.22 -9.19,32.23 -26.59,-11.69 -19.72,-12.81 -48.94,-3.7z"/>
   <path class="fil0" d="M3632.02 1520.7l39.03 30.71c14.37,8.47 23.39,13.28 49.55,16.82 -15.04,-37.46 -34.61,-54.3 -67.37,-82.45l23.88 -7.81c-23.32,-28.71 -29.33,-23.17 -44.47,-28.35l-138.9 -35.72c41.81,60.34 48.42,19.67 139.53,77.21l21.79 15.46c8.49,7.34 18.29,20.56 27.08,30.67 -37.18,-13.97 -14.87,-5.59 -50.12,-16.53z"/>
   <path class="fil0" d="M4591.64 4183.08c-9.29,44.87 -9.1,39.89 -45.36,69.36l-2.4 21.23 55.47 1.22c39.58,-72.78 108.99,-119.96 89.13,-170.83l-41.17 62.66c-20.89,24.22 -22.2,26.6 -35.85,51.5 -10.72,-43.27 12.31,-20.9 -19.82,-35.15z"/>
   <path class="fil5" d="M4515.53 2250.59c12.02,46.52 -11.35,10.17 23.3,44.95l15.95 -32.5c3.93,51.39 13.61,14.42 -20.02,52.68 -26.45,55.68 16.82,45.45 20.62,48.64l-1.88 -59.31c0.29,0.3 9.55,4.27 19.26,29.27 5.82,14.97 6.38,27.62 9.46,41.92l10.72 7.17 3.45 -29.48 -4.54 -26.92 29.27 -21.75 -23.35 -67.54 3.99 77.79 -48.77 -84.33c-4.59,-10.3 -8.61,-28.57 -14.53,-26.96l2.79 61.85c-15.95,-21.49 -3.93,37.82 -15.29,-9.54 -1.12,-4.69 -7.47,-3.2 -10.38,-5.92l-0.02 -0.02z"/>
   <path class="fil1" d="M956.24 111.03l64.19 -2.85c18.3,-66.3 11.21,-89.51 -67.14,-79.36 -22.72,37.77 -18.86,44.81 2.96,82.22z"/>
   <path class="fil4" d="M5557.6 3827.27l-39.72 -101.8c-19.93,-21.62 -9.24,-11.71 -37.38,-24.59 -15.11,31.41 -27.98,-41.96 -11.07,44.02 2.59,13.22 38.83,67.39 88.17,82.38z"/>
   <path class="fil8" d="M3836.86 4837.83c17.45,-111.84 -64.29,-79.11 -82.94,-24.98 75.15,12.07 34.1,-3.99 82.94,24.98z"/>
   <path class="fil0" d="M3626.87 3748.5c-57.03,41.81 10.62,-40.54 -21.8,11.56 -8.47,13.61 -0.46,33.11 15.8,37.66 49.79,13.99 59.81,-55.98 24.61,-61.55 -42.25,-6.69 -2.87,0.8 -18.61,12.33z"/>
   <path class="fil1" d="M1081.95 156.39c73.55,-8.81 40.2,25.02 46.82,-47.41 -61.47,10.12 -36.49,-15.42 -46.82,47.41z"/>
   <path class="fil9" d="M2394.86 1210.95l40.41 -4.86c2.87,-36.82 -0.03,-22.82 16.83,-46.63l-40.99 5.48 -16.26 46.01z"/>
   <path class="fil5" d="M3650.01 5213.16c-48.64,-2.2 -14.72,-6 -29.15,19.57 18.01,60.22 -9.07,18.81 35.4,36.12l-6.24 -55.69z"/>
   <path class="fil0" d="M4828.37 4170.87l3.99 -14.49c3.76,-69.57 2.42,-18.43 -13.85,-37.6 -5.67,7.04 -22.2,-16.45 -16.04,27.63 4.6,32.84 -2.87,13.61 25.89,24.46z"/>
   <path class="fil1" d="M3026.23 3765.74c0.13,4.75 -7.22,-2.53 -0.22,-1.94 4.57,0.37 0.19,0.95 0.22,1.94zm18.82 -148.74c-5.49,1.11 -6.86,1.36 -10.51,-0.99 5.18,-2.63 5.3,-0.75 10.04,-4.53l0.46 5.51zm-223.71 -36.48c-5.13,-3.21 -4.14,4.11 -4.23,-4.38 -0.08,-6.81 -1.39,-3.07 4.46,-3.97 1.67,4.33 0.1,1.45 2.28,4.23 7.22,9.22 7.29,0.2 10.73,-3.58l6.11 -3.4c-0.17,0.41 -0.56,0.89 -0.69,1.11l-6.75 17.02 -11.9 -7.03 -0.01 0zm85.11 -71.02c-5.25,2.85 -6.86,0.14 -6.92,0.13l-6.45 -3.73c0.04,-10.05 12.13,-13.48 4.42,-23.13l-2.64 -2.81c-8.64,-8.99 -6.4,-20.71 -4.25,-24.15 4.26,6.89 -1.01,12.97 4.55,20.14 0.23,0.3 0.64,0.65 0.9,0.94 0.26,0.28 0.68,0.62 0.95,0.89 5.5,5.6 7.58,5.21 5.69,15.26 -1.92,10.21 -0.58,-1.01 -2.29,6.78 -2.17,9.94 0.46,6.32 6.03,9.69zm61.89 241.87c2.42,1.42 12.43,4.19 16.16,5.38l37.29 11.08c4.2,1.51 2.09,1.02 3.95,1.67 6.17,2.16 1.23,1.7 8.57,1.17l-6.8 -8.47c10.78,-6.05 26.36,-2.16 36.71,-8.96 6.18,-4.06 6.16,-1.41 15.79,0.02 12.1,1.81 28.23,2.29 39.84,0.01 2.04,-3.61 1.77,-8.16 1.85,-12.16 4.48,1.63 6.49,8.01 12.75,9.04 10.11,1.67 6.17,-2.99 17.25,-4.86 0.42,-6.59 0.4,-11.84 7.06,-15.05l-0.27 17.52 15.73 5.43c-2.66,9.68 -7.25,7.24 -0.64,10.14 2.29,-3.83 -0.48,-3.47 13.6,-3.02 1.18,4.44 1.92,4.45 4.71,7.31l3.77 3.67c1.94,2.15 0.74,0.02 2.29,3.07 6,-1.93 2.47,-3.72 12.16,-2.07l1.1 -3.07c2.58,-5.12 3.73,-4.88 10.85,-5.79 -2.58,-6.47 -2.51,1.99 -4.03,-10.66 5.41,-1.34 6.44,-2.28 7.91,-7.36l6.28 0c1.32,5.19 3.99,12.39 9.61,15.51l0 2.76c-3.31,2.21 -2.3,-0.35 -2.89,7.35 -0.3,3.83 0.29,7.2 0.39,11 0.2,7.37 -0.3,13.39 -1.21,20.65 0.58,-0.18 1.21,-0.59 1.63,-0.77 11.47,-5.13 13.37,0.44 25.25,3.34 -2.38,4.8 -11.53,5.88 -15.98,9.29 2.12,12.26 0.5,1.33 3.51,8.41 -3.84,1.87 -1.66,-0.82 -3.22,3.48l-7.48 -1.98c-0.16,-0.25 -0.52,-0.82 -0.68,-1.08 -1.07,-1.82 -0.74,-0.38 -1.87,-4.08l-14.75 1.39c-1.97,3.02 -3.91,7.24 -4.65,10.79 -6.8,-0.46 -6.58,-2.63 -11.6,-4.71l-6.07 3.36c-3.77,1.07 -4.43,0.58 -8.42,0.41 -0.81,10.13 -7.69,11.35 -14.59,16.3 -0.3,0.21 -0.69,0.57 -1,0.79l-2.12 1.51c-12.74,8.34 -11.25,10.73 -23.17,0.93l-7.86 -3.72 6.46 8.36c-1.59,3.83 -8.9,4.8 -10.95,5.82 -0.51,0.25 -1.9,1.04 -2.39,1.32l-8.12 4.66c-8.18,3.88 -3.76,-1.38 -16.3,-1.78 -1.11,4.99 -2.47,8.34 -5.57,10.4 -2.85,1.89 -2.53,0.35 -6.08,2.91l-22.49 15.97 0.6 12.95c-8.83,-0.52 -6.1,-1.89 -15.24,-4.13l-3.92 6.32c-0.31,0.42 -1.26,1.67 -1.6,2.09 -6.77,8.29 -9.54,5.62 -16.97,3.32l-6.18 7.77c-0.31,0.44 -1.15,1.78 -1.48,2.2l-4.78 4.14c-16.71,9.43 -10.01,15.45 -20.01,19.29l0 3.78c5.4,2.57 3.38,4.15 4.2,13.52 7.1,1.19 12.9,1.8 14.05,9.36l13.09 1.04c0.46,0.14 0.88,0.4 1.31,0.54l7.35 1.77 2.07 -10.9c9.05,-2.15 4.66,-3.27 15.25,-4.04 24.8,-1.82 25.06,-1.87 40.98,10.94l30.59 27.37c0.29,0.23 0.71,0.57 1,0.8 4.41,3.71 2.86,4.52 8.83,5.9 3.33,0.79 5.61,0.35 8.98,0.2 1.71,2.49 1.94,3.99 3.61,6.58 0.2,0.31 0.46,0.8 0.68,1.09 5.09,7.04 6.88,4.32 11.93,-1.19 7.03,-7.7 25.01,-12.05 32.74,-0.15 0.22,0.34 0.46,0.82 0.65,1.17 4.06,6.66 7.75,8.6 13.9,13.43l2.64 2.53c0.19,0.29 0.46,0.74 0.61,1.06 3.96,8.49 -1.4,15.52 5.47,25.68l3.24 5.68c3.72,6.71 9.79,20.84 -1.07,30.59 -5.53,4.96 -10.78,4.26 -14.01,13.28l-1.27 3.88c-3.07,12.14 2.78,17.79 2.95,29.42 0.11,7.04 -0.36,10.34 -3.79,14.97 -1.41,1.9 -1.9,2.15 -2.49,2.85l-1.64 2.01c-1.44,1.77 -1.7,2.4 -3.31,3.99l-10.16 5.99c-4.23,1.77 -8.47,2.5 -11.38,4.48l22.85 23.71c7.95,5.21 14.38,4.19 23.68,6.41 5.54,12.36 -0.19,4.23 10.51,13.51 4.97,4.33 9.22,8.55 15.55,9.87 4.99,1.03 4.96,-0.09 9.38,-1.73 23.91,-8.87 24.14,6.94 38.08,0.16 1.42,-0.68 6.63,-3.61 7.09,-3.81 1.92,-0.82 4.85,-1.77 6.75,-2.37 6.39,-1.98 8.29,-1.62 15.78,-1.95 2.99,-12.31 14.48,-8.66 21.17,-20.57l1.86 -3.53c1.09,-2.09 0.12,0.73 1.64,-3.23 11.92,1.11 2.95,5.22 11.17,16.24 0.3,-0.42 0.52,-1.06 0.65,-1.39l2.21 -7.23c2.47,-9.03 5.26,-12.56 6.44,-22.21 1.2,-9.69 9.35,-15.46 11.44,-17.3l5.93 -8.3c0.49,-1.81 0.21,-2.33 0.89,-4.63 1.3,-4.4 0.5,-1.88 1.58,-3.88 0.19,-0.35 0.51,-0.77 0.72,-1.09l20.1 -17.85c0.3,-0.17 0.72,-0.5 1.03,-0.65 0.31,-0.16 0.76,-0.42 1.09,-0.55 4.45,-1.77 12.33,-1 17.83,-1.17 1.61,-7.5 5.43,-7.36 6.53,-16.22 4.86,-0.56 10.3,-1.55 15.08,0.03 3.99,1.31 5.86,9.42 14.16,2.31l2.63 -3.67c0.34,0.35 0.66,0.95 0.88,1.19 2.9,3.21 3.56,4.11 8.22,4.78 0.7,-6.99 1.3,-7.9 6.8,-10.94 4.64,-2.59 8.41,-2.39 14.8,-0.81 2.49,4.49 0.87,7.25 4.05,11.58l12.04 3.7c2.84,-8.98 5.25,-23.08 12.91,-30.25 4.65,-4.35 7.58,-3.7 14.72,-3.72l4.98 -11.16c3.94,-3.27 8.15,-0.84 13.15,-1.38 0.28,-0.03 0.82,-0.24 1.1,-0.27l4.97 0.68c0.25,0.14 0.67,0.53 0.93,0.69l4.29 2.92c3.7,1.53 1.76,1.01 6.27,1.11l3.32 -11.14c0.17,-0.46 0.4,-0.91 0.57,-1.33l2.28 -5.5c-0.31,-0.37 -0.73,-0.88 -0.96,-1.12 -3.66,-3.79 -9.67,-3.73 -8.07,-10.84 0.91,-4.02 3.98,-4.45 8.01,-8.12 0.4,-0.36 1.47,-1.44 1.86,-1.82l12.98 -8.73c14.05,-7.37 36.07,1.14 49.24,10.08l12.23 13.05c0.73,1.31 1.12,2.18 1.97,3.83 0.16,0.33 0.58,1.67 0.7,1.39 0.12,-0.28 0.44,0.96 0.72,1.41 9.19,-0.36 25.63,-7.47 28.33,-1.12 4.32,-1.41 5.22,-4.96 7.81,-8.79l3.42 -5.21c23.35,-0.81 11.48,4.14 23.77,6.81l16.09 3.56c1.67,-2.42 4.41,-7.66 5.29,-10.37 5.73,-0.29 18.92,0.57 23.13,-0.73l14.27 -8.5c0.74,-8.36 -2.08,-9.01 -6.18,-14.81 -5.67,-8.01 -8.57,-18.39 -6.34,-29.37l5.1 -12.53c2.09,-2.22 6.78,-2.1 11.97,-4.67 1.18,-15.17 -5.71,-3.31 -3.41,-22.96 8.42,-0.31 12.83,4.29 27.57,3.42l-1.06 -18.32c-3.61,0.01 -3.12,-0.1 -6.39,0.73l-3.82 1.49c-5.57,1.72 -3.78,1.33 -10.34,1.26 -1.05,-3.03 -6.02,-6.44 -6.86,-11.75l-2.42 0c-0.85,4.61 -0.14,2.28 -2.44,4.7 -5.81,6.17 -13.72,1.68 -18.82,0.4 -5.68,-1.44 -9.93,-1.32 -13.81,-3.84 -8.51,-5.56 -11.24,1.51 -15.23,2.58 -8.76,2.33 -8.93,0.61 -9.36,-4.7l-5.07 0c-0.57,6.84 0.31,3.83 -3.09,6.92l-12.54 5.46 -3.43 18.32c-9.6,0.87 -8.45,0.95 -16.09,-1.94 -5.61,-2.11 -14.9,-4.58 -18.91,-8.27 -7.95,-7.31 0.85,-9.5 1.13,-20.33 -9.11,0.49 -7.12,1.28 -10.14,6.53l-18.88 29.88c-7.9,7.78 -21.22,6.3 -30.37,11.27l-3.29 2.21c-5.67,3.95 -2.16,3.4 -11.49,3.57 -1.25,-8.42 -2.03,-3.43 -18.71,-13.38l-21.52 -20.03c-7.47,-8.49 -12.9,-19.64 -20.03,-28.76l-11.87 -16.98c-0.23,-0.28 -0.6,-0.67 -0.84,-0.94 -5.49,-6.49 -8.34,-14.7 -12.86,-21.49l-16.04 -23.79c-0.22,-0.33 -0.54,-0.73 -0.78,-1.06l-5.32 -7.19c-2.21,-4.41 -3.99,-13.12 -5.63,-17.82l-11.53 -24.59c-2.36,-4.68 -2.33,-3.36 -2.96,-9.37 -1.37,-12.84 -2.37,-9.24 -4.42,-19.81 -1.57,-8.18 0.2,-11.63 -2.09,-20.79 -5.03,-20.08 2.68,-20.64 5.84,-22.79 3.59,-2.45 0.29,0.92 4.17,-3.01 2.78,-2.81 1.48,-5.57 6.79,-7.66 2.06,5.82 -1.08,2.14 4.11,3.94 3.56,1.25 10.41,-1.04 12.49,-1.89l14.26 -7.25c2.61,-1.95 5.06,-4.68 7.27,-7.23 0.35,-0.41 1.36,-1.56 1.69,-1.98l11.94 -20.47c5.34,-5.95 12.26,-8.34 5.82,-15.29 -6.31,-6.8 -8.87,-8.47 -8.99,-18.39 4.65,1.96 4.43,4.16 7.34,7.25 0.25,0.27 0.63,0.63 0.9,0.9 3.69,3.61 6.95,6.63 11.76,7.72l-0.62 23.93 9.37 5.13c-0.27,0.15 -0.87,0.5 -1.14,0.64 -7.49,4.21 1.03,-1.06 -2.85,1.44l-2.16 13.38c-0.14,0.41 -0.36,0.87 -0.53,1.24l-3.21 5.59c-1.05,1.55 0.1,0.08 -1.47,2.06l-5.57 5.62c-4.44,4.37 -5.16,10.41 -11.49,13.58 -5.48,2.74 -13.79,0.83 -19.1,6.17l-9.41 10.52c-0.43,0.31 -1.7,1.22 -2.12,1.56 -3.16,2.46 -6.18,4.1 -6.33,9.32l9.85 0.76c1.55,-2.2 1.95,-4.37 5.97,-6.1 3.98,-1.72 7.37,-1.16 12.08,-1.6 2.65,-4.37 1.53,-3.68 5.78,-5.53 10.72,-4.65 3.12,0.05 7.08,-3.99 4.93,-2.28 1.11,0.71 3.08,-4.27l6.91 -12.87c3.63,-5.3 4.93,-10.95 9.31,-15.95l8.35 -11.47c1.9,-3.22 0.3,-0.15 1.79,-3.56 0.56,-1.27 0.87,-2.47 1.48,-3.99 1.69,-4.14 0.3,-1.02 1.67,-3.8l22.57 -24.39c10.5,-13.77 -3.07,-3.34 23.45,-16.27l22.93 -22.14c3.14,-4.55 0.03,-2.2 4.14,-6.65 4.76,-5.14 0.08,-0.41 6.42,-4.41 5.63,-3.56 7.33,-8.88 12.91,-12.31 9.23,-5.7 22.31,-4.69 33.51,-6.57l39.82 -2.87c3.13,5.09 0.37,5.11 3.61,10.25 10.37,0.84 5.91,1.18 9.41,-3l4.96 -7.66c6.22,-7.86 11.54,-13.02 20.51,-17.41 4.58,-2.25 4.72,-2.41 8.77,-3.97l23.04 -9.16c0.53,-1.32 0.73,-0.19 1.04,-3.96l27.99 0.54c1.4,11.98 7.42,1.49 8.15,15.84 0.46,8.83 -4.54,14.2 0.84,21.35l5.92 -20.73c1.61,-6.02 0.17,-1.33 1.99,-5.32 7.73,-17.01 6.97,-5.11 4.87,-22.03 4.86,0.02 7.92,-0.53 11.17,-3.31l24.88 -14.74c7.01,-2.42 16.77,-6.66 22.71,-11.6l4.27 -4.81c9.7,-9.7 18.96,8.12 19.03,16.94l4.74 0c1.55,-6.11 17.25,-30.83 21.13,-35.31l7.42 -6.9c6.88,-5.89 10.93,-10.85 15.26,-19.26l1.89 -3.34c8.66,-0.34 4.46,0.73 7.44,1.39 9.81,2.19 26.97,0.27 36.32,-2.61 4.15,-1.28 1.24,-0.3 3.67,-1.87l1.98 -1.63c0.3,-0.22 0.68,-0.59 0.97,-0.83l13.69 -5.66c1.44,2.69 0.19,1.56 2.89,3.81 10.08,8.39 24.21,-4.32 35.78,-4.69 1.36,4.39 -0.39,1.17 2.43,4.34 2.73,3.07 0.24,1.28 4.04,2.7 -1.16,12.91 -3.81,1.49 -3.78,17 11.41,-0.65 4.14,-1.36 15.05,-14.1 0.35,-0.4 1.29,-1.61 1.63,-2.03 2.81,-3.46 4.42,-5.96 8.64,-7.3 -0.59,-8.29 -8.52,-27.14 -9.97,-40.1 -3.23,-28.71 10.49,-23.49 9.4,-38.35l-9.88 -3.03c0.68,-11.38 -1.02,-1.33 2.67,-8.07 7.91,-14.43 4.47,-7.98 -0.92,-15.78l-2.06 -5.02c-0.2,-4.94 4.35,-11.12 6.11,-15.58 8.4,-21.23 26.8,-9.65 45.5,-19.49 8.35,-4.4 3.7,-6.72 13.54,-8.65 4.04,-0.8 5.28,0.22 9.3,-1.24 6.03,-2.18 7.2,-6.6 8.68,-12.74l9.69 -19.23c0.22,-0.27 0.56,-0.68 0.79,-0.97l22.54 -38.77c1.55,-1.71 2.3,-2.34 2.74,-2.78 0.38,-0.4 2.18,-2.3 2.74,-2.8 0.76,-0.65 2.58,-2.04 3.07,-2.28 2.92,-1.47 4.23,-1.89 8.72,-1.5 2.88,0.25 2.05,0.2 4.35,0.97 5.23,1.73 9.06,5.2 12.67,9.1l5.62 8.06c10.96,0.1 12.16,-0.61 17.79,-7.26 0.24,-0.29 0.56,-0.7 0.79,-0.97 0.24,-0.28 0.59,-0.68 0.84,-0.95 8.31,-8.95 23.52,-13.37 34.2,-5.71 9.38,6.74 7.66,1.22 12.9,0.5 8.17,-1.12 8.08,3.93 11.8,8.88l7.22 7.31c1.28,0.94 1.75,1.21 3.22,2.1 0.25,0.15 2.01,1.06 3.54,1.99 3.87,2.42 4.75,4.6 8.65,5.46 3.95,0.88 4.69,0.19 8.44,-0.35l4.5 -6.76c0.25,-0.3 0.62,-0.69 0.89,-0.99l7.85 -7.02c0.81,-2.74 17.29,0.03 20.54,-1.01 7.08,-2.25 5.76,-4.15 3.06,-15.78l-5.66 -14.76c-5.59,-8.29 -8.69,-17.64 -8.44,-28.93l20.13 -3.44c2.61,-12.28 -0.55,-25.46 0.06,-38.17 1.22,-0.25 10.44,-2.96 12.11,-3.74 7.11,-3.34 7.58,-10.17 3.2,-15.88l-16.09 -16.17c-4.16,-5.29 -5.76,-10.68 -14.89,-11.64 -0.57,-18.1 2.72,-35.45 -7.99,-48.71 -6.99,-8.67 -18.73,-8 -27.37,-13.21 -0.01,-5.35 -0.43,-2.2 1.13,-5.48 0.47,-1.01 4.77,-4.7 4.65,-8.61 -0.25,-7.78 -6.58,-5.95 -6.12,-25.56l13.64 -0.49c1.89,-11.46 0.75,-18.51 5.63,-26.26 12.78,-0.23 4.59,2.06 14.63,3.21 4.63,0.54 3.8,0.36 7.84,-0.82l19.12 -6.21c16.92,-6.85 8.13,-32.04 -1.87,-31.8 -8.27,0.21 -5.5,13.35 -10.26,17.84 -6.29,5.94 -18.86,1.12 -24.69,-3.54l-14.19 -12.89c-3.47,-2.79 -1.01,-0.84 -2.87,-2.57 -11.71,-10.9 -23.9,-8.84 -23.43,-22.79 6.18,0.28 10.84,3.19 14.21,1.4l8.03 -6.26c7.11,-4.12 27.31,-4.04 34.64,-0.3 0.32,0.17 0.74,0.5 1.06,0.67 0.31,0.19 0.72,0.52 1.02,0.71 0.32,0.18 0.73,0.52 1.05,0.71l11.65 2.32c1.23,-12.8 -6.97,-23.16 -0.89,-31.32 4.68,-6.3 7.62,-3.06 10.66,-10.87 1,-2.53 0.71,-3.13 1.47,-5.84l5.32 -12.85c4.83,-7.79 26.31,-12.05 12.49,-21.79 -7.53,-5.3 -20.22,-8.35 -22.41,-10.05 -4.48,-3.51 -5.22,-9.2 -8.02,-15.4 -7.81,-17.29 -0.34,-15.14 1.36,-16.69 2.47,-3.97 -1.53,-1.52 5.58,-2.58 2.44,-0.35 6.31,-0.01 9.1,-0.27 4.78,-0.46 4.13,0.11 7.1,-1.98 0.14,-0.1 1.77,-1.98 2.45,-2.91 0.87,-1.17 2.15,-4.37 -2.88,-9.2l-10.5 -11.15c-3.32,-4.48 -1.24,0.33 -3.57,-5.35 -12.61,-1.22 -20.35,2.72 -30.19,9.2l-11.72 5.98c-11.59,2.8 -34.42,6.99 -36.52,-8.42 -0.91,-6.74 -0.33,-11.19 -5.4,-16.87 -3.24,-3.66 -7.7,-6.81 -9.43,-11.96 -8.32,-0.3 -13.94,1.25 -22.14,0.68 -8.1,-0.56 -12.14,-1.49 -20.69,-1.11 -1.92,8.01 -0.46,-1.71 -2.72,8.53l-10.7 -9.97c-0.25,-0.28 -0.6,-0.68 -0.85,-0.97l-10.32 -7.62c-0.39,-0.18 -0.9,-0.35 -1.28,-0.53l-11.03 -8.88c-5.01,-5.51 -2.9,-8.07 -4.21,-17.46 -7.74,-1.02 -8.82,-1.96 -14.48,2.71l-8.14 6.22c-6.53,2.69 -5.03,0.19 -11.92,4.45 -4.25,2.64 -3.28,3.58 -9.59,3.67 -2.8,-37.46 -10.89,-0.02 -42.97,-23.76 -0.21,-0.16 -0.93,-0.19 -1.08,-0.72 -0.16,-0.56 -0.71,-0.54 -1.11,-0.71 0.3,-12.42 1.06,-0.91 2.8,-10.66 1.02,-5.76 0.48,-5.89 -0.73,-11.3 -18.85,-1.12 -15.07,16.97 -25.62,7.47 -0.74,-0.66 -3.52,-3.17 -3.69,-3.24 -4.17,-2.3 -10.44,-2.19 -15.55,-2.2l-2.33 6.47c-1.4,3.83 -0.52,3.02 -2.34,6.02 -7.22,-0.01 -8.45,-4.38 -8.99,-11.84l-3.62 -18.35 -20.19 0.07c-0.74,8.19 1.77,16.79 -0.73,24.6l-14.79 15.68c-12.25,6.54 -25.18,0.1 -32,-3.17 -7.26,-3.48 -14.6,-5.51 -15.89,-14.75 -10.87,-1.34 -14.29,1.21 -24.08,-3.07 -15.71,-6.89 -15.36,-2.17 -19.71,-10.89 -4.06,-8.16 3.07,7.82 -1.01,-2.64 -2.42,-6.19 -7.39,-10.46 -11.38,-15.74 -3.75,-4.96 -5.39,-17.61 0.37,-20.48l-0.02 -7.16c-23.89,-7.69 -8.85,-5.55 -19.03,-14.99 -3.9,-3.61 -8.39,-1.66 -13.54,-4.51 -2.67,-1.49 0.78,0.89 -2.17,-1.62 -6.94,-5.89 -6.69,-16.6 0.4,-20.18l-6.06 -11.01c-8.36,0.34 -13.13,2.95 -19.74,6.16 -7.31,3.53 -10.24,5.51 -15.11,10.11 -10.4,9.81 -7.42,2.19 -19.25,6.24 -5.63,1.93 -10.4,6.55 -17.18,7.47 -36.58,5.01 -17.18,0.4 -34.71,12.57 -0.34,0.24 -0.77,0.54 -1.13,0.74 -14.5,8.6 -15.63,2.96 -24.92,20.01 -2.42,4.44 0.3,0.67 -2.25,3.63l-15.67 -0.87c-0.88,-12.44 6.02,-9.54 6.13,-20.62 -7.43,-0.32 -6.08,0.87 -11.56,3.88 -5.26,2.91 -2.56,3.07 -8.72,0.47 -10.74,-4.55 -9.1,-8.94 -21.69,-9.24l-6.03 15.06 -9.93 0.14c-5.41,-17.14 -13.31,-11.55 -18.67,-20.21 -0.27,-0.46 -0.93,-1.83 -1.11,-2.36 -1.18,-3.4 -0.59,-2.89 -1.03,-6.28 -0.52,-4.05 0.44,-3.68 -1.47,-7.73 -2.38,-5.06 -9.91,-7.95 -14.91,-8.83 -1.93,-0.35 -7.23,-0.69 -9.12,-0.44l-5.89 1.93c-10.79,4.38 -14.86,-1.99 -26.54,-1.02l-1.93 3.51c-4.44,7.25 -6.95,5.86 -19.44,7.31l-0.58 15.84c-11.98,1.82 -17.24,-3.36 -28.17,-3.75l-3.72 -15.89c-0.17,-0.33 -0.47,-0.74 -0.63,-1.11 -2,-4.58 -0.89,-11.06 -5.03,-12.75 -1.94,-5.26 0.27,-2.58 -5.43,-4.14 -0.09,-0.03 -6.43,-0.35 -7.26,-0.43 -7.62,-10.45 -13.44,-32.11 -12.9,-45.08 5.05,-1.12 13.24,-1.74 17.8,-5.01l-1.39 -5.46c-0.25,-0.46 -2.02,-2.4 -2.54,-2.85l-6.6 -3.52c0.46,-12.24 2.85,-7.17 3.6,-17.59l-4.82 -3.31c-7.18,-5.94 -4.5,-10.79 -7.9,-17.63 -4.09,-8.27 -3.81,0.07 -4.87,-11.1 -0.3,-3.2 0.4,-5.28 -0.76,-8.51 -1.74,-4.86 1.29,-1.95 -3.4,-3.61 -2.68,-7.5 -7.89,-1.07 -13.67,-8.08 -4.7,-5.72 3.33,-11.14 7.58,-13.34 7.54,-3.91 6.24,1.01 6.18,-11.77l-29.65 -0.53c-0.73,-10.4 -3.99,-8.03 -8.63,-14.96 -3.73,-5.57 -1.34,-14.75 -2.8,-22.13 -2.64,-13.28 -2.74,1.13 -4.42,-12.03 -16.47,0.75 0.75,3.3 -12.11,4.81 -7.54,0.88 -6.28,-2.32 -6.35,-2.37 -14.8,-10.54 8.76,1.27 -4.41,-3.68 -10.96,5.24 8.55,-6.05 -3.23,2.72l-16.51 8.71c-0.35,0.17 -0.79,0.43 -1.15,0.58l-27.47 4.22c-1.39,-2.5 -0.7,-0.9 -2.32,-2.9l-4.15 -6.41c-1.02,-3.1 -1.11,-8.04 -2.28,-12.39 -7.41,0.05 -8.25,5.58 -8.29,5.5 -0.11,-0.3 -0.42,0.84 -0.55,1.29 -9.46,0.05 -7.88,1.22 -14.72,-3.27 -11.14,-7.32 -25.94,-6.38 -39.36,-4.23l-1.33 11.78c-3.03,0.1 -1.9,0.35 -4.52,-0.52l-2.31 -1.12c-4.29,-2.74 -5.75,-8.07 -10.52,-10.36l9.76 -11.84c0.71,-0.53 2.96,-2.16 3.16,-2.33l1.92 -1.66c14.58,-13.73 3.18,-16.69 -9.71,-17.88l-2.11 -3.88c-0.15,-0.3 -0.42,-0.75 -0.57,-1.06 -1.8,-3.78 -0.14,2.3 -1.93,-5.13 -1.41,-5.87 -1.82,-9.5 0.15,-15.05 3.53,-9.91 9.64,-15.68 3.32,-25.04l-9.87 -17.21c-6.28,-8.51 -12.09,-5.83 -13.18,-18.54 10.99,0.53 9.04,1.84 18.37,-2.13 0.74,-0.31 -1.49,-0.43 4.12,-1.6l12.53 0.3 9.81 -9.76c11.46,-7.23 14.75,-0.76 15.95,-13.5l-2.87 -14.03 -14.4 -16.13c-0.41,-0.32 -1.63,-1.23 -2.09,-1.54 -0.33,-0.2 -0.77,-0.5 -1.12,-0.68 -6.15,-3.34 -10.4,-2.13 -18.2,-2.22l-4.07 -8.04c-0.27,-0.5 -2.53,-4.4 -2.64,-4.55 -3.9,-5.28 -5.51,-4.54 -12.09,-6.32 -0.46,-0.12 -0.94,-0.26 -1.38,-0.4 -0.42,-0.11 -0.93,-0.27 -1.33,-0.38l-5 -1.4c2.47,-9.11 1.99,0.38 4.48,-8.17 2.8,-9.61 -0.74,-12.85 -4.08,-18.04 -0.29,-0.46 -1.11,-1.79 -1.38,-2.27 -7.67,-14.04 0.95,-19.91 1.02,-33.84l-4.46 -2.55c-3.85,-3.41 -5.51,-9.37 -9.18,-12.47l-5.67 -3.38c-2.78,-1.67 -0.59,0.54 -3.22,-2.09 -4.16,-4.19 -3.27,-10.78 -9.05,-14.45 -2.33,-1.49 -1.07,-0.47 -3.63,-2.25 -3.78,-2.63 -2.34,2.82 -1.84,-10.57 -5.82,-0.75 -7.1,-0.24 -11.59,-2.64 -12.63,-6.8 -8.81,-6.23 -19.07,1.63 -9.79,7.5 -19.75,0.78 -30.11,0.12 0.91,8.92 4.17,10.55 3.07,19.75 -6.62,-0.16 -6.99,-0.46 -10.29,-4.81 -4.55,-6 -1.66,-11.64 -5.4,-18.01 -15.85,-1.17 -2.63,7.7 -17.7,1.51l-12.99 -7.69 -2.8 3.17c-2.21,3.17 -0.19,-1.87 -1.93,3.92l-13.33 -1.95c-3.28,4.45 -4.86,7.37 -5.38,13.79 -16.09,-0.74 -2.87,-1.18 -10.12,-4.63 -1.3,7.23 -11.18,8.36 -15.31,13.23 -6.22,7.34 -13.36,3.62 -15.72,13.73 -7.33,-0.77 -10.96,-4.51 -18.42,-4.44 -10.73,0.08 -8.85,0.29 -16.44,-3.57 -3.92,-1.99 -3.44,-1.63 -7.52,-3.07 -13.78,-4.86 -6.28,-8.2 -23.21,-7.96l0 -3.32c-4.94,-2.41 0.82,1.46 -2.65,-2.72l-5.46 -5.97c-8.35,-3.47 -6.34,1.27 -6.51,8.18l-3.22 0c-0.98,-7.29 -6.42,-8.93 -12.65,-8.42 -2.96,4.96 -4.48,8.68 -4.86,15.63l7.28 3.76c-2.03,5.08 -3.13,3.54 -8.02,5.65 1.77,12.59 4.34,-1.19 2.95,8.96 -0.75,5.48 -0.4,1.33 -6.71,5.52l1.22 14.62 -9.04 1.59c-1.74,11.79 1.43,5.77 2.58,16.94l-15.07 2.36c-4.8,3.27 0.57,8.4 -6.28,11.11 -2.5,-5.9 -5.86,-6.79 -12.13,-7.75l1.01 15.57c-15.09,-1.24 -12.14,-14.08 -27.8,-14.88 -1.72,5.65 -5.24,9.95 -9.95,11.83 -0.88,-23.74 5.54,-17.42 0.73,-22.78 -3.45,-3.83 5.86,-4.1 -17.09,-3.87 -6.85,0.08 -3.46,-0.95 -9.77,1.3 -15.71,5.6 -12.35,0.73 -22.95,-0.24 -9.25,-0.84 -7.19,2.9 -15.57,2.68l-4.07 -6.49c-12.12,-0.01 -7.36,4.48 -17.09,2.31 -16.71,-3.71 -16.35,5.91 -25.27,16.33 -3.64,4.24 -4.05,12.92 -14.03,-2.15l-3.57 -5.66c-2.34,-4.35 -0.7,0.92 -1.92,-4.66 -3.08,0.79 -12.44,6.47 -14.34,0.73l-2.69 -0.16c-9.72,4.68 -5.52,0.01 -18.61,0.08l0.73 19.92 -8.23 3.61 -0.72 9.68c-11.76,1.22 0.7,-1.77 -12.91,-2.3l-0.52 17.74c-6.6,-0.35 -7.22,-1.97 -9.04,-1.82 -8.89,0.71 6.46,-3.41 -1.77,0.46 -6.41,3.03 -2.82,7.2 -8.21,13.07 -3.99,4.37 -2.84,1.49 -7.58,4.69 -0.35,2.08 -0.86,6.45 -1.44,8.18l-13.34 13.02c0.03,20.13 3.16,13.52 -6.79,20.32 1.55,9.9 0.62,-0.41 3.02,9.13 -1.73,0.12 -5.06,0.17 -6.67,0.65l-6.69 5.35c-1.88,2.25 -0.52,-0.74 -1.82,2.38 6.21,1.13 2.84,-2.54 4.21,4.3 1.29,6.49 -7.61,8.39 -9.77,15.59l17.67 9.53 -6.84 7.71 9.38 10.33c-1.22,12.35 -1.55,-4.64 -4.1,10.84 0.52,0.27 1.24,0.39 1.66,0.57 0.41,0.19 1.12,0.36 1.6,0.61 5.73,2.85 4.89,-1.71 5.24,6.11 0.53,11.53 -2.96,0.62 -2.11,8.25 0.71,6.41 5.38,7.62 5.47,20.92 -6.49,1.79 -3.94,2.61 -14.49,3.33l-3.95 13.58c-7.08,-0.66 -2.46,0.63 -6.06,-5.24l-2.42 -4.4c-13.51,-0.01 -14.7,-0.01 -22.12,-7.13l-10.02 -13.48c5.13,-2.58 8.1,-8.93 12.8,-12.29 -6.22,-5.17 -4.93,-5.06 -14.97,-4.25l-18.55 -18.65c-0.24,-0.24 -0.62,-0.72 -0.82,-0.95 -2.24,-2.59 -0.44,0.71 -1.95,-3.28 -14.49,0 -3.45,2.31 -11.5,2.63 -10.4,0.42 3.44,-1.57 -8.86,-2.04 -12.85,-0.48 0.14,2.7 -10.24,1.86 -8.14,-0.68 3.89,-1.05 -9.46,-3.11 -1.11,1.72 -0.46,0.42 -2.16,3.87l-3.16 8.3c-4.9,-0.82 -2.92,-0.97 -5.87,-2.21 -14.48,-6.18 -6.99,3.92 -20.73,1.19 -8.9,-1.76 1.61,-0.52 -7.89,-3.04l-0.46 -16.14 -21.61 -0.85 -6.17 19.78c-2.93,-6.07 -7.1,-7.23 -13.43,-7.36l0.52 18.77c-12.23,-3.55 9.97,3.5 -3.98,-2.04 -9.63,-3.85 -7.25,5.9 -9.83,1.12 -0.21,-0.4 -0.79,0.62 -1.26,0.79 -1.44,-3.4 0.48,-0.62 -1.83,-3.12 -0.21,-0.23 -0.57,-0.67 -0.81,-0.87 -3.16,-2.69 0.97,-1.99 -6.59,-2.35l-3.07 9.36c-8.74,1.03 -6.67,2.35 -8.76,-2.85 -5.46,-2.1 -4,-8.02 -4.21,-14.3 -11.28,-1.39 1.33,-0.21 -8.82,-3.53l3 -13.34c0.12,-0.55 0.16,-1.02 0.28,-1.57 2.2,-10.41 8.97,-11.16 0.02,-17.12l-9.59 -6.63c0.17,-8.17 5.19,-9.53 1.24,-16.06 -4.07,-6.72 -5.13,-0.29 -13.35,0.35 -1.63,-4.37 -2.31,-6.22 -7.06,-6.65 -6.43,-0.6 -8.62,6.22 -10.34,10.55l-1.03 2.74c-0.17,0.4 -0.38,0.87 -0.57,1.23l-4.97 7.5c-0.13,-0.3 -0.51,0.84 -0.82,1.22 -5.5,-3.99 -11.11,-3.27 -18.06,-4.38 -0.27,0.41 -0.46,1.06 -0.62,1.36l-5.27 6.07c-2.49,1.42 -5.99,1.6 -7.93,4.21l-1.82 5.2c-0.51,1.72 -1.62,6.13 -5.06,7.97 -2.98,1.61 -0.77,0.64 -4.2,1.02l0 3.44c5.45,0.68 3.63,1.15 5.07,1.73 3.72,1.53 -3.47,-0.53 3.72,1.79 0.35,9.29 -2.1,18.45 -11.44,14.86 -0.34,-0.12 -0.85,-0.32 -1.18,-0.48l-7.31 -7.11c-0.32,-0.43 -1.17,-1.63 -1.44,-2.09l-1.15 -2.36c-3.35,-7.04 -7.51,-13.11 1.8,-17.81l-4.7 -6.27c-2.17,-3.8 -1.11,-6.57 -0.91,-11.93l-12.09 1.69c-0.42,-9.54 -3.49,-10.71 -8.39,-2.58 -1.39,2.32 -1.17,1.66 -2.45,4.79l-4.62 0c-2.03,-4.64 -3.94,-8.56 -7.61,-10.52 -7.14,2.49 -5.73,7.34 -7.43,14.18 -1.16,4.61 0.06,1.62 -1.62,4.41l-8.45 -0.87c-0.32,-12.22 3.29,-2.64 1.94,-15.68 -0.43,-0.2 -3.8,-1.63 -4.21,-1.93 -11.27,-8.18 -1.28,-17.97 -0.9,-18.62 2.42,-4.09 2.76,3.37 1.81,-7.53 -15.26,4.97 -12.06,1.38 -25.72,3.39l-4.01 6.83c-0.77,1.38 -2.64,5.35 -2.93,6.14 -1.56,4.27 -3.78,11 -4.47,13.56 -11.89,-0.61 -15.31,-3.64 -28.86,-4.58l-2.85 -4.92c-1.71,-3.5 -0.16,0.97 -1.97,-5.3 -1.12,-3.88 -0.41,-3.29 -2.11,-7.26 -2.42,-5.69 3.38,6.56 -1.24,-2.34l-1.34 -2.12c-7.19,-0.11 -5.99,-0.97 -11.21,2.05 -25.73,14.97 9.61,24.55 -7.42,45 -0.25,0.3 -0.57,0.73 -0.84,1.01l-5.89 3.33c-2.3,0.46 -3.73,0.24 -5.84,-0.37 -4.66,-1.38 -6.67,-3.63 -7.04,-11.72 -0.58,-12.74 5.68,-16.55 3.68,-30.87 -3,-1.94 -11.89,-6.36 -15.19,-7.3 -3.59,-1.03 -6.21,-0.95 -10.36,-2.3 -7.02,-2.25 1.98,-0.96 -7.97,-3.23l-3.92 7.21c-1.01,2.15 -1.67,4.33 -3.3,6.81 -4.15,0.07 -6.25,-0.17 -8.95,-3.14 -2.42,-2.66 -1.54,-3.3 -3.68,-6.46 -9.81,0.34 -10.83,8.37 -22.29,5.41 -1.56,-13.83 9.19,-10.17 9.56,-24.05 -6.95,-0.11 -5.39,-0.94 -10.58,1.88 -4.62,2.53 -2.36,3.24 -7.73,4.9l0.5 -34.74c-9.04,-0.27 -16.78,-0.57 -23.92,2.45 -0.21,0.09 -3.75,1.99 -4.68,2.49l-2.37 1.26c-0.4,0.19 -0.85,0.41 -1.27,0.58 -6.84,2.51 -11.96,0.43 -17,-3.87 -0.07,-0.05 -3.14,-3.17 -3.58,-3.63 -8.37,-8.9 -10.85,-4.56 -23.3,-5.57l-5.05 -7.57c-0.46,-0.51 -3.27,-3.68 -3.34,-3.77 -1.77,-2.35 -0.55,0.44 -1.89,-3.16 -3.78,-0.13 -7.54,-0.46 -11.33,-0.01 -7.81,0.91 -4.19,1.18 -8.25,2.2 -16.1,4.06 -13.58,-0.73 -14.97,-2.09 -4.17,-4.06 -2.02,2.36 -4.22,-10.68 -1.82,-10.84 -0.3,-0.19 -3.12,-9.11 -23.48,-0.98 -37.91,15.53 -53.73,-13.58 -3.61,-6.65 -1.03,2.2 -3.06,-5.24 -14.13,0.07 -30.2,5.66 -38.65,-6.96 -1.18,-1.77 -1.28,-2.03 -2.72,-4.4 -2.88,-4.75 -0.19,1.12 -2.43,-4.1 -6.93,-0.03 -11.88,-0.2 -17.79,4.08l-4 3.29c-10.19,7.43 -27.85,5.3 -38.35,1.56l-41.92 -23.49c-5.62,-2.02 -12.37,-0.1 -18.12,2.94l-21.35 9.37c-8.24,2.39 -19.73,-0.41 -25.34,-1.05 -8.1,-0.9 -11.93,2.03 -21.23,2.79 -12.37,1.01 -13.96,1.12 -22.85,-2.35 -11.82,-4.64 -31.81,-9.2 -44.42,-3.08 -0.35,0.17 -0.8,0.43 -1.12,0.63 -0.32,0.2 -0.74,0.51 -1.04,0.73 -4.22,3.13 -5.68,8.88 -7.77,12.14 -4.47,7.04 -9.97,3.72 -15.4,9.85 -4.83,5.44 -2.5,11.08 -3.18,20.44 -6.23,1.89 -1.14,0.37 -4.86,2.25l-30.83 17.82c-0.33,0.21 -0.77,0.52 -1.09,0.73 -0.31,0.24 -0.74,0.54 -1.05,0.77l-14.69 9.54c-9.21,0.46 -9.25,-1.89 -10.56,-7.98 -3.94,-18.28 1.93,-6.87 -3.66,-12.52 -2.31,-5.09 3.08,-1.91 -5.52,-3.56 -8.27,-1.59 -13.45,2.97 -19.97,3.47 -9.97,0.76 -6.48,-1.71 -13.07,-3.32 -9.35,-2.3 -8.13,-0.03 -10.96,3.18 -2.18,1.42 -2.68,-3.7 -2.37,5.36 0.22,6.26 3.73,6.44 7.18,10.82 6.62,8.39 2.44,8.83 0.31,11.82 -6.44,9.08 -6,6.87 0.31,16.24 2.4,3.57 2.19,-3.13 2.24,6.57 0.05,10.22 -5.08,7.8 1.25,15.33 4.73,5.63 0.08,7.01 -3.01,9.71l-2.04 1.66c-4.71,4.01 -8.84,8.24 -4.32,14.31 2.75,3.69 7.25,5.71 11.6,7.57 -0.43,10.21 -4.34,8.22 -3.75,22.43 5.29,1.62 7.36,6.33 11.38,10.19 6.79,6.45 19.05,13.63 3.69,19.86l0.02 7.12c6.71,2.04 1.44,0.47 5,2.26 24.71,12.42 0,7.29 2.8,26.75 3.98,2.64 4.93,1.28 8.08,3.72 5.41,4.22 1.59,12.57 16.81,24.7 3.91,3.1 9.51,4.98 13.05,8.88 8.17,8.97 0.52,9.59 -0.08,10.21 -1.75,1.82 0.37,8.11 -13.97,-0.03 -9.7,-5.51 -7.42,-3.08 -15.89,-1.02 -0.59,9.62 -1.57,8.29 3.24,13.86l10.39 10.95c2.36,9.15 -3.24,-1.44 -1.77,16.44 2.42,1.06 2.53,1.37 3.5,2.04 10.33,7.12 7.12,10.42 1.78,13.64l-4.75 2.15c-0.16,-0.32 -0.72,0.35 -1.1,0.48l3.84 9.17c4.99,9.64 4.53,6.75 3.59,18.23l-13.97 0.99 -5.12 20.16c-5.17,0.78 -9.68,5.32 -11.21,10.37 -0.92,3.01 -0.94,6.07 -1.67,9.4 -1.57,7.14 -1.33,-2.04 -2.07,8.32 -5.08,-0.44 -7.71,-2.55 -11.67,-5.57 -1.77,-1.36 -3.83,-2.8 -5.2,-3.78 -7.42,-5.19 -19.55,-6.6 -26.24,-0.95l-20.74 33.43c-0.26,0.27 -0.63,0.67 -0.91,0.94l-2.97 2.41c-9.34,5.2 -22.6,-4.2 -33.53,-1.09 -5.41,1.54 -0.94,-0.04 -3.68,1.7l-10.57 14.65c-1.21,2.96 -1.41,4.1 -2.51,6.59 -0.18,0.38 -0.38,0.87 -0.57,1.24 -0.19,0.38 -0.41,0.85 -0.61,1.22 -1.2,2.23 -0.1,0.3 -1.36,2.25 -0.2,0.31 -0.52,0.74 -0.74,1.06 -0.22,0.31 -0.56,0.72 -0.78,1.02 -0.22,0.3 -0.57,0.69 -0.79,1l-10.39 16.67 -27.53 21.32c-0.3,0.24 -0.69,0.6 -0.98,0.83l-10.69 9.02c-6.7,7.62 -8.47,20.48 -15.63,29.42 -9.92,12.37 -28.24,12.46 -40.34,23.03l-1.91 1.71c-0.38,0.35 -1.46,1.39 -1.84,1.75 -0.25,0.24 -0.62,0.64 -0.88,0.9l-4.36 4.6c-0.34,0.41 -1.3,1.64 -1.6,2.08 -10.27,14.53 -5.76,24.6 4.36,35.79l2.96 3.8c1.2,2.52 0.94,0.73 0.84,4.66 -7.94,0.68 -15.72,0.77 -20.74,6.27 -12.67,13.82 -14.84,36.11 -10.19,53.63 0.17,0.62 1.38,5.03 1.64,5.69 1.87,4.82 1.34,2.76 1.85,3.67 0.27,0.47 1.13,1.66 1.39,2.13l13.74 22.28c0.24,0.28 0.61,0.67 0.85,0.97 0.79,0.91 2.51,2.88 3.32,3.95l1.48 2.13c0.23,0.31 0.52,0.73 0.75,1.06l12.8 14.32c4.03,5.21 7.58,9.81 7.87,16.28 -2.46,1.34 -0.94,0.69 -2.85,2.26 -5.94,4.86 -15.03,6.47 -22.54,10.02 -0.37,0.18 -0.82,0.46 -1.17,0.63l-16.87 8.31c-6,3.88 -9.98,9.43 -13.01,15.94 -8.93,19.26 0.95,45.71 13.09,59.72l7.7 12.14c9.08,13.99 22.56,30.79 16.22,48.2 -3.48,9.58 -8.89,14 -11.63,23.44l2.36 0c2.91,6.84 -2.52,1.74 8.4,5.31 2.71,0.89 4.83,1.93 9.46,2.86 1.17,8.34 2.87,11.58 3.62,17.48 1.03,8.11 -0.38,12.16 2.56,19.66l7.16 14.49c1.44,2.03 0.18,0.1 2.48,2.85l5.59 10.74c3.68,10.51 7.96,20.69 15.02,28.33l1.71 1.9c0.25,0.25 0.62,0.65 0.89,0.9l6.39 4.41c0.36,0.2 0.84,0.42 1.2,0.62l10.57 7.6c0.31,0.22 0.73,0.56 1.06,0.77 0.46,0.31 2.98,1.78 3.48,1.95 9.24,3.36 23.12,-17.94 53.51,7.9 8.58,7.28 10.04,-3.36 22.44,2.58l13.75 9.82c18.92,11.85 18.01,2.2 33.39,6.11 4.46,1.15 7.36,4.96 12.58,7.5 0.36,0.17 0.84,0.4 1.2,0.57l8.18 4.43c0.04,0.03 4.81,2.32 4.85,2.34 5.32,1.9 3.72,1.49 10.62,1.09l11.44 -18.65 9.81 5.74c19.01,18.45 15.7,4.39 31.79,2.57l6.75 19.88c1.01,3.83 5.95,10.05 13.14,14.15 18.35,10.43 9.37,17.81 20.7,33.36l10.61 9.3c2.53,1.01 1.96,0.71 4.47,1.12 39.09,6.49 28.99,-11.44 37.68,-29.32 3.75,-7.71 2.73,-0.22 3.64,-8.55 11.22,-0.19 24.83,2.16 31.21,-7.19l4.18 -6.65c17.81,-1.36 24.48,3.49 42.59,3.37 13.24,-0.09 9.67,-3.31 19.69,-4.55 17.08,-2.13 34.2,10.89 49.77,-0.42 0.31,-0.23 0.68,-0.6 1.01,-0.83 14.29,-9.39 34.74,3.17 51.5,0.95 1.01,-2.22 1.58,-2.48 2.12,-3.31 8.71,-13.54 12.17,-30.69 19.96,-45.03 1.95,-3.58 0.14,-1.17 2.11,-3.34 0.24,-0.27 0.6,-0.68 0.88,-0.92 0.27,-0.24 0.68,-0.57 0.99,-0.77l5.33 -1.66c14.94,-2.25 24.48,-1.11 39.32,-4.27 10.08,-2.15 14.8,-4.33 19.04,-13.27 3.78,-7.97 -2.32,-3.54 4.99,-6.55 7.69,-7.25 7.86,-0.83 17.69,-3.35 8.35,-2.14 7.04,-7.08 8.5,-16.18 5.01,-2.15 3.52,-3.64 8.4,-4.52 4.37,-0.81 7.49,2.29 9.08,3.85 4.91,4.85 -4.5,-5.11 1.77,1.94l5.08 5.74c3.52,2.58 8.07,2.53 12.83,2.21l2.87 -6c1.13,-2.25 1.31,-2.76 2.15,-4.21 5.82,-1.19 2.21,-1.69 8.38,-0.2 18.1,4.37 3.7,15.45 44.25,13.88l0 -4.09c5.55,-2.54 1.93,-5.83 3.36,-17.29l7.74 6.29c13.03,13.09 19.16,0.6 24.91,-9.58 5.71,2.01 7.87,6.22 14.26,5.9 1.87,-3.27 1.11,-3.66 2.67,-7.61 0.17,-0.41 0.39,-0.9 0.56,-1.32l1.1 -2.48c1.48,-3.45 0.55,2.22 1.39,-3.46l2.58 0c1.37,8.99 0.74,1.94 2.67,6.26l8.2 16.49c7.76,-0.5 5.62,-0.61 10.05,-3.41l8.69 -3.49c1.31,1.89 5.46,13.81 6.12,17.08l10.15 0.57 8.48 20.48c5.23,3.97 15.96,2.74 25.1,3.94l1.24 20.41c16.06,1.87 3.32,-3.49 16.26,-2.43l2.34 12.55c12.53,1.04 12.74,-10.59 28.87,-9.02 2.16,11.5 -0.21,19.08 -0.31,30.49 8.06,-0.48 9.36,1.34 11.37,-4.24 4.92,1.66 4.34,2.11 6.05,7.24l0.64 2.74c0.88,3.5 0.71,3.84 1.93,7.27 1.33,3.78 0.26,-0.66 2.04,4.37 9.18,-2.24 8.43,-9.55 13.31,-17.25 20.62,-2.96 27.89,5.93 49.27,6.44l4.72 11.08c1.49,4.32 1.01,4.29 1.73,8.94 2.69,17.32 13.86,18.71 21.56,32.78l8.07 6.65c1.44,-3.45 -0.32,-0.14 1.82,-2.93 4.19,-5.45 7.84,-8.38 9.66,-15.68l14.83 1.31 1.44 15.75c1.06,0.61 7.53,3.59 7.6,3.61l8.01 3c0.23,-0.4 0.93,0.34 1.33,0.62 -0.06,8.09 -0.68,8.58 -5.3,14.62 -2.45,3.2 -2.59,5.71 -0.9,9.48 0.17,0.37 2.55,3.64 3.12,4.32l5.61 5.87 -13.99 8.25 2.94 20c1.39,6.46 -9.77,23.51 -13.12,27.82 -11.59,14.86 -0.84,26.57 2.72,40.14l9.62 -2.64c5.62,-1.85 2.11,-1.49 9.05,-1.29 3.43,11.04 8.39,19.75 16.11,29.08l10.75 15.86c5.27,-0.03 5.11,0.73 9.97,-1.33 0.52,-0.22 1.82,-1.03 2.27,-1.33l5.81 -5.09c4.05,-3.03 6.28,-3.02 11.24,-3 5.88,8.04 4.44,10.83 -0.62,19.21l-2.57 4.64c-0.19,0.3 -0.5,0.72 -0.68,1.01l-2.77 4.37c-2.56,6.7 -1.66,17.23 1.51,22.88l6.45 14.73c-14.21,-0.21 -4.02,-2.42 -15.89,-3.8 0.4,14.95 5.15,14.01 19.82,13.07 0.27,13.37 -1.49,9.99 -5.36,17.47 -4.48,8.65 -0.17,12.34 1.24,19.34l21.51 -0.3c0.46,6.62 -0.79,13.31 4.75,15.44 2.04,4.99 -2.78,1.79 5.1,3.19 8.03,1.4 14.18,-1.11 20.77,4.87l8.67 9.49c2.93,3.93 5.46,6.57 6.49,11.84 2.3,11.63 -2.36,6.49 -2.53,14.01 -0.24,10.82 4.04,-2.38 2.17,12.14 -0.84,6.55 -4.77,4.43 -0.42,11.96 2.75,4.78 3.88,4.3 4.02,11.69l-4.55 4.3c-2.32,4.07 -0.28,5.91 -0.18,6.49l-3.23 15.09c8.01,1.58 11.25,4.18 12.69,13.43l12.41 3.76c8.22,5.16 7.66,5.86 6.98,16.99 -3.54,0.15 -3.87,0.41 -7.38,-0.09l-4.46 -1.18c-7.91,-2.62 -10.99,-4.28 -17.8,2.25l-4.73 5.46 -6.32 -4.15c-2.52,-2.2 1.55,-2.65 -6.17,-2.33 -12.89,0.54 3.42,6.2 -12.83,2.47 -4.46,-7.74 -4.41,-14.15 -5.5,-24.38 -0.51,-4.8 -2.2,-11.8 -6.95,-14.47l-2.57 -0.78c-3.41,-1.06 1.26,-0.55 -3.03,-0.15 -5.43,10.24 6,10.64 -1.51,20.79l-10.03 11.91c-0.26,0.46 -1.17,2.14 -1.37,2.5l-1.53 2.69c-8.31,-1.83 -6.87,-2.42 -12.63,-6.17 -11.29,-7.4 -7.7,-14.26 -9.08,-27.24 -0.71,-6.74 0.74,-3.27 -2.32,-6.55 -8.88,-9.47 -11.44,11.98 -14.95,16.44l-4.35 3.68c-9.22,-3.68 -4.1,-14.79 -10.83,-16.06 -12.48,-2.38 -8.42,21.31 -17.44,26.77 -5.04,3.06 -7.9,1.82 -13.48,1.29l0 -4.3c-4.04,-1.59 -0.89,-5.23 0.9,-9.36 1.57,-3.65 3.12,-6.88 3.46,-13.48 0.63,-11.84 2.06,-22.32 -12.56,-22.52l-4.84 10.96c-0.21,0.31 -0.56,0.72 -0.78,1.01l-4.01 6.11c-7.8,0.82 -13.22,-0.72 -20.04,-0.17 -8.2,0.67 -10.65,4 -14.53,9.64 -2.31,3.36 -3.29,4.14 -3.23,9.3 0.11,8.94 2.22,6.38 5.4,12.49 5.42,10.39 -1.44,16.76 5.59,30.45l5.68 8.83c3.59,3.82 10.08,5.26 11.61,9.83l-24.31 10.96c-2.61,23.7 6.68,29.98 1.93,47.13 -6.45,0.79 -8.73,0.41 -14.98,-2.38l-3.71 -1.71c-7.78,-3.11 -12.55,-2.38 -21.36,-1.57 -0.92,2.17 -1.43,2.34 -2.03,3.36 -8.71,14.81 -2.2,29.78 -2.18,45.5 -5.54,2.52 -6.45,5.73 -15.87,6.44 -8.38,0.62 -8.66,2.53 -17.93,4.14l-0.62 11.96c-4.43,0.4 -9.46,0.14 -13.41,1.17 -9.8,2.53 3.78,1.78 -8.96,3.47 -0.24,2.82 -0.73,5.52 -0.29,8.39 1.53,9.92 -0.38,1.07 2,4.94 10.22,16.61 11.89,14.59 7.31,35.5 -6.33,0.05 -9.72,0.52 -15.49,-2.13 -7.88,-3.63 -10.51,-8.38 -17.73,1.29 -1.11,1.49 -0.86,0.72 -1.94,3.45 -6.52,-0.4 -9.33,-3.22 -14.08,-5.08 -5.75,-2.23 -9.26,-1.85 -16.45,-1.6 -4.09,14.5 -1.31,10.88 7.99,24.46 0.21,0.31 0.53,0.73 0.72,1.04 5.77,10 1.31,18.55 14.74,24.96 12.26,5.84 9.36,10.3 17.6,16.71 6.71,5.22 9.47,-1.02 23.5,10.84 9.54,8.08 12.94,5.68 25.5,6.71 0.76,7.18 2.09,8.5 9.33,8.95 0.29,-0.41 0.5,-1.02 0.64,-1.32 0.14,-0.27 0.46,-0.93 0.64,-1.28l2.48 -4.65c4.77,-8.43 2.69,-33.37 13.78,-24.63l10.49 12.84c9.07,7.24 10.23,1.97 14.8,-6.7 1.43,-2.69 1.02,-4.81 4.1,-5.52 8.11,-1.89 8,4.38 15.41,6.83 2.43,-4.55 7.41,-10.2 8.18,-15.17 0.09,-0.61 0.5,-0.72 0.67,-1.33l26.87 -0.53 1.77 -4.85c0.16,-0.36 0.36,-0.87 0.55,-1.23l6.93 -7.51c5.39,-3.58 12.55,-3.72 19.16,-2.74l23.65 14.15c0.25,0.28 0.58,0.7 0.84,0.96l15.09 6.76c4.73,2.94 0.85,0.32 4.26,4.47l4.19 4.94c12.09,12.13 8.62,7.81 7.93,30.4 9.42,0.84 3.2,-1.55 5.48,2.75 9.13,-3.64 4.48,-12.31 7.71,-20.29l10.45 -11.38c2.42,-2.18 -0.05,-0.65 2.75,-2.2l-7.54 -9.91c-5.34,-7.64 1.76,-11.5 0.61,-20.16 -0.52,-3.96 -0.3,-2.25 -1.52,-4.26 -6.54,2.09 -5.02,0.46 -5.9,8.73l-4.92 -8.81c-3.71,0.14 -7.47,0.92 -10.79,0.4 -10.4,-1.63 1.52,0.36 -7,-3.21 1.49,-4.68 0.25,-1.51 2.77,-4.75 3.07,-3.91 1.28,-1.05 3.57,-3.59 3.35,-3.72 3.92,-4.53 4.54,-10.99 -3.11,-0.72 -8.34,-3.04 -10.84,-4.67 -0.38,-7.87 0.07,-3.99 1.55,-8.89 0.32,-1.06 0.21,1.87 1.25,-4.04 1.54,-8.69 -1.52,-17.63 -2.71,-23.52 7.04,-3.18 -2.83,-0.6 7.27,-3.44 0.4,-8.26 -2.03,-9.21 0.32,-17.03l3.02 -13.29 12.74 6.62c-0.14,0.51 -0.49,1.09 -0.63,1.43 -0.15,0.34 -0.46,0.99 -0.62,1.41 -0.18,0.41 -0.43,0.92 -0.61,1.38l-1.29 10.02c1.04,6.55 -1,9.18 -1.33,11.44 3.84,4.84 5.95,4.26 7.79,10.98 1.55,5.68 0.67,11.59 0.65,17.51l44.46 -24.86c1.63,-1.22 2.2,-2.36 3.46,-3.94l17.34 -16.96c0.26,-0.28 0.6,-0.69 0.87,-0.95 0.26,-0.26 0.62,-0.65 0.9,-0.9 0.27,-0.24 0.65,-0.62 0.94,-0.84 6.26,-5.08 16.56,-6.42 22.27,-11.9 0.27,-0.25 0.6,-0.68 0.84,-0.96 3.9,-4.5 0.09,-2.89 5.18,-7.48 11.95,-10.81 10.08,5.33 19.64,-22.2 1.6,-4.64 3.82,-5.61 7.26,-8.42l10.27 -9.92c0.29,-0.24 0.7,-0.57 1,-0.79 5.76,-4.23 5.53,-1.86 10.34,-7.68l23.24 -30.84c5.37,-4.94 2,-1.65 5.68,-7.03l12.66 -16.18c0.22,-0.27 0.6,-0.65 0.82,-0.92l2.37 -3.07c0.2,-0.41 0.46,-0.84 0.62,-1.28 1.49,-3.76 -0.37,-10.02 5.04,-18.28 0.21,-0.31 0.52,-0.76 0.73,-1.07l6.08 -8.33c0.01,-0.01 2.07,-3.22 2.12,-3.34 1.78,-4.22 0.48,-2.4 1.43,-6.08 1.98,-7.63 7.12,-6.99 8.3,-11.01 1.65,-19.57 -7.15,-2.75 -4.53,-15.71 0.9,-4.43 1.98,-2.53 4.74,-5.9 2.58,-3.17 2.05,-1.53 3.09,-6.18 12.39,0.62 18.39,2.35 27.29,-5 9.01,-7.43 19.51,-8 32.9,-9.19 18.84,-1.66 8.72,-5.36 28.65,0.77 10.08,3.11 19.25,6.25 27.74,-1.78 4.15,-3.93 6.19,-9.05 10.7,-12.63 8.14,-6.44 5.12,-2.59 10.51,-13.54 8.15,15.12 -6.49,12.21 -5.78,20.43 0.58,6.66 8.19,6.55 13.58,8.4 3.5,1.22 -1.72,0.14 4.99,2.05 1.36,-4.25 3.16,-5.35 3.63,-11.83 6.3,-0.69 12.5,-2.14 18.49,0.75 8.34,4 18.16,10.05 27.76,7.71 5.46,-1.34 0.72,-0.24 4.06,-1.65l8.43 -3.64c1.45,-9.71 -2.34,-7.71 -1.7,-15.79 0.7,-8.78 5.41,-4.73 -2.37,-17.46 -3.42,-5.57 -1.17,-7.3 0.38,-14 0.51,-2.16 0.94,-5.81 1.33,-8.11 5.73,-0.77 11.39,-2.05 15.13,-6.55 1.44,-1.74 3.32,-6.13 3.59,-7.15 0.98,-3.71 0.86,-5.21 1.07,-9.04l-14.25 1.73c0.2,-5.91 -0.16,-15.73 2.89,-20.89 3.02,4.76 1.65,8.19 2.54,15.32l12.31 0.15c-0.73,15.28 1.2,27.93 -13.2,29.16 -0.21,4.76 -0.82,10.23 -0.72,14.88 0.04,2.23 0.13,4.79 0.73,6.93 1.76,6.33 1.46,3.07 2.58,4.81 4.32,6.68 4.92,13.78 7.49,21.54l15.65 13.16c6.82,2.8 7.6,5.41 10.68,11.11 1.66,3.07 -0.42,-1.54 1.84,3.09 13.72,-1 9.9,-8.88 31.33,-7.17 -2.45,6.73 -3.92,3.84 -4.7,11.12l22.59 0.32c1.74,-5.68 5.81,-7.76 10.77,-10.31l4.78 -2.46c0.37,-0.19 0.84,-0.46 1.21,-0.63l3.63 -1.83c6.49,-3.05 12.04,-4.27 17.14,-1.11 -8.34,3.89 -17.69,7.3 -24.43,13.73 -3.91,3.72 -3.33,4.74 -9.11,7.27 -4.16,1.83 -9.57,1.21 -15.11,0.19l-6.5 0.05c-0.22,-0.46 -0.95,0.2 -1.39,0.42l9.32 9.79c12.86,-2.84 -0.58,-3.57 12.19,-3.76l-9.54 10.98c-5.79,2.39 -13.75,0.99 -17.39,-2.36l-3.22 -4.06c-1.46,-2.11 -1.21,-1.33 -2.64,-4.4 -10.14,-0.54 -9.29,3.67 -17.75,1.47 -13.26,-3.42 -5.16,-2.04 -19.51,-2.2 -9.85,-0.1 -5.57,-3.17 -17.84,-3.9 -18.12,-1.11 -19.59,-2.57 -32.42,-10.86 -6,-3.88 -7.82,-2.96 -15.54,-0.85 -28.08,7.68 -24.12,-1.93 -35.27,-5.68 0.7,7.31 4.24,9.59 9.06,14.15l22.67 22.85 1.86 -14.74c7.9,-0.82 18.53,1.19 24.53,4.26 2.88,1.47 -0.63,-0.38 3.03,2.23l11.31 6.78c6.76,3.27 14.44,1.53 22.17,1.2 1.82,6.58 4.43,4.98 7.3,11.6 -1.77,4.27 -5.24,4.52 -6.88,6.72 -6.82,9.21 2.07,9.47 -30.08,8.26 -12.46,-0.48 -11.36,3.34 -20.02,5.86 0.38,6.27 -0.12,7.39 4.32,11.28l5.43 3.45c0.36,0.17 0.81,0.43 1.19,0.58 0.38,0.15 0.84,0.37 1.25,0.51l9.56 0.88 5.59 -10.53c5.3,2.96 0.2,-0.37 3.46,2.09l6.09 8.32c7.18,0.37 12.73,0.41 17.65,2.2 0.52,0.19 3.1,1.4 3.5,1.65 3.68,2.16 0.14,-0.47 3.19,2.31 4.43,4.03 4.39,7.23 9.5,10.61 7.19,4.75 14.47,4.5 23.46,4.55l0.03 18.9 0 0.01z"/>
   <path class="fil10 str0" d="M12.06 6332.97c12.08,-20.94 30.6,-32.21 53.95,-32.21 8.85,0 18.51,1.61 28.17,5.64 2.42,0.8 7.25,2.42 12.89,4.83 6.44,2.42 11.27,4.02 14.49,4.83 3.22,0.8 7.25,1.6 12.08,3.22 4.83,1.61 10.46,2.42 15.29,3.22 4.83,0.81 9.66,0.81 14.49,0.81 17.71,0 31.4,-5.64 41.87,-17.72 9.66,-12.08 14.49,-27.37 14.49,-45.08 0,-21.74 -12.88,-40.26 -38.65,-55.56 -37.84,-21.74 -67.63,-44.29 -87.76,-68.44 -20.13,-24.96 -30.6,-53.14 -30.6,-85.34 0,-59.58 19.32,-107.09 57.17,-140.91 38.65,-33.82 86.96,-50.72 146.54,-50.72 43.48,0 78.91,8.05 107.89,24.15 19.32,9.66 29.79,19.32 33.01,28.99 2.42,10.46 4.03,17.71 4.03,22.55 0,11.27 -4.03,22.54 -11.27,33.82 -12.88,19.32 -30.59,28.99 -53.14,28.99 -11.27,0 -24.15,-2.42 -38.65,-6.44 -17.71,-7.25 -34.62,-10.46 -49.91,-10.46 -13.69,0 -24.97,5.63 -33.82,16.1 -8.05,10.47 -12.88,22.55 -12.88,37.04 0,20.13 14.49,38.65 41.87,54.74 39.46,23.35 68.44,45.9 87.77,68.44 18.52,23.35 28.18,50.72 28.18,83.74 0,66.02 -19.32,116.74 -57.97,151.37 -39.46,35.42 -90.98,53.14 -157.01,53.14 -20.13,0 -40.25,-2.42 -61.99,-7.25 -20.94,-4.03 -39.46,-11.27 -54.75,-20.13 -16.91,-8.85 -26.57,-19.32 -29.8,-29.79 -3.22,-10.46 -4.83,-18.52 -4.83,-24.15 0,-9.66 2.42,-20.13 8.86,-31.4l-0.02 0zm449.28 -157.81l41.06 -228.66c4.03,-24.96 13.69,-43.48 28.18,-56.36 15.29,-12.89 34.62,-19.32 57.97,-19.32 23.34,0 39.45,5.63 48.31,16.1 8.85,11.27 12.88,24.15 12.88,38.65 0,6.44 0,13.69 -1.61,20.94l-40.25 228.66c-2.42,12.89 -4.83,24.15 -5.64,33.82 -1.6,8.86 -3.22,18.52 -4.83,28.99 -0.8,9.66 -1.6,17.72 -1.6,21.74 0,4.03 -0.81,7.25 -0.81,8.86 0,5.63 0.81,11.27 0.81,16.91 0.8,6.44 1.6,11.27 3.22,16.11 1.61,4.02 4.03,8.05 6.44,12.08 2.42,3.22 6.44,5.63 10.46,7.25 4.03,1.6 8.86,2.42 14.49,2.42 8.05,0 14.49,-0.81 20.94,-4.03 5.63,-2.42 11.27,-7.25 16.1,-13.69 4.83,-6.44 8.86,-13.68 12.09,-20.93 3.22,-7.25 6.44,-16.91 9.66,-29.8 3.22,-12.08 6.44,-24.15 8.85,-35.42 2.42,-12.08 4.83,-26.57 8.06,-44.29l40.25 -228.66c4.83,-24.96 14.49,-43.48 28.99,-56.36 15.3,-12.89 34.63,-19.32 57.97,-19.32 23.35,0 39.46,5.63 48.32,16.1 8.85,11.27 12.88,24.15 12.88,38.65 0,6.44 -0.8,13.69 -1.61,20.94l-41.06 228.66c-4.03,24.97 -8.86,47.51 -13.69,67.63 -4.83,19.32 -10.46,38.65 -17.71,57.97 -7.25,19.32 -15.29,36.24 -23.35,50.73 -8.85,13.68 -18.51,27.37 -30.59,39.45 -11.27,12.88 -24.97,22.54 -38.65,29.79 -14.49,8.06 -31.4,13.69 -49.92,18.52 -19.32,4.03 -39.46,6.44 -62,6.44 -37.84,0 -68.43,-6.44 -92.59,-19.32 -24.97,-12.08 -41.87,-30.6 -53.15,-53.95 -10.46,-23.34 -16.1,-45.09 -17.71,-64.41 -0.8,-19.32 -0.8,-31.4 -0.8,-37.03 0,-28.99 3.22,-61.19 9.66,-95.82zm444.43 183.58l73.27 -413.05c4.03,-24.15 13.69,-42.68 28.99,-55.56 15.29,-12.89 34.62,-19.32 59.58,-19.32l94.2 0c57.17,0 100.65,13.68 130.43,41.87 29.79,28.18 44.28,66.83 44.28,115.94 0,75.69 -21.74,136.88 -65.22,181.97 -43.48,45.09 -104.67,68.43 -181.96,68.43l-23.35 0 -13.69 79.72c-4.83,24.15 -13.68,43.48 -28.99,55.56 -14.49,13.68 -33.82,20.13 -57.16,20.13 -24.16,0 -40.26,-5.63 -49.12,-16.91 -8.86,-10.46 -12.88,-23.35 -12.88,-38.65 0,-6.44 0.8,-12.88 1.6,-20.13l0 -0.01zm205.33 -202.1c14.49,0 26.57,-4.03 37.03,-10.47 10.47,-7.25 18.52,-16.91 24.15,-28.99 4.83,-12.08 8.86,-24.15 11.27,-36.23 2.42,-12.88 4.03,-25.77 4.03,-38.65 0,-16.91 -4.03,-28.99 -11.27,-37.03 -7.25,-8.06 -19.32,-12.08 -36.23,-12.08l-23.35 0 -29.79 163.45 24.15 0zm245.56 202.1l73.27 -413.05c4.03,-24.15 13.69,-42.68 28.99,-55.56 15.29,-12.89 34.62,-19.32 59.58,-19.32l94.2 0c57.17,0 100.65,13.68 130.43,41.87 29.79,28.18 44.28,66.83 44.28,115.94 0,75.69 -21.74,136.88 -65.22,181.97 -43.48,45.09 -104.67,68.43 -181.96,68.43l-23.35 0 -13.69 79.72c-4.83,24.15 -13.68,43.48 -28.99,55.56 -14.49,13.68 -33.82,20.13 -57.16,20.13 -24.16,0 -40.26,-5.63 -49.12,-16.91 -8.86,-10.46 -12.88,-23.35 -12.88,-38.65 0,-6.44 0.8,-12.88 1.6,-20.13l0 -0.01zm205.32 -202.1c14.49,0 26.57,-4.03 37.03,-10.47 10.47,-7.25 18.52,-16.91 24.15,-28.99 4.83,-12.08 8.86,-24.15 11.27,-36.23 2.42,-12.88 4.03,-25.77 4.03,-38.65 0,-16.91 -4.03,-28.99 -11.27,-37.03 -7.25,-8.06 -19.32,-12.08 -36.23,-12.08l-23.35 0 -29.79 163.45 24.15 0zm256.85 100.64c0,-30.59 3.22,-67.63 10.46,-111.11 6.44,-34.62 13.69,-66.02 21.74,-92.59 8.06,-27.38 19.33,-53.95 32.21,-78.91 13.69,-24.96 29.79,-45.09 47.51,-62 17.71,-16.11 40.25,-28.99 66.82,-38.65 25.77,-9.66 55.56,-14.49 88.57,-14.49 30.6,0 57.17,4.83 79.71,13.69 22.55,9.66 40.26,22.54 53.14,40.25 12.89,16.91 22.55,37.04 28.99,58.78 6.44,22.54 9.67,47.51 9.67,74.88 0,32.2 -4.03,69.25 -11.27,111.92 -6.44,34.62 -12.89,65.22 -20.94,92.59 -8.05,27.37 -19.32,53.14 -32.2,78.1 -13.69,24.97 -29.8,45.9 -47.51,62 -17.71,16.11 -40.26,28.99 -66.02,39.46 -26.57,9.66 -56.37,14.49 -89.38,14.49 -24.96,0 -46.7,-3.23 -66.02,-9.66 -19.32,-6.44 -35.43,-14.49 -49.11,-25.77 -12.89,-11.27 -23.35,-24.96 -32.21,-40.26 -8.86,-16.1 -15.29,-33.82 -18.52,-52.34 -4.02,-18.51 -5.63,-38.65 -5.63,-60.39zm189.21 66.03c8.85,0 16.91,-1.61 24.15,-5.64 8.05,-4.02 14.49,-10.46 20.13,-19.32 5.64,-8.05 11.27,-16.91 15.3,-26.57 4.02,-8.85 8.05,-20.93 12.08,-35.42 4.02,-14.49 7.25,-27.38 9.66,-39.46 2.42,-12.08 5.63,-26.57 8.85,-44.28 8.06,-46.7 12.08,-81.32 12.08,-104.67 0,-44.28 -13.68,-66.82 -41.87,-66.82 -10.46,0 -20.13,3.22 -28.99,9.66 -8.86,6.44 -16.11,14.49 -21.74,24.15 -6.44,9.66 -11.27,23.34 -16.91,39.45 -4.83,16.11 -9.66,31.4 -12.08,45.09 -3.23,14.49 -7.25,32.2 -10.47,53.14 -8.05,45.89 -12.08,81.32 -12.08,103.86 0,45.09 13.69,66.83 41.87,66.83l0.01 0zm273.75 35.44l73.27 -413.05c4.03,-24.15 13.69,-42.68 28.99,-55.56 15.29,-12.89 34.62,-19.32 59.58,-19.32l93.4 0c55.56,0 99.03,12.88 130.43,38.65 31.39,24.96 46.69,62.8 46.69,112.72 0,41.87 -8.86,79.71 -25.77,115.14 -17.71,34.62 -43.47,61.99 -78.09,81.31l22.54 119.97c2.42,10.47 3.23,20.13 3.23,29.8 0,37.84 -19.32,59.58 -57.97,66.02 -8.06,0.8 -14.49,1.61 -17.72,1.61 -18.51,0 -33.82,-5.64 -44.28,-17.72 -11.27,-11.27 -18.52,-29.79 -23.35,-53.94l-20.13 -117.55 -24.97 0 -19.32 111.92c-4.83,24.15 -14.49,43.48 -28.99,55.56 -14.49,13.68 -33.82,20.13 -57.16,20.13 -24.16,0 -40.26,-5.63 -49.12,-16.91 -8.86,-11.27 -12.88,-24.15 -12.88,-38.65 0,-6.44 0.8,-13.69 1.6,-20.13zm209.34 -223.83c16.91,0 31.4,-4.84 42.68,-14.5 11.27,-9.66 19.32,-20.93 24.15,-34.62 4.03,-13.69 6.44,-28.99 6.44,-45.89 0,-31.4 -16.11,-46.7 -48.31,-46.7l-23.35 0 -25.77 141.71 24.15 0z"/>
   <path class="fil10 str0" d="M2775.74 5931.19c3.23,-19.32 12.08,-34.63 27.38,-45.09 14.49,-10.46 33.82,-15.29 58.77,-15.29l224.63 0c24.15,0 41.87,4.02 51.53,13.68 9.66,9.66 14.49,20.94 14.49,33.82 0,4.03 0,8.86 -0.81,12.89 -4.02,20.13 -12.88,35.43 -27.37,45.89 -15.29,10.46 -34.62,15.29 -59.58,15.29l-38.65 0 -65.22 366.35c-4.03,24.15 -13.68,43.48 -28.17,56.36 -15.29,12.88 -34.62,19.32 -57.97,19.32 -23.34,0 -39.45,-5.63 -48.31,-16.91 -8.85,-10.46 -12.88,-23.35 -12.88,-37.84 0,-6.44 0.8,-13.68 1.61,-20.93l64.41 -366.35 -38.65 0c-24.96,0 -41.87,-4.83 -51.53,-13.68 -9.66,-8.86 -14.49,-20.13 -14.49,-33.82 0,-4.03 0,-8.06 0.8,-13.69z"/>
   <path class="fil10 str0" d="M3322.57 6358.73l73.27 -413.05c4.03,-24.15 13.69,-42.68 28.99,-55.56 15.29,-12.89 34.62,-19.32 59.58,-19.32l94.2 0c57.17,0 100.65,13.68 130.43,41.87 29.79,28.18 44.28,66.83 44.28,115.94 0,75.69 -21.74,136.88 -65.22,181.97 -43.48,45.09 -104.67,68.43 -181.96,68.43l-23.35 0 -13.69 79.72c-4.83,24.15 -13.68,43.48 -28.99,55.56 -14.49,13.68 -33.82,20.13 -57.16,20.13 -24.16,0 -40.26,-5.63 -49.12,-16.91 -8.86,-10.46 -12.88,-23.35 -12.88,-38.65 0,-6.44 0.8,-12.88 1.6,-20.13l0 -0.01zm205.32 -202.1c14.49,0 26.57,-4.03 37.03,-10.47 10.47,-7.25 18.52,-16.91 24.15,-28.99 4.83,-12.08 8.86,-24.15 11.27,-36.23 2.42,-12.88 4.03,-25.77 4.03,-38.65 0,-16.91 -4.03,-28.99 -11.27,-37.03 -7.25,-8.06 -19.32,-12.08 -36.23,-12.08l-23.35 0 -29.79 163.45 24.15 0zm256.84 100.64c0,-30.59 3.22,-67.63 10.46,-111.11 6.44,-34.62 13.69,-66.02 21.74,-92.59 8.06,-27.38 19.33,-53.95 32.21,-78.91 13.69,-24.96 29.79,-45.09 47.51,-62 17.71,-16.11 40.25,-28.99 66.82,-38.65 25.77,-9.66 55.56,-14.49 88.57,-14.49 30.6,0 57.17,4.83 79.71,13.69 22.55,9.66 40.26,22.54 53.14,40.25 12.89,16.91 22.55,37.04 28.99,58.78 6.44,22.54 9.67,47.51 9.67,74.88 0,32.2 -4.03,69.25 -11.27,111.92 -6.44,34.62 -12.89,65.22 -20.94,92.59 -8.05,27.37 -19.32,53.14 -32.2,78.1 -13.69,24.97 -29.8,45.9 -47.51,62 -17.71,16.11 -40.26,28.99 -66.02,39.46 -26.57,9.66 -56.37,14.49 -89.38,14.49 -24.96,0 -46.7,-3.23 -66.02,-9.66 -19.32,-6.44 -35.43,-14.49 -49.11,-25.77 -12.89,-11.27 -23.35,-24.96 -32.21,-40.26 -8.86,-16.1 -15.29,-33.82 -18.52,-52.34 -4.02,-18.51 -5.63,-38.65 -5.63,-60.39zm189.21 66.03c8.85,0 16.91,-1.61 24.15,-5.64 8.05,-4.02 14.49,-10.46 20.13,-19.32 5.64,-8.05 11.27,-16.91 15.3,-26.57 4.02,-8.85 8.05,-20.93 12.08,-35.42 4.02,-14.49 7.25,-27.38 9.66,-39.46 2.42,-12.08 5.63,-26.57 8.85,-44.28 8.06,-46.7 12.08,-81.32 12.08,-104.67 0,-44.28 -13.68,-66.82 -41.87,-66.82 -10.46,0 -20.13,3.22 -28.99,9.66 -8.86,6.44 -16.11,14.49 -21.74,24.15 -6.44,9.66 -11.27,23.34 -16.91,39.45 -4.83,16.11 -9.66,31.4 -12.08,45.09 -3.23,14.49 -7.25,32.2 -10.47,53.14 -8.05,45.89 -12.08,81.32 -12.08,103.86 0,45.09 13.69,66.83 41.87,66.83l0.01 0zm273.75 35.44l73.27 -413.05c4.03,-24.15 13.69,-42.68 28.99,-55.56 15.29,-12.89 34.62,-19.32 59.58,-19.32l93.4 0c55.56,0 99.03,12.88 130.43,38.65 31.4,24.96 46.7,62.8 46.7,112.72 0,41.87 -8.86,79.71 -25.77,115.14 -17.71,34.62 -43.48,61.99 -78.1,81.31l22.54 119.97c2.42,10.47 3.23,20.13 3.23,29.8 0,37.84 -19.32,59.58 -57.97,66.02 -8.06,0.8 -14.49,1.61 -17.72,1.61 -18.51,0 -33.82,-5.64 -44.28,-17.72 -11.27,-11.27 -18.52,-29.79 -23.35,-53.94l-20.13 -117.55 -24.97 0 -19.32 111.92c-4.83,24.15 -14.49,43.48 -28.99,55.56 -14.49,13.68 -33.82,20.13 -57.16,20.13 -24.16,0 -40.26,-5.63 -49.12,-16.91 -8.86,-11.27 -12.88,-24.15 -12.88,-38.65 0,-6.44 0.8,-13.69 1.6,-20.13zm209.35 -223.83c16.91,0 31.4,-4.84 42.68,-14.5 11.27,-9.66 19.32,-20.93 24.15,-34.62 4.03,-13.69 6.44,-28.99 6.44,-45.89 0,-31.4 -16.11,-46.7 -48.31,-46.7l-23.35 0 -25.77 141.71 24.15 0z"/>
   <path class="fil10 str0" d="M4741.67 5931.19c3.23,-19.32 12.08,-34.63 27.38,-45.09 14.49,-10.46 33.82,-15.29 58.77,-15.29l224.64 0c24.15,0 41.87,4.02 51.53,13.68 9.66,9.66 14.49,20.94 14.49,33.82 0,4.03 0,8.86 -0.81,12.89 -4.02,20.13 -12.88,35.43 -27.37,45.89 -15.29,10.46 -34.62,15.29 -59.58,15.29l-38.65 0 -65.22 366.35c-4.03,24.15 -13.69,43.48 -28.18,56.36 -15.29,12.88 -34.62,19.32 -57.97,19.32 -23.34,0 -39.45,-5.63 -48.31,-16.91 -8.85,-10.46 -12.88,-23.35 -12.88,-37.84 0,-6.44 0.8,-13.68 1.61,-20.93l64.41 -366.35 -38.65 0c-24.96,0 -41.87,-4.83 -51.53,-13.68 -9.66,-8.86 -14.49,-20.13 -14.49,-33.82 0,-4.03 0,-8.06 0.8,-13.69z"/>
   <path class="fil10 str0" d="M5028.7 6349.87l159.42 -384.87c9.66,-22.54 21.74,-41.87 37.03,-56.37 15.3,-14.49 29.8,-24.96 45.09,-29.79 14.49,-5.63 30.6,-8.05 46.7,-8.05 25.76,0 47.5,7.25 65.22,21.74 17.71,15.29 28.17,39.45 29.79,72.46l24.15 384.87c0.8,4.03 0.8,8.05 0.8,12.08 0,46.7 -23.34,70.85 -69.24,72.46 -2.42,0 -4.03,0 -6.44,0 -20.13,0 -36.23,-5.63 -46.7,-16.11 -11.27,-10.46 -16.91,-28.17 -17.72,-52.33l-1.6 -38.66 -111.92 0 -16.11 38.66c-8.85,24.96 -20.93,42.67 -34.62,53.14 -13.69,10.46 -31.4,16.1 -51.53,16.1 -2.42,0 -4.83,-0.8 -7.25,-0.8 -17.71,-0.8 -30.59,-5.63 -39.45,-13.69 -9.66,-8.05 -13.69,-15.29 -14.49,-21.74 0,-5.63 0,-8.85 0,-9.66 0,-11.27 3.22,-24.96 8.86,-39.45zm197.27 -135.26l66.02 0 -4.83 -157.81 -61.19 157.81zm277.78 144.12l73.27 -412.25c4.03,-24.96 13.69,-43.48 28.18,-56.36 15.29,-12.89 34.62,-19.32 57.97,-19.32 23.34,0 39.45,5.63 48.31,16.1 8.85,11.27 12.88,24.15 12.88,39.46 0,6.44 0,12.88 -1.61,20.13l-65.22 366.34 93.4 0c24.15,0 41.87,4.03 51.53,13.69 9.66,8.86 14.49,20.94 14.49,33.82 0,4.03 0,8.06 -0.81,12.89 -4.02,20.13 -12.88,34.62 -28.17,45.08 -14.49,10.47 -33.82,16.11 -58.78,16.11l-162.64 0c-24.97,0 -41.87,-5.63 -50.73,-16.91 -8.85,-10.46 -13.68,-23.35 -13.68,-37.84 0,-6.44 0.8,-13.68 1.6,-20.93z"/>
   <path class="fil10 str0" d="M518.42 7354.17l73.27 -413.04c4.03,-24.15 13.69,-42.68 28.99,-55.56 15.29,-12.89 34.62,-19.32 59.58,-19.32l175.52 0c24.96,0 41.87,4.02 51.53,13.68 9.66,8.86 14.49,20.13 14.49,33.01 0,4.83 0,8.86 -0.8,13.69 -3.23,20.13 -12.89,35.43 -27.38,45.89 -14.49,10.46 -34.62,15.29 -59.58,15.29l-104.67 0 -18.52 103.05 91.8 0c23.34,0 38.65,4.03 48.31,12.88 8.85,8.86 12.88,20.13 12.88,33.01 0,4.03 -0.8,12.08 -3.22,24.15 -1.61,12.08 -9.66,23.35 -23.35,33.82 -13.69,10.47 -32.2,15.3 -55.56,15.3l-91.79 0 -24.97 144.12c-4.83,24.96 -13.68,43.48 -28.99,56.36 -14.49,12.88 -33.82,19.32 -57.16,19.32 -24.16,0 -40.26,-5.63 -49.12,-16.91 -8.86,-10.46 -12.88,-23.35 -12.88,-38.65 0,-6.44 0.8,-12.88 1.6,-20.13zm417.08 -101.45c0,-30.59 3.22,-67.63 10.46,-111.11 6.44,-34.62 13.69,-66.01 21.74,-92.58 8.06,-27.38 19.33,-53.95 32.21,-78.91 13.69,-24.96 29.79,-45.09 47.51,-62 17.71,-16.11 40.25,-28.99 66.82,-38.65 25.77,-9.66 55.56,-14.49 88.57,-14.49 30.6,0 57.17,4.83 79.71,13.69 22.55,9.66 40.26,22.54 53.14,40.25 12.89,16.91 22.55,37.04 28.99,58.78 6.44,22.54 9.67,47.51 9.67,74.88 0,32.2 -4.03,69.24 -11.27,111.91 -6.44,34.62 -12.89,65.22 -20.94,92.59 -8.05,27.37 -19.32,53.14 -32.2,78.1 -13.69,24.97 -29.8,45.9 -47.51,62 -17.71,16.11 -40.26,28.99 -66.02,39.46 -26.57,9.66 -56.37,14.49 -89.38,14.49 -24.96,0 -46.7,-3.23 -66.02,-9.66 -19.32,-6.44 -35.43,-14.49 -49.11,-25.77 -12.89,-11.27 -23.35,-24.96 -32.21,-40.26 -8.86,-16.1 -15.29,-33.82 -18.52,-52.34 -4.02,-18.51 -5.63,-38.65 -5.63,-60.39zm189.22 66.03c8.85,0 16.91,-1.61 24.15,-5.64 8.05,-4.02 14.49,-10.46 20.13,-19.32 5.64,-8.05 11.27,-16.91 15.3,-26.57 4.02,-8.85 8.05,-20.93 12.08,-35.42 4.02,-14.49 7.25,-27.38 9.66,-39.46 2.42,-12.08 5.63,-26.57 8.85,-44.28 8.06,-46.7 12.08,-81.31 12.08,-104.67 0,-44.28 -13.68,-66.82 -41.87,-66.82 -10.46,0 -20.13,3.22 -28.99,9.66 -8.86,6.44 -16.11,14.49 -21.74,24.15 -6.44,9.66 -11.27,23.34 -16.91,39.45 -4.83,16.11 -9.66,31.4 -12.08,45.08 -3.23,14.49 -7.25,32.2 -10.47,53.14 -8.05,45.89 -12.08,81.32 -12.08,103.86 0,45.09 13.69,66.83 41.87,66.83l0.01 0zm273.75 35.43l73.27 -413.04c4.03,-24.15 13.69,-42.68 28.99,-55.56 15.29,-12.89 34.62,-19.32 59.58,-19.32l93.4 0c55.56,0 99.03,12.88 130.43,38.65 31.4,24.96 46.7,62.8 46.7,112.72 0,41.87 -8.86,79.7 -25.77,115.13 -17.71,34.62 -43.48,61.99 -78.1,81.31l22.54 119.97c2.42,10.47 3.23,20.13 3.23,29.8 0,37.84 -19.32,59.58 -57.97,66.02 -8.06,0.8 -14.49,1.61 -17.72,1.61 -18.51,0 -33.82,-5.64 -44.28,-17.72 -11.27,-11.27 -18.52,-29.79 -23.35,-53.94l-20.13 -117.55 -24.97 0 -19.32 111.92c-4.83,24.15 -14.49,43.48 -28.99,55.56 -14.49,13.68 -33.82,20.13 -57.16,20.13 -24.16,0 -40.26,-5.63 -49.12,-16.91 -8.86,-11.27 -12.88,-24.15 -12.88,-38.65 0,-6.44 0.8,-13.69 1.6,-20.13zm209.34 -223.82c16.91,0 31.4,-4.84 42.68,-14.5 11.27,-9.66 19.32,-20.93 24.15,-34.61 4.03,-13.69 6.44,-28.99 6.44,-45.89 0,-31.4 -16.11,-46.7 -48.31,-46.7l-23.35 0 -25.77 141.7 24.15 0zm462.16 40.24l41.06 -228.66c4.03,-24.96 13.69,-43.48 28.18,-56.36 15.29,-12.89 34.62,-19.32 57.97,-19.32 23.34,0 39.45,5.63 48.31,16.1 8.85,11.27 12.88,24.15 12.88,38.65 0,6.44 0,13.69 -1.61,20.94l-40.25 228.66c-2.42,12.89 -4.83,24.15 -5.64,33.82 -1.6,8.86 -3.22,18.52 -4.83,28.99 -0.8,9.66 -1.6,17.72 -1.6,21.74 0,4.03 -0.81,7.25 -0.81,8.86 0,5.63 0.81,11.27 0.81,16.91 0.8,6.44 1.6,11.27 3.22,16.11 1.61,4.02 4.03,8.05 6.44,12.08 2.42,3.22 6.44,5.63 10.46,7.25 4.03,1.6 8.86,2.42 14.49,2.42 8.05,0 14.49,-0.81 20.94,-4.03 5.63,-2.42 11.27,-7.25 16.1,-13.69 4.83,-6.44 8.86,-13.68 12.09,-20.93 3.22,-7.25 6.44,-16.91 9.66,-29.8 3.22,-12.08 6.44,-24.15 8.85,-35.42 2.42,-12.08 4.83,-26.57 8.06,-44.29l40.25 -228.66c4.83,-24.96 14.49,-43.48 28.99,-56.36 15.3,-12.89 34.63,-19.32 57.97,-19.32 23.35,0 39.46,5.63 48.32,16.1 8.85,11.27 12.88,24.15 12.88,38.65 0,6.44 -0.8,13.69 -1.61,20.94l-41.06 228.66c-4.03,24.97 -8.86,47.51 -13.69,67.63 -4.83,19.32 -10.46,38.65 -17.71,57.97 -7.25,19.32 -15.29,36.24 -23.35,50.73 -8.85,13.68 -18.51,27.37 -30.59,39.45 -11.27,12.88 -24.97,22.54 -38.65,29.79 -14.49,8.06 -31.4,13.69 -49.92,18.52 -19.32,4.03 -39.46,6.44 -62,6.44 -37.84,0 -68.43,-6.44 -92.59,-19.32 -24.97,-12.08 -41.87,-30.6 -53.15,-53.95 -10.46,-23.34 -16.1,-45.09 -17.71,-64.41 -0.8,-19.32 -0.8,-31.4 -0.8,-37.03 0,-28.99 3.22,-61.19 9.66,-95.82zm444.44 183.58l73.27 -413.04c4.03,-24.15 13.69,-42.68 28.18,-55.56 15.29,-12.89 34.62,-19.32 57.96,-19.32 23.34,0 40.25,4.83 49.11,14.49 8.86,9.66 13.69,21.74 13.69,35.42 0,4.83 -0.81,10.47 -1.61,16.11l-17.71 97.43 102.25 -123.2c24.97,-28.99 49.92,-43.48 75.69,-43.48 15.29,0 28.17,4.83 40.25,15.3 12.08,9.66 18.52,18.51 19.32,26.57 0.8,8.85 1.6,14.49 1.6,17.71 0,10.47 -2.41,21.74 -8.04,33.82 -4.83,12.89 -14.49,25.77 -27.38,40.26l-103.05 117.55 58.77 206.93c4.03,13.69 6.44,26.57 6.44,38.65 0,11.27 -3.23,24.15 -8.06,38.65 -5.63,13.69 -20.13,24.15 -42.67,28.99 -8.86,3.22 -16.91,4.03 -24.97,4.03 -35.42,0 -58.77,-21.74 -70.85,-66.03l-37.04 -134.46 -21.74 24.15 -16.9 99.04c-4.83,24.96 -13.68,43.48 -28.99,56.36 -14.49,12.88 -33.82,19.32 -57.16,19.32 -24.16,0 -40.26,-5.63 -49.12,-16.91 -8.86,-10.46 -12.88,-23.35 -12.88,-38.65 0,-6.44 0.8,-12.88 1.6,-20.13zm450.87 0l73.27 -413.04c4.03,-24.15 13.69,-42.68 28.99,-55.56 15.29,-12.89 34.62,-19.32 59.58,-19.32l93.4 0c55.56,0 99.03,12.88 130.43,38.65 31.4,24.96 46.7,62.8 46.7,112.72 0,41.87 -8.86,79.7 -25.77,115.13 -17.71,34.62 -43.48,61.99 -78.1,81.31l22.54 119.97c2.42,10.47 3.23,20.13 3.23,29.8 0,37.84 -19.32,59.58 -57.97,66.02 -8.06,0.8 -14.49,1.61 -17.72,1.61 -18.51,0 -33.82,-5.64 -44.28,-17.72 -11.27,-11.27 -18.52,-29.79 -23.35,-53.94l-20.13 -117.55 -24.97 0 -19.32 111.92c-4.83,24.15 -14.49,43.48 -28.99,55.56 -14.49,13.68 -33.82,20.13 -57.16,20.13 -24.16,0 -40.26,-5.63 -49.12,-16.91 -8.86,-11.27 -12.88,-24.15 -12.88,-38.65 0,-6.44 0.8,-13.69 1.6,-20.13zm209.34 -223.82c16.91,0 31.4,-4.84 42.68,-14.5 11.27,-9.66 19.32,-20.93 24.15,-34.61 4.03,-13.69 6.44,-28.99 6.44,-45.89 0,-31.4 -16.11,-46.7 -48.31,-46.7l-23.35 0 -25.77 141.7 24.15 0zm225.45 214.97l159.42 -384.86c9.66,-22.54 21.74,-41.87 37.03,-56.37 15.3,-14.49 29.8,-24.96 45.09,-29.79 14.49,-5.63 30.6,-8.05 46.7,-8.05 25.76,0 47.5,7.25 65.22,21.74 17.71,15.29 28.17,39.45 29.79,72.46l24.15 384.86c0.8,4.03 0.8,8.05 0.8,12.08 0,46.7 -23.34,70.85 -69.24,72.46 -2.42,0 -4.03,0 -6.44,0 -20.13,0 -36.23,-5.63 -46.7,-16.11 -11.27,-10.46 -16.91,-28.17 -17.72,-52.33l-1.6 -38.66 -111.92 0 -16.11 38.66c-8.85,24.96 -20.93,42.67 -34.62,53.14 -13.69,10.46 -31.4,16.1 -51.53,16.1 -2.42,0 -4.83,-0.8 -7.25,-0.8 -17.71,-0.8 -30.59,-5.63 -39.45,-13.69 -9.66,-8.05 -13.69,-15.29 -14.49,-21.74 0,-5.63 0,-8.85 0,-9.66 0,-11.27 3.22,-24.96 8.86,-39.45zm197.26 -135.26l66.02 0 -4.83 -157.81 -61.19 157.81zm281.8 144.12l73.27 -413.04c4.02,-24.15 13.68,-42.68 28.17,-55.56 15.3,-12.89 34.63,-19.32 57.97,-19.32 23.35,0 39.46,5.63 48.31,16.1 8.86,11.27 12.89,24.15 12.89,39.46 0,5.63 -0.81,12.08 -1.61,19.32l-73.27 413.04c-4.03,24.96 -12.89,43.48 -28.18,56.36 -14.49,12.88 -33.82,19.32 -57.97,19.32 -23.35,0 -39.46,-5.63 -48.31,-16.91 -8.86,-10.46 -12.89,-23.35 -12.89,-38.65 0,-6.44 0.81,-12.88 1.61,-20.13zm235.91 0l69.25 -392.91c11.27,-63.6 46.7,-95 107.09,-95 28.17,0 49.11,8.05 63.6,24.15 14.49,15.29 22.55,42.68 24.97,80.51l15.29 202.09 40.26 -231.87c4.83,-24.15 13.68,-42.68 28.99,-55.56 14.49,-12.89 33.82,-19.32 57.16,-19.32 24.15,0 40.26,5.63 49.12,16.1 8.05,11.27 12.88,24.15 12.88,39.46 0,5.63 -0.8,12.88 -1.6,19.32l-69.25 392.91c-11.27,63.61 -46.7,95.82 -107.09,95.82 -28.17,0 -49.11,-8.05 -63.6,-24.15 -14.49,-16.11 -23.35,-42.68 -24.97,-80.52l-15.29 -202.09 -40.26 231.09c-4.83,24.96 -13.68,43.48 -28.99,56.36 -14.49,12.88 -33.82,19.32 -57.16,19.32 -24.16,0 -40.26,-5.63 -49.12,-16.91 -8.86,-10.46 -12.88,-23.35 -12.88,-38.65 0,-6.44 0.8,-12.88 1.6,-20.13zm479.87 0l73.27 -413.04c4.03,-24.15 13.69,-42.68 28.99,-55.56 15.29,-12.89 34.62,-19.32 59.58,-19.32l175.52 0c24.96,0 41.87,4.02 51.53,13.68 9.66,8.86 14.49,20.13 14.49,33.01 0,4.83 0,8.86 -0.8,13.69 -3.23,20.13 -12.89,35.43 -27.38,45.89 -14.49,10.46 -34.62,15.29 -59.58,15.29l-104.67 0 -16.91 96.62 90.98 0c23.35,0 39.45,4.82 48.31,13.68 8.86,8.86 13.69,19.32 13.69,32.21 0,4.83 -0.81,8.85 -1.61,13.68 -3.22,19.32 -12.08,33.82 -25.77,44.29 -13.68,10.46 -32.2,15.29 -54.74,15.29l-91.8 0 -19.32 104.67 110.31 0c24.15,0 41.06,4.03 51.53,13.69 9.66,8.86 14.49,20.13 14.49,33.01 0,4.03 -1.61,12.88 -4.03,24.96 -1.61,12.08 -10.46,23.35 -24.96,33.82 -14.49,10.47 -34.63,16.11 -58.78,16.11l-179.54 0c-24.97,0 -41.87,-5.63 -50.73,-16.91 -8.85,-10.46 -13.68,-23.35 -13.68,-37.84 0,-6.44 0.8,-13.68 1.6,-20.93z"/>
  </g>
 </g>
</svg>
