<svg version="1.2" xmlns="http://www.w3.org/2000/svg" viewBox="0 0 532 500" width="532" height="500"><defs><clipPath clipPathUnits="userSpaceOnUse" id="cp1"><path d="m-408-81h1191v1684h-1191z"/></clipPath></defs><style>tspan{white-space:pre}.a{fill:#fdd800}.b{fill:#035ec1}.c{fill:#fff}.d{fill:#568692}.e{fill:#fcf8c8}.f{fill:#f5dc67}.g{fill:#b1b151}.h{fill:#76a4d3}.i{fill:#d6c932}.j{fill:#738b71}.k{font-size: 54px;fill: #035ec1;font-weight: 800;font-style: italic;font-family: "Artegra Soft Cn"}</style><g clip-path="url(#cp1)"><path fill-rule="evenodd" class="a" d="m55 260.7c1 1.5 1.4 2.3 2.5 4.1 1.3-1.6-1.1-2.3-3.4-8.8l-4.9-15.4c-7.1-21.1-9.2-35-8.1-58.2 0.5-10.7 2.8-18.2 4.9-27.6 2.4-2 1.8-0.4 2.8-3.8 0.4-1.7 0.4-2.5 1.3-4.5 0.7-1.7 0.8-1.6 1.7-3.8q0.3-0.7 0.4-1.1l1.8-0.6c2.6-8.7 11.9-25.1 18.3-31.7 1.5-1.5 2.2-2.1 3.6-3.6-0.8 2.3-0.5 1.3-1.9 2.9l-2.3 3.8-4.5 8.3 10.6-11.6c3.6-4 7.3-8.8 11.3-11.6l11.4-8.5c8.6-7.1 2.9-0.4 13.2-5.4 8.3-4.1 31.7-14.8 39.6-12.5 6.5 1.8 6.1 0.8 9.1 1.3 3.9 0.6 1.7-0.7 2.5 1.3-8.1 0.3-1.4 4-10.3 4.4l-2.8 0.3-1.1 3.1c-9 1.9-7.7 4.3-10.5 5.9-1.4 0.7-4.3 1.6-5.9 2.3-2.1 1-4.2 2.5-5.4 2.9-4.6 1.8 0.3-1.1-2.6 0.2l-0.9 3.4c-1.5 2.7-7.5 5.9-7.7 6.1-1.6 1.2-1.1-1.5-1.7 2.4l-0.1 2.2c-0.6 1.5-0.4 0.1-1.4 1.5 2.6 0.4 11-6 19.6-9.1 4-1.5 15.2-6.4 19.3-6.1 3.9 0.2 1.7-0.5 3.3 1.1l-1.8-0.1c-3.5 0-6.2 0.3-4.3 3.8 0.7 1.3 0.7 0.7 1.7 2.8-2.4 2.5-7.9 5-11.8 8.9-2.1 2-0.4 4.4-8.2 9.4-0.1 0.1-0.4 0.2-0.5 0.4-1.5-0.3-1.1-0.6-1.1 1-2 0.5-2.7 1-4.3 2.9-2.1-0.1-2.2-0.8-1.2 0.8-0.6 0.1-0.9 0.1-1.1 0.1 0 0.1-0.2 0.3-0.7 0.6l-3.4 3c-1.7 1.9-0.3-0.9-1.5 2.4l5.3-3.5c1.9-1.8 0 0.8 1.8-1.9l0.1 0.3 0.8 0.7 0.2 0.1c-2.3 1.3-0.8-0.3-2.2 2.1l-1 1.4-2.7 1.7c-1.5-0.6-1.4-1.1-1 0.5l-1.9 1.3c-0.1 0.1-0.2 0.4-0.4 0.5-1.4-0.6-1-0.7-0.7 0.9-1.3-0.1-1-0.3-0.6 1-1.4-0.3-1-0.5-1 1.1l-8.9 12.4c-10.4 15.5-12.7 28-12.9 45.6l0.1 8.9c1.1 4.3-0.2 0.8 1.2 2.5-1.1 6.3 4.2 16.7 6.1 21.9 3.4 9.2 8.3 14.9 13.2 22.2 3 4.4 11.1 10.3 14.3 14 3.9 4.6 9.2 4.7 13.3 6.9 11.6 6.1 30.5 10.5 46.5 9 13.2-1.2 21.7-4.8 32.4-9.5 3.6-1.5 5.7-3.4 8.6-4.7l7.4-5.2c0.2-0.1 0.4-0.4 0.5-0.5l0.8-1.1c1.3-0.7 0.4-0.2 1.6-1l3.3-2.5c2.5-2.8 0.6-2.4 2-6.2 3.6-1 1.3 1.8 5-2 1.5-1.5 2.9-2.9 4-4.2 2.5-3.2 5.1-6.2 5.8-10.8l-1.9-0.9c0.9-4 4.5-10 6-14.9 4.7-15 2.6-19.6 5.7-25.7l2-3.7c3.5-5.4 1.4-13-1-21.3-8.8-30.3-21.9-34.5-30.6-53-2.2-6.2-7.8-7.3-10.5-11.8l-2.4-0.3c-1.7-1.1-1-1.1-2.6-1.9 5.4 0.3 6 1.4 9.6 3.6l2.6 2.1c1 0.5 1.6 0.9 3.3 1.1-1-2.5-2.3-3.6-4.5-5.5l1.6-0.6 3.2 1.5c0.2 0.2 0.4 0.2 0.5 0.6l3.7 2.5c0.8 0.9-0.5 1.1 2.9 1.8 0.3 0 2.7 0 3.3 0 2.7 2.8 5.7 4.2 8.2 7 3.3 3.7 1 1 4.6 2.6 1.5 0.7 3 2.7 4.2 3.7-0.5 1.8-1 1.6 0.7 1.2l0.4 1.2c-0.4 1.4-0.7 1.2 0.7 0.9-0.2 1.3-0.5 1 0.7 1l0.7 0.8c0 1.2-0.2 0.8 1 0.8l2.9 1.9c0.3 0.2 0.6 0.3 0.9 0.5-0.6-3.7-0.1-2.6-1.9-5.3 2.2 0.9 1.9 1.3 3.9 2.7 0.1 0.1 0.4 0.2 0.5 0.3l2.4 1.5c1.8 1.6 3.8 5.6 5 7.9 1.6 3.2 7.7 14.1 7.8 16.8 0.8 3.1-0.8 0.7 1.6 3l-0.3 1.4c-1.8 3.7 1.1 3 1.4 3.2 1.1-0.4 0.3-0.1 0.3 1-0.4 2.9-0.5 4.2 1.5 6 0.5 0.4 3.9 2.4 4.9 2.8-0.8-13.3 0.2-11.1-2.7-12.2l0.4-1.5-1.6-4.6c-1.6-3.7-1.3-5.4-2.6-8.6-2.3-5.9-0.4-4.7-1.5-7.6l-1.1-1.6c-0.1-0.1-0.3-0.3-0.5-0.4-1-9.6-23.9-33.2-31.8-40.5-8.1-7.6-23.1-16.8-33.7-21.3-4.2-1.7-9.1-3.4-12.5-5.1l-0.8-1.7c-0.1-0.2-0.1-0.4-0.2-0.5-0.1-0.2-0.2-0.4-0.2-0.5-0.1-0.2-0.2-0.4-0.3-0.5-0.7-0.7-1.1-1.1-1.4-1.3 0.4-0.4 0.2-0.2 0.9-2.3l-8.9-3.4c3.6-0.9 2.5-0.4 5.5-0.2-1.1-2.6-2.1-2.6-5.5-2.8-3.3 0.4-5-0.8-7.7-1.4 0.2-0.4-0.7-1.7 4.8-1.5 4.9 0.2 2.2 2 9.3 1 4.5-0.6 1.9-1.1 4.9 0.9l-3.3 0.6c7.6 0.8 8.8-2.3 13.5-2 0.4 1.2-1.5 0.9 2 1 6.5 0.6 25.5 11.7 30.7 14.9 19 11.8 34.3 27.2 46 46 3.2 5.3 14.4 24.6 14.5 31.4-1.9 4.1 0.2 1.7 0.6 4.9 0.4 3.7-0.3 1.7 1.1 5.7l1.5 5.8c0.7 3.3 0.2 3.4 0.6 6.8 0.5 4.2 1 0.8 1.4 5.6 0.5 4.7-0.2 8.3 1.1 13 1.1 4.2-0.1 26.4-1.4 30-0.5 1.4-0.8 2.2-1 2.4-0.9 4.3 0.7 2.7-0.6 6.5-1.2 3.4-1.5 4.9-1.6 5.5-0.1-0.2-0.3-0.2-0.9 0 0 0.6-0.1 3.1-0.2 3.3-0.9 5.5-0.8-0.3-1.6 4.8-0.1 0.7 0.1 1.9 0.1 2.1 0 0.1-0.2 0.2-0.2 0.2l-1.3 1.5c-0.2 0.4-0.3 0.8-0.7 1.6l-15.7 28.1c-9 10.3-4.9 9-14 19-4.3 4.9-1 2.4-7.9 8.2-0.2 0.1-18 14.9-18.5 13.9-0.1-0.1-0.4 0.2-0.6 0.3 1 2.5 0.2 1 1.5 3.1 1.2 1.9 0 0.7 1.6 1.8l0.1 2.2q-0.5 0.3-0.7 0.5 0 0.2-0.1 0.5c-0.8 2.8-0.3-0.1 0.6 0.8-0.4 1.8-0.9 1.5 0.8 1.5-3.1 5.6-2.1 9.8-11.3 9.5-0.1 2.7-0.2 3.6-1.1 5.4l1 0.3c0.2 0 0.4 0.1 0.6 0.1 0.1 0 0.4 0 0.6-0.1 0.1 0 1.4-0.3 1.9-0.3-2.2 5.1-3.1 0.1-7.2 4.8-1.3 1.6-0.9 1.6-2.6 3.2-1.6 1.5-1.4 0.7-2.7 2.3l-1.4 0.3c-9.2 0.1-11.1-0.9-10.9-9.8 0.5-15.5 6.4-8.2 6.7-14.1-5.4 2.1-10.8 4.5-17.3 6.2-6.5 1.6-12.8 2.8-19.1 4.3-14.7 3.5-18.4 1.7-32.7 1l-10.5-1.7 0.3 0.6-3.5-1.3c-8-1.2-24.9-6.1-30.6-8.9-1.8-0.8-3.2-1.8-4.7-2.5-1.9-1-3.6-1.5-5-2.3-2.6-2.2-7.2-4.2-10.7-6.3-13.3-7.8-17.6-13.2-27.8-23.1-9.9-9.6-12.5-16.1-18.6-24.2-9.1-12.2-5-11.7-8.7-16.1 2.9-0.3 3.4 4.6 7.6 10.8zm267.6-43.5c1.3-5.6-0.6 1 0 0q0 0 0 0zm-111.8-155.2q0 0 0 0 0 0 0 0zm26.8 197l0.2-0.1q-0.1 0.1-0.2 0.1zm-185.4-117.4c0 0 0.4-1 0 0zm159.8-80.8c-0.2 0.2-0.5 0.5-1.1 1.1 0.6-0.6 0.5-1.3 1.1-1.1zm30 262.5c5 0.8 2.3-0.3 5.6 1.7 1.1-7.5-4.4-5.3-5.6-1.7z"/><path fill-rule="evenodd" class="b" d="m255.3 340c1.6-1.2 4.8-4.3 6.6-4.5 1.6-0.2 4 2.3 5.2-1.6 0 0-2.1 1.4-4.1 0.2 2-0.4 0.9-0.2 1.9-0.7 8.1-4.2 27.6-23.4 33.2-30.6l16-22.6 0.3-1c3.3-4.7 4.4-7.2 3.8-10.9-0.5-3.4 8.9-25.9 8.8-38-3 6.9-3 18.5-9.1 24 2.3-6.8 4.9-14.4 4.9-21.5l-1.1 1.7c1.6-16.2 6.8-22.6 5.7-47.3-0.3-5.7-3.2-39.5-8.7-44.2-0.1-6.8-11.3-26.1-14.5-31.4-11.7-18.8-27-34.2-46-46-5.2-3.2-24.2-14.3-30.7-14.9-0.8-1.2 1.4-1.4-2-1l-3.9-1.8c-23.4-6.9-17.8-2.7-23-2.3-3.3 0.2-7.2-1-11.5-0.8q0.3 0.7 0.4 1.1 0.1-0.1 0.3 0.1c0.3 1-1.1 0.7 3.8 2-3.7 2.7-7.1-0.7-11.4 1.9 1.2 0.9-1.3 0 1.6 0.9l9 1.8c-1.6 0.5-1-1.5-1.4 1.6 5.9 1.8 10.9 2 16.8 3.4 0.1 0.2 0.2 0.3 0.2 0.6-0.1 2.6-0.3 1.3-0.9 1.7l3.2 1c-0.3 0.4-0.7 0.3-0.8 0.6-0.4 1-1-0.1-3.2 1.3l10.2 2.5c3.4 1.7 8.3 3.4 12.5 5.1 10.6 4.5 25.6 13.7 33.7 21.3 7.9 7.3 30.8 30.9 31.8 40.5 0.7 3.9-0.5-0.7 0 4.1 0.2 1.9 1 3.6 1.6 5.6-2.4-1.1-1.2-0.2-2.6-1.7l-10.3-20.4c-1.9-2.4-3.1-4-4.5-6.1l-1.7 3c0 2 3.3 2.6 1.9 5.6-2.2 0 0.1 1.4-2.7-1.3-0.9-0.8-2.5-3.4-4.7-3.4-1.2 0 0.2 0-1.2 0.3l-8.4-8.4c-1-1.6-0.1-0.2-0.8-1.6-0.1-0.2-0.5-0.8-0.5-1.2-0.2-1.1-1.9-1.3-3-1.8-3.6-1.7-2.2-2.1-5.9-4.1-3.2-1.7-5.1-4.5-9.4-6.6-3.4-1.6-7.3-3.3-10.2-4.4 0.8 2.4 1.9 2.1 4.2 3.4l-1 1.9c2 0.9 2.1 0.4 4.5 1.7 2 1.2 1.3 1.3 3.8 2.1-0.4 3.4 0.3 1-2 2l-3.2-1.5c-1.6-1.9-2-1.5-3-1.9l-9.3-2.4c2.8 4.1 3.3 1.4 9.4 5.2l1.4 1.1c0.6 0.5 1.3 1.3 1.9 2-2.5-0.9-1-0.4-3.4-1.1-3.6-2.2-4.2-3.3-9.6-3.6 1.6 0.8 0.9 0.8 2.6 1.9-0.1 2.6 0.8 0.7-0.6 2.1-1.8-0.7-1.4-0.8-3.3-0.2-3.9-0.7-14-5.4-30.5-8.3-7.6-1.3-19.4-1.1-26.8-0.4-3.1 0.3-3.4 1.3-7.2 1.4-4.6 0.2-2.5-0.2-3.5-1l1.8 0.1 10.3-2.4c-2.8-1.6-5 0.1-8.7-0.8-2-0.5-0.7-0.1-2-1 5.3-0.7 19.3-1 22.7-2.8-16.6-1.7-35.1 2.3-49.6 9.4l-11.8 6.7c2.7-1.8 5.7-3.2 8.3-5.9l0.8-0.9c1.2-1.4 0.3-0.3 1.3-2.1 0.1-0.2 0.3-0.5 0.3-0.6l0.6-1.3c1.2-0.4 3.3-1.9 5.4-2.9 1.6-0.7 4.5-1.6 5.9-2.3 2.8-1.6 1.5-4 10.5-5.9l2.8-0.3c0.1-2.5-0.1-1.5 1.1-3.1 8.9-0.4 2.2-4.1 10.3-4.4l6.8-1.4-13.4-2-0.4-2.8c6.5-0.8 14.2 1.7 20 0.2q-0.1-0.3-0.2-0.6-0.2-0.2-0.6-0.6c-0.8-0.8-1.1-0.9-1.1-0.9q-0.2-0.2-0.4-0.3c0-0.2 0-0.5-0.3-1.2-4.7-0.1-8.5 1.2-13.8 1.1-4.6-0.2-8.5 0.6-12.9 1.5-15.1 2.9-34.1 10.8-46.9 20.3l-12.6 10.5c-4 2.8-7.7 7.6-11.3 11.6l-10.6 11.6 4.5-8.3c4.3-3.5 6-5.2 6.1-9.4-1.3-0.2-2.4-0.4-2.8-0.3-2 0.5-0.5 1.5-2.1 2.6-2.1 1.3-3.3 3.5-4.8 5.5-4.9 6.2-12.9 19.6-16.3 27.3l-5.8 16.7c-2.1 9.4-4.4 16.9-4.9 27.6-1.1 23.2 1 37.1 8.1 58.2l4.9 15.4c2.3 6.5 4.7 7.2 3.4 8.8-1.1-1.8-1.5-2.6-2.5-4.1-4.2-6.2-4.7-11.1-7.6-10.8-1 2.8-0.6 1.3-1.2 2.4 0 0-0.4 0.4-0.9 2 1.8 2.4 2.4 3 3.6 5.9 1.8 3.9 0.3 2.4 3 5.9 1.7 2.1 1.9 3.2 3.4 5.4l7.4 9.7c12.3 16.6 8.3 9.4 16.6 18.1 2.7 2.8 2.2 0.9 5 4 5.7 6.2 23.9 19.9 31.4 20.8 1.2 0 14.1 5.2 15.4 6.7 1 1.1-0.2 1.5 3.5 3.3 2.1 0.6 7.2 1.4 8.3 3.5 0.3 0.5-1.6 1.3 11.3 4.9-2.8 1.7-3 0.1-2.4 1.6 3.8 1.4 11 2.3 13.9 3.9-6.6 0.3-13.2 1.1-20.4 1.2l6.6 1.8c-12.1 1.8-35.2-6.9-46.5-12.3-2.4-1.1-4.2-2-6.5-3.1-5.6-2.7-5.2-3.9-6.9-3 3 1.3 5.4 3.1 8.7 5.2 3.4 2.2 23.3 10.2 28.8 11.5 7 1.6 15.8 4 22.5 4.9 1.4 0.1 8.9-0.1 12 0 5.8 0 5-1.8 11-0.6-2 2.1-0.3 0.9-4 2.1l2.2 1.5c-6.6 0.2-11.5-2.3-16.3-1.8-2.6 0.3-2.1 0.6-5.5 0.3-31.8-2.8-63.3-19.9-86.5-40.3-6.5-5.8-12.1-13.4-18.7-20.1l-4.4-5.5c-1.2-1.2-0.2 2.1-1.1-0.9-0.1-0.4-0.4-0.3-0.6-0.5 0.4 0.9 0.5 1.4 0.6 1.6 0-0.1 0-0.1 0.4 0.5 0.5 1.2 0.4 0.9 0.9 1.8 5.7 10.7 4.8 6.8 8.8 12.2 1.4 2 1.1 3.3 1.9 5.2-1-0.6-1.2-0.6-1.2-0.6 0 0 0.1-0.1-0.5-0.7q-0.3-0.3-0.5-0.4 0.1-0.1 0.1-0.5c-0.5-3 1.9 2.5 0.4-0.9-4.2-0.4-0.4 2.5-3.9-1.6l-3.5-3.9 1.5 4.4c-1.8-3.6-5.1-6.9-7.5-10.5-1.1-1.7-7.3-9.2-6.3-10.8 2 3.3 4 6.1 5.8 8.9 1.5 2.3 4.1 6.5 6.5 8-2.2-4.3-6.3-9.1-9.5-13.9-2.7-4.1-5.4-9.7-7.6-15-0.3-2.7 0-1.4-0.9-3.6-3.9-8.5-5.1-7.9-7.1-15.8q0-0.3-0.1-0.6l-2.6-7.1c-0.5 4.3 0 1.3-1.5 2.9-0.6-5.3-3-11-3.9-17-4.9-32.6-3.4-59.1 7.9-90 1.9-5.3 2.6-10.8 4.6-15.6l4.1-12.1c-0.8 1.1-0.9 1.6-1.5 2.6-1.1 1.8-2.2 3-3.2 4.8-1.4 2.4-3.9 9.7-5.8 10.1l1.9-7.4c1.3 0 0.8 0.3 0.9-1.3v-0.1l4.8-8.8-0.2-0.3c1.5 0 1.1 0.4 1.2-1.1l0.6-0.9 3.2-4.6c1.5-2.4 2-3.1 3.2-5.5l0.2 0.2c1.1-1 0.9-0.7 1.5-2.6l-0.1 0.2 7.9-9.5c3.3-3.4 5.2-6.2 8-9 1.8-1.8 2.5-1.7 4.4-3.7 1.5-1.6 2.9-3.2 4.1-4.7 1.4-1.6 3.5-3.5 3.9-4.2 1.8-2.6 0.5-1.1 1.2-3.1 1.5-3.8 0.3-2.5 1.5-0.8l-0.4 0.4c0.8 1.2-0.1 1.8 6-2.8 2.6-1.9 4.4-2.9 6.1-5.4l2.6-1 7.7-4.6c1-0.9 0.8 1.4 0.7-1.6-0.4-1.6-0.5-1.8-0.7-3.7 0.1 0.1 0.3 0.2 0.3 0.4l0.8 1.6-0.1 1.6c1.2 0.5-0.4 0.7 1.7 0.2 0.2-0.1 0.9-0.3 1.1-0.4 0.2-0.1 0.4-0.3 0.5-0.4 0.2 0 0.4-0.2 0.6-0.3 2.3-1.5 4.8-3.2 7-4.2 3.5-1.5 3.5-1.4 6.4-3.5 2.6-0.8 5.1-1.3 7.2-3.2l8.1-2.4c5.9-1.2 7-3.9 7.2-10.1 1.5-2 0.2-1.6 3.1-1.4l-0.2 3.1-1.1 1.3c1 1.5 0.6 0.7 1.4 1.7 0.9 1.2 0.7 1.1 1.7 2.1 3.5-1.5 0.5-0.4 3.3-3.4 2.3 2.2 0.1 2.3 7.8 0.4l0.3-4 0.6-0.9 0.7-1 1.2-0.5c3-0.1 1.7-0.7 1.8-1.4 1.4 0.3 0.9-0.3 0.9-2.3l1.5 0.2c0.1 2.1-0.2 1.1 1 1.4 0.1 4.9 0.3 3.1-1 7.4l8.6-1.4c-2.9-0.8-2.2 0.3-4.9-1.3 0.2-4.5 3.3-8 7-10.3 1.7 2.2 0.8 2.8 1.9 5l1.1 1.9v4.5c12.3 1.6 5.8-3.7 37.1 1.1 32.8 4.9 27.2 6.8 47.9 13.4 1.7 0.5 12.9 5.1 14.8 6.1 4.1 2.2 8.8 5.4 13 8.2l8.8 6.6c4.2 2.9 2.1 1.4 4.2-0.3l-39-22.6c-2.9-1.7-2.9 0-1.1-1.8l2.4 0.6c-0.5 1.8-0.7 1.2 1.3 0.9l1.9 0.7c-0.4 1.8-0.6 1.3 1.4 1l0.2-0.1c-0.4 1.7-0.6 1.2 1.3 0.9l0.3-0.1c-0.3 1.7-0.6 1.1 1.4 0.9l0.3-0.2c-0.4 1.7-0.6 1.2 1.3 1l0.3-0.3c-0.4 1.9-0.7 1.4 1.3 1l0.4-0.2c-0.6 2-0.8 1.4 1.2 1.1l1.6 0.9 1.3 0.4c-0.5 1.9-0.7 1.5 1.2 1l0.3-0.1c-0.7 2-0.8 1.4 1.3 1.1l-0.2 0.1 1.4 0.4c1.1 2.1-0.1 1 2.5 2l0.1 0.1 1.4 0.3c-0.2 1.7-0.5 1.3 1.3 1v0.1l2.4 1.6-0.2 0.2 2.2 2c0.5 0.3 1.1 0.7 1.6 1 1.2 0.6 0.4 0.2 2 0.9l-0.1 0.1 1.2 0.4c-0.3 1.8-0.5 1.2 1.4 1 0.6 1.4 0.8 1.3 2.4 2.6 0 0 1.3 1.1 1.3 1.1 0.5 0.5 0.7 0.7 0.7 0.7 0.1 0.1 0.1 0.3 0.3 0.7-4.5-2-1.6-1.1-3.9 0.6 4.9 1.3 2.5 1.4 10.9 7.9 4.8 3.8 7 7.8 9.6 9l-4-5.2 2.7 0.8c0.3 0.5 12.6 15 14 16.1l1 1.3 0.4 1.2c0.2 2.7-0.5 0.9 1.4 1.1l0.3 1.4c1.1 1.3 3.7 4.8 4.4 5.4-0.5 2-0.9 1.8 1 1.1-0.4 1.5-0.8 1.2 0.5 1.2 0.6 2.5-0.5 1.1 1.5 2.7l0.9 1.5 1 1.4c-0.6 3.1-0.6 1.3 0.9 1.3l0.4 1.3 1.5 3.1c0.4 3.2-0.6 1.3 1.4 1.3l-0.2 0.4c-0.5 2.2-1 2 1 1.2l-0.2 0.5c-0.5 2.1-1.1 2 0.9 1.3 0.5 3.6 3.2 7.2 4.4 10.7 0.2 3.2-0.6 1.2 1.3 1.3l-0.2 0.5c-0.2 3.8-0.6 1.6 0.9 2.1l0.6 1.9 3.2 9.3c0.2 2.5 0 1.7 1 2.4l0.6 2.2 0.9 4.8c-0.3 4.1-0.6 1.7 1 2v1.1c-0.5 4.1-0.7 1.9 0.9 2l2.2 15.7c-0.1 5.3-0.6 2.1 1 2.9-0.5 6.7 0.8 15.5 0.8 23 0 7.4-1.4 14.8-0.9 21.9-1.3 1.4-1.1-2.4-1 3.2l0.3 1.9c-1.6 0.8-1.3-2.2-1 2.9l-0.6 7c-3.1-2.1 0.7-13.1 1.2-23.2 0.6-15 0.1-17.8-0.2-31.5 0-1-0.1-2.1-0.2-3.1l-6.8-32c-3.1-9.5-7.4-21.5-12.2-30.4-1.7-3 0.1 0.3-0.6-1l-8.1-13.7c-0.2-0.3-0.9-1.4-1.3-2l-14.4-17.3c3.5 4.4 4.6 7.4 7.9 11.7l12.1 16.2c13.7 17.5 25 66.7 23.7 91-0.4 8.9-1.2 17.1-2.3 25.9-1.4 11.2-4.5 19.6-5 24.2l1.7-5.4c1 1.1 0.4 0.2 0.9 2.3l-2.1 9.1c-3-1.9-1.2-2-0.5-6l-2.2 6.4c1.8-1.8 0-1.1 1.8 0.9l-5.4 13.2c-0.1-0.2-0.2-0.5-0.2-0.6-0.1-0.2-0.2-0.5-0.3-0.7l-0.5-2.9c-0.6-3.7-1.2-6.9-3.2-8.5-1.2 1.5-2.7 2.9-4.3 4.5-1.7 1.7-2.3 2.8-2.3 6.3l4.8 0.6c-0.1 2.4-0.4 1.7 0.4 3.7 0 0.3 0.5 1 0.5 1.1l0.8 1c-2.5 1.8-4.5 2.7-4.8 6.2l2.9 1.5c-1.1 3.8-8.5 15.1-11 18.5-6.1 8.2-5.7 8.6-12.5 15.8-2.2 2.4-4.1 5.2-6.6 7.9l-22.6 19.5c-16.9 12.8-41 24.9-62.9 30.1-0.6 0.2-1.4 0.3-1.9 0.5-0.3 0-1 0.2-1.2 0.3l-8.9 1.9c-2.8 0.5-2.6 0.7-5.1-0.1 2.4-1.9 7.6-1.7 14.2-3.3q0.3-0.1 0.6-0.2 0.3-0.1 0.6-0.1l9-3.1c-3-1.4-30.3 7.2-42 5.7 2.9-2.1 23.6-2.4 34.8-7.3-4.4 0.6-8.6 1.8-13 2.5-3.1 0.6-10.5 2.4-13.3 0.4 3.7-1.5 2.4-2 6.7-3.2 2.5-0.6 5.5-1.2 7.6-2.2-7.2-1.5-12.8 1.5-20.2 0.6 5.9-5.6 13.7-1.3 28.6-8.6-2.1-0.9-4 2.1-7.5-0.3 3.1-0.6 8.1-2.5 9-3.9l-11 1.5 24.7-8.4c1.2 4-0.6 1.3 2.4 2.4l-0.4-3.7 1.7-0.8 3.8-1.3 1.4-0.3c4.4-3.7 8.9-4.6 13.4-7.8zm56.2-255.9l1 1.2q-0.5-0.6-1-1.2zm-295 167.1q0.1 0.3 0.4 0.7c0.1 0.2 0.3 0.9 0.3 1.1 0.5 3.5-0.1 1.6-0.5 2.2l-0.6-3.4q0.3-0.3 0.4-0.6zm-0.6-3.8c0.7 5.4 0.3 1.7-0.8 3.1l0.1-1.1zm312.1 19.2c-1.4 1.3-0.9 1.3-2.1 2.5-0.9 0.8-3.6 2.3-4.2 4.1l0.3 3.4c6.8 2.5 9.9-5.1 6-10z"/><path class="c" d="m298.1 302.8c-5.6 7.2-25.1 26.4-33.2 30.6-1 0.5 0.1 0.3-1.9 0.7 2 1.2 4.1-0.2 4.1-0.2-1.2 3.9-3.6 1.4-5.2 1.6-1.8 0.2-5 3.3-6.6 4.5-4.5 3.2-9 4.1-13.4 7.8 1.3-1.6 1.1-0.8 2.7-2.3 1.7-1.6 1.3-1.6 2.6-3.2 4.1-4.7 5 0.3 7.2-4.8-0.5 0-1.8 0.3-1.9 0.3-0.2 0.1-0.5 0.1-0.6 0.1-0.2 0-0.4-0.1-0.6-0.1l-1-0.3c0.9-1.8 1-2.7 1.1-5.4 9.2 0.3 8.2-3.9 11.3-9.5 0.1-1.9 0.7-1.8-0.8-1.5l0.2-1.8 0.2-1.7c0-0.1-0.2-0.3-0.3-0.5-0.4-2.9 0.1-3.2 1.6-4.9 0.7 2.4-0.1 1.9-0.1 2.2 0 3.6 0 2.7 0.8 3.8-0.5 1.2-0.8 0.9 0.5 1.1 4.3 1.6 8.4-2.9 8.9-5.9 1-1.3 0.9 2.1 1-2.6 0.1-4.2-0.8-2.5-1.2-2.8 1-4 1.7-3.4 3.3-6.3 1.6-2.8 1.4-3 4.2-4.7 2.8-1.6 2.9-1.3 5.4-3.5 0.7-0.7 1.6-1.7 2.5-2.4l2.9-1.8 0.3 1c-1.1 1-1.1-2.7-1 2.8 0.1 3.9 0.3 2.1 1 2.6-0.3 1.5-0.7 1.4 0.8 0.9-0.4 1.5-0.6 1 1.1 1.1 3.7-0.3 3.9-4.3 7-6.6 2.9-2.2 1.4-1.1 3.8-3.4 2.5-2.5 2.6-1 4.8-3.4 1.7-4.5-3.1-9-1.3-14.3 1.5-3.3 2.9-5.6 4.3-8.5 1.3-2.7 2-6.2 3.3-8.9 0.8-1.5 0.9 0.7 3.1-7.3 1.3-4.4 2.2-6 2.7-10.4v-0.4l1.1-1.7c0 7.1-2.6 14.7-4.9 21.5 6.1-5.5 6.1-17.1 9.1-24 0.1 12.1-9.3 34.6-8.8 38 0.6 3.7-0.5 6.2-3.8 10.9 0.2-4.6 0.1-1.2-1-2.5-0.3 0.5-1.5-1.1-1 1.9 0.3 2.2-0.2 0.9 1.7 1.6z"/><path fill-rule="evenodd" class="a" d="m260.4 315.3c-1.3-2.1-0.5-0.6-1.5-3.1 0.2-0.1 0.5-0.4 0.6-0.3 0.5 1 18.3-13.8 18.5-13.9 6.9-5.8 3.6-3.3 7.9-8.2 9.1-10 5-8.7 14-19l15.7-28.1c0.4-0.8 0.5-1.2 0.7-1.6l1.3-1.5c0 0 0.2-0.1 0.2-0.2 0-0.2-0.2-1.4-0.1-2.1 0.8-5.1 0.7 0.7 1.6-4.8 0.1-0.2 0.2-2.7 0.2-3.3 0.6-0.2 0.8-0.2 0.9 0 0.1-0.6 0.4-2.1 1.6-5.5 1.3-3.8-0.3-2.2 0.6-6.5 0.2-0.2 0.5-1 1-2.4 1.3-3.6 2.5-25.8 1.4-30-1.3-4.7-0.6-8.3-1.1-13-0.4-4.8-0.9-1.4-1.4-5.6-0.4-3.4 0.1-3.5-0.6-6.8l-1.5-5.8c-1.4-4-0.7-2-1.1-5.7-0.4-3.2-2.5-0.8-0.6-4.9 5.5 4.7 8.4 38.5 8.7 44.2 1.1 24.7-4.1 31.1-5.7 47.3v0.4c-0.6 1-8.8 22.2-16.7 35.2-1.9 3.1-6.2 8.2-6.8 10.9-2 1-2.5 2.4-4.1 4l1.1 0.7-0.2 1.4c-2.2 1 0.6-0.2-1.2 1-1.7 1.2 0.7 0.5-2 1.2l-2.9 1.8c-0.9 0.7-1.8 1.7-2.5 2.4-2.5 2.2-2.6 1.9-5.4 3.5-2.8 1.7-2.6 1.9-4.2 4.7-1.6 2.9-2.3 2.3-3.3 6.3 0.4 0.3 1.3-1.4 1.2 2.8-0.1 4.7 0 1.3-1 2.6l-0.2-5.4c-0.2-0.2-0.4-0.3-0.5-0.4-0.1 0-0.4-0.2-0.5-0.3-0.1-0.1-0.9-0.4-1.1-0.5-2.3 1.7-3.5 3.7-6.6 4.4l-0.5 7 0.5 1.1c-1.3-0.2-1 0.1-0.5-1.1-0.8-1.1-0.8-0.2-0.8-3.8 0-0.3 0.8 0.2 0.1-2.2-1.5 1.7-2 2-1.6 4.9 0.1 0.2 0.3 0.4 0.3 0.5l-0.2 1.7-0.2 1.8c1.5-0.3 0.9-0.4 0.8 1.5-1.7 0-1.2 0.3-0.8-1.5-0.9-0.9-1.4 2-0.6-0.8q0.1-0.3 0.1-0.5 0.2-0.2 0.7-0.5l-0.1-2.2c-1.6-1.1-0.4 0.1-1.6-1.8zm62.2-98.1q0 0 0 0c-0.6 1 1.3-5.6 0 0zm-31.5 75.9c-0.1-5.5-0.1-1.8 1-2.8v5.4c1.5-0.3 1.2-0.5 0.8 0.9 1.6-0.4 1.1-0.7 1.1 1.1-1.7-0.1-1.5 0.4-1.1-1.1-1.5 0.5-1.1 0.6-0.8-0.9-0.7-0.5-0.9 1.3-1-2.6z"/><path class="d" d="m84.3 303.3c-2.8-3.1-2.3-1.2-5-4-8.3-8.7-4.3-1.5-16.6-18.1l-7.4-9.7c-1.5-2.2-1.7-3.3-3.4-5.4-2.7-3.5-1.2-2-3-5.9-1.2-2.9-1.8-3.5-3.6-5.9 0.5-1.6 0.9-2 0.9-2 0.6-1.1 0.2 0.4 1.2-2.4 3.7 4.4-0.4 3.9 8.7 16.1 6.1 8.1 8.7 14.6 18.6 24.2 10.2 9.9 14.5 15.3 27.8 23.1 3.5 2.1 8.1 4.1 10.7 6.3-0.5 1.4 0.2 1-0.7 1.7 0.8 0.7 1 0.6 1.8 1.3 1.2 1.1 0.3 0.1 1.4 1.5-7.5-0.9-25.7-14.6-31.4-20.8z"/><path class="e" d="m123.9 132.7c-1.7 1.3-0.4 0.2-1.6 1.5-8.1 9-1.4-1.3-6.7 5l-0.7 2.1c-1.4 4.7-2.2 5.2-4.7 8.7-1.6-0.6-0.5 1.6-2.1-2.5l-1.9 3.4c0.2 0 0.4 0 0.5 0h2.2c-1 1.9-2.3 4-3.2 6.4-0.5 1.3-0.6 2.2-1 2.7-0.8 1.5 0-0.8-1.3 2.3-1.5 3.3-0.6 2.7-2.7 6.1-3.3 5.6 0.8 5.5-3.7 15.1-2 4.4-1 2.1-0.8 7.7 0.3 6.4-0.4 9.2-1.5 14.7-1.4-1.7-0.1 1.8-1.2-2.5l-0.1-8.9c0.2-17.6 2.5-30.1 12.9-45.6l8.9-12.4c1.7 0 1.5 0.5 1-1.1 1.4 0.5 0.9 0.5 0.6-1 1.3 0.1 1.1 0.4 0.7-0.9 0.2 0.2 0.5 0.2 0.6 0.6 0 0.2 0.7 1.3 1.9 0.9 1.4-0.5 0.6 0.2 0.6-1.1-0.1-1.4 0.6 0.3-0.8-2.2l1-0.5c2.6 1.1 2.3 0.7 4.6-0.3-1-1.3-0.1-0.5-1.9-1.4l1-1.4c2.7-0.9 1.4 0.1 2.2-2.1l-0.2-0.1 3-1.3c-1.7-1.5 0.4-1.2-1.8-0.9-1.8 0.2-0.5-0.8-2 1.5l-0.1-0.3-0.4-0.7 1.2-0.8c1.6-1.9 2.3-2.4 4.3-2.9 1.2 1.3 0.9-1.1-0.9 1.8l3.8-1.1-1.4-1.4c-0.1 0-0.3-0.2-0.4-0.3 1.4 0 1.6 0.1 2.7-0.4 0.1 0 2.3-1.5 2.5-1.6l2.2-1.9c1.8-1.6-0.1-1 2.8-1.9-1.5 3.9-2.5 5-7.4 8-6.1 3.6-5 6.9-5.2 6.1-0.1-0.1-0.2 0.5-0.4 0.7 0.3-2.7 0.3-1-0.6-1.6-1.5 1.1-1.7 1.3-2.9 2.3l1.5 0.3c-1.9 3.5-0.4 1-3.1 3.2z"/><path class="a" d="m101.7 87c12.8-9.5 31.8-17.4 46.9-20.3 4.4-0.9 8.3-1.7 12.9-1.5 5.3 0.1 9.1-1.2 13.8-1.1 1.1 2.8-0.9 0.2 0.7 1.5 0 0 0.3 0.1 1.1 0.9 2.6 2.7-0.3-1.8 0.8 1.2-5.8 1.5-13.5-1-20-0.2l0.4 2.8 13.4 2-6.8 1.4c-0.8-2 1.4-0.7-2.5-1.3-3-0.5-2.6 0.5-9.1-1.3-7.9-2.3-31.3 8.4-39.6 12.5-10.3 5-4.6-1.7-13.2 5.4l-11.4 8.5z"/><path class="e" d="m167.2 335.7c14.3 0.7 18 2.5 32.7-1 6.3-1.5 12.6-2.7 19.1-4.3 6.5-1.7 11.9-4.1 17.3-6.2-0.3 5.9-6.2-1.4-6.7 14.1-0.2 8.9 1.7 9.9 10.9 9.8l-3.8 1.3-3.7-0.7q-0.3-0.2-0.5-0.3-0.3-0.1-0.6-0.3l-4.1-3.3c0-5.7-1-9.3 2-13.7-26.5 9.8-23.5 4.6-29.9 4.9-2.5 0.1-2.1 0.6-2.8-0.1l4.8 1.6c-0.3 0.1-0.6 0.3-0.8 0.4l-2.4 0.7c-1 0.2-2.2 0.1-3.3 0.1-3.8 0-29.8 3.1-34.1-0.9-0.1 0-0.2-0.3-0.3-0.3-0.2-0.3-0.3-0.6-0.4-0.8 0 0-0.1-0.2-0.1-0.2-0.1-0.1-0.2-0.2-0.3-0.3l-3.5-2.2z"/><path class="a" d="m298.9 155.7l-3.3-5.7c-0.3-0.7-0.6-1.9-1-1.8l0.2 4.1c-1.1-1.4-0.2 2.6-1-0.6-0.1-0.3-0.5-0.2-0.7-0.4-0.1-2.7-6.2-13.6-7.8-16.8-1.2-2.3-3.2-6.3-5-7.9l-2.4-1.5c-0.1-0.1-0.4-0.2-0.5-0.3-2-1.4-1.7-1.8-3.9-2.7 1.8 2.7 1.3 1.6 1.9 5.3-0.3-0.2-0.6-0.3-0.9-0.5l-2.9-1.9-1-0.8-0.7-0.8c0.1-1.3 0.4-1.2-0.7-1 0.2-1.3 0.5-1.1-0.7-0.9 0.4-1.7 1.1-1.7-0.4-1.2 0.4-1.5 0.7-1.2-0.7-1.2l-4.3-5.2c-0.1-0.1-0.3-0.3-0.4-0.4-0.1-0.1-0.3-0.2-0.4-0.4l-7.5-7.8c-3-3.9-2.4-1.8-4.7-4.5 3.7 2 2.3 2.4 5.9 4.1 1.1 0.5 2.8 0.7 3 1.8 0 0.4 0.4 1 0.5 1.2 0.7 1.4-0.2 0 0.8 1.6l8.4 8.4c1.4-0.3 0-0.3 1.2-0.3 2.2 0 3.8 2.6 4.7 3.4 2.8 2.7 0.5 1.3 2.7 1.3 1.4-3-1.9-3.6-1.9-5.6l1.7-3c1.4 2.1 2.6 3.7 4.5 6.1l10.3 20.4c1.4 1.5 0.2 0.6 2.6 1.7-0.6-2-1.4-3.7-1.6-5.6-0.5-4.8 0.7-0.2 0-4.1 0.2 0.1 0.4 0.3 0.5 0.4l1.1 1.6c1.1 2.9-0.8 1.7 1.5 7.6 1.3 3.2 1 4.9 2.6 8.6zm-3.1-3.5c0.2 3.5 0.9 1-1.4 3.6l0.3-1.4zm-0.1 2.8c0 0 0.6 0.3 1.3 2 0.4 1 0.4 1.8 0.6 2.8l-1.5 0.2c0-1.2 0.8-1.5-0.3-1zm2.6 1.5l2-1.5-0.4 1.6c-0.2 2 0.5 1.7-1.3 1.7zm-169.9-62.6c0 0.2-0.2 0.5-0.3 0.6-1 1.9-0.1 0.7-1.3 2.2l-0.8 0.8c-2.6 2.8-5.6 4.2-8.3 5.9l11.8-6.6c14.5-7.2 33-11.2 49.6-9.5-3.4 1.9-17.5 2.1-22.7 2.8 1.3 1 0 0.5 2 1.1 3.7 0.9 5.9-0.9 8.7 0.7l-10.3 2.5c-1.6-1.6 0.6-0.9-3.3-1.2-4.1-0.2-15.3 4.7-19.3 6.2-8.6 3-17 9.4-19.6 9 1-1.3 0.8 0.1 1.4-1.4l0.1-2.2c0.6-4 0.1-1.3 1.7-2.5 0.2-0.1 6.1-3.3 7.7-6l0.9-3.4c2.9-1.3-2.1 1.6 2.6-0.2z"/><path class="b" d="m14.6 95.8c4.4 3 7.4 11.8-1.2 16-8.3 4-15.7-5.1-11.5-13.1 1.9-3.8 3.2-1.8 5.9-3.2 2.3-1.1 4.1-1.5 6.8 0.3z"/><path class="a" d="m179.3 355.3c-2.9-6.5 4.2-15.1 12.3-11.5 5.1 2.3 5.4 8 4.4 13.1-2.8 1.6-11.8 9.7-16.7-1.6zm129-85.3c-1.8 5.3 3 9.8 1.3 14.3-2.2 2.4-2.3 0.9-4.8 3.4-2.4 2.3-0.9 1.2-3.8 3.4-3.1 2.3-3.3 6.3-7 6.6 0-1.8 0.5-1.5-1.1-1.1 0.4-1.4 0.7-1.2-0.8-0.9v-5.4l-0.3-1c2.7-0.7 0.3 0 2-1.2 1.8-1.2-1 0 1.2-1l3.7 0.1c2.7-4.9 7.3-8.1 6-11.5 0.6-2.9 1.6-4 3.6-5.7z"/><path class="e" d="m114.3 322.6c-0.8-0.7-1-0.6-1.8-1.3 0.9-0.7 0.2-0.3 0.7-1.7 1.4 0.8 3.1 1.3 5 2.3 1.5 0.7 2.9 1.7 4.7 2.5 5.7 2.8 22.6 7.7 30.6 8.9l3.5 1.3 0.5 0.5c-1.1 1.4-1 3.5-7.3 2.1-1.8-0.4-3.3-1-5.1-1.5-3.2-0.8-7.2-1.8-10.2-2.8-0.7 0.7-2.7-1.4-0.3 1.2-3.7-1.8-2.5-2.2-3.5-3.3-1.3-1.5-14.2-6.7-15.4-6.7-1.1-1.4-0.2-0.4-1.4-1.5z"/><path class="a" d="m187.1 44.8c4.3-0.2 8.2 1 11.5 0.8 5.2-0.4-0.4-4.6 23 2.3l3.9 1.8c3.4-0.4 1.2-0.2 2 1-3.5-0.1-1.6 0.2-2-1-4.7-0.3-5.9 2.8-13.5 2l3.3-0.6c-3-2-0.4-1.5-4.9-0.9-7.1 1-4.4-0.8-9.3-1-5.5-0.2-4.6 1.1-4.8 1.5-1.6-1-1.3 0.3-2-1.1 1.1-1.2 0.3-2.4 5.1-1.3-4.8-0.1-6.8-1-11.6-2.3-1.1-0.7 0.5 1.7-0.7-1.2z"/><path fill-rule="evenodd" class="f" d="m126.7 126c-2.3 1.3-0.8-0.3-2.2 2.1 2.7-0.9 1.4 0.1 2.2-2.1zm0.3 3.5c1-0.7 1.1-0.6 2-1 0.3-2.7 0.3-1-0.6-1.6-1.5 1.1-1.7 1.3-2.9 2.3zm-3.5 0.1l-2.6 1.6c-1.6-0.6-1.4-1.1-1.1 0.5l-1.9 1.3c0 0.1-0.2 0.4-0.3 0.5-1.5-0.5-1.1-0.7-0.8 0.9-1.3-0.1-0.9-0.3-0.5 1.1-1.5-0.4-1-0.6-1 1 1.7 0 1.5 0.5 1-1 1.3 0.4 0.8 0.4 0.5-1.1 1.4 0.1 1.1 0.4 0.8-0.9 0.2 0.2 0.4 0.3 0.5 0.6 0.1 0.2 0.7 1.4 2 0.9 1.3-0.5 0.6 0.2 0.5-1.1-0.1-1.4 0.7 0.3-0.8-2.2l1.1-0.5c2.5 1.2 2.2 0.7 4.5-0.3-0.9-1.2 0-0.5-1.9-1.3zm2.2-4.7l-0.5-0.7 1.3-0.8c-2.1-0.1-2.3-0.8-1.3 0.8-0.5 0.1-0.8 0.2-1 0.2-0.1 0.1-0.3 0.2-0.7 0.5l-3.4 3c-1.7 1.9-0.4-0.9-1.6 2.5l5.3-3.5c1.9-1.9 0.1 0.8 1.9-2zm0.9 1l3-1.3c-1.7-1.5 0.4-1.2-1.9-0.9-1.8 0.2-0.4-0.8-2 1.5zm5.2-6.4c1.5 0 1.7 0.1 2.8-0.4 0.1 0 2.3-1.4 2.5-1.6l2.2-1.9c1.8-1.6-0.1-1 2.8-1.8 4.3-3.7-6.9-0.2 3.5-5.4 4.4-2.1 10-8.3 10.3-8.5 1.2-1 2.1-1 3.7-1.4-0.5-0.8-1.7-2.2-2.9-2.2 3.6-0.5 0.3 0.2 1.7-1.1-4.5 0.2-2.4-0.2-3.4-1-3.6 0-6.2 0.3-4.3 3.8 0.7 1.3 0.7 0.8 1.7 2.8-2.4 2.5-7.9 5-11.8 8.9-2.1 2-0.4 4.4-8.2 9.4-0.1 0.1-0.4 0.2-0.6 0.4-1.4-0.3-1-0.5-1 1q0.3 0.2 0.4 0.3c-0.3 0.1-0.7 0.5-1.3 1.5l3.8-1.1-1.4-1.3c-0.1-0.1-0.3-0.3-0.5-0.4z"/><path class="g" d="m74 108.6c1.4-1.6 1.1-0.6 1.9-2.9-1.4 1.5-2.1 2.1-3.6 3.6-6.4 6.6-15.7 23-18.3 31.7l-1.8 0.6c0 0 0.6-1.5-0.4 1.1-0.9 2.2-1 2.1-1.7 3.8-0.9 2-0.9 2.8-1.3 4.5-1 3.4-0.4 1.8-2.8 3.8l5.8-16.7c3.4-7.7 11.4-21.1 16.3-27.3 1.5-2 2.7-4.2 4.8-5.5 1.6-1.1 0.1-2.1 2.1-2.6 0.4-0.1 1.5 0.1 2.8 0.3-0.1 4.2-1.8 5.9-6.1 9.4z"/><path fill-rule="evenodd" class="f" d="m237 260c-0.1 0.1-0.3 0.4-0.5 0.5l-7.4 5.2 8.7-6.8q-0.1 0.1-0.2 0.1c1-1.5 0.9-1.6 2-2.6 0.2-0.1 0.4-0.3 0.5-0.3l0.5-1.6c-2 3-9.1 8.3-12.7 9.3l7.2-6.2c-0.1-0.2-0.4-0.3-0.5-0.4-0.2-0.1-0.4-0.3-0.6-0.4-1.9-1.2-2.2-0.9-3.5-3.3 0.7-2.1 1.6-2.6 3.8-3.7 2.9 1.5 2.4 2 3.4 4.1 0 0.2 0.2 0.7 0.3 0.6 0-0.1 0.1 0.4 0.2 0.6 6.4-5.8 12.5-13.4 17.1-20.9l2.3-2.9 1.9 0.9c-0.7 4.6-3.3 7.6-5.8 10.8-1.1 1.3-2.5 2.7-4 4.2-3.7 3.8-1.4 1-5 2-1.4 3.8 0.5 3.4-2 6.2l-3.3 2.5c-1.2 0.8-0.3 0.3-1.6 1zm-2.3-8.9c-2.8-0.5-0.2 0-1.2 0.8-0.9 0.6-1.3 0.8-1.5 0.8-0.5 0.9 0 2.2 1.1 2.5 3.3 0.9 4-3.8 1.6-4.1zm-2.7 1.6c1.7-2.7-0.6-0.1 0 0q0 0 0 0z"/><path class="a" d="m334 285.5c0.3-3.5 2.3-4.4 4.8-6.2l-0.8-1c0-0.1-0.5-0.8-0.5-1.1-0.8-2-0.5-1.3-0.4-3.7l-4.8-0.6c0-3.5 0.6-4.6 2.3-6.3 1.6-1.6 3.1-3 4.3-4.5 2 1.6 2.6 4.8 3.2 8.5l0.5 2.9c0.1 0.2 0.2 0.5 0.3 0.7 0 0.1 0.1 0.4 0.2 0.6-3 2.9-1.2 7-6.2 12.2z"/><path class="b" d="m305 270.1c7.9-13 16.1-34.2 16.7-35.2-0.5 4.4-1.4 6-2.7 10.4-2.2 8-2.3 5.8-3.1 7.3-1.3 2.7-2 6.2-3.3 8.9-1.4 2.9-2.8 5.2-4.3 8.5-2 1.7-3 2.8-3.6 5.7l-2.8 4.2c-1.4 1.7-1.5 1.8-2.4 3.5-0.7-2.9 0.9-1.4-1.3-2.4-0.6 3-0.6 2.7-3 4.7l-1.1-0.7c1.6-1.6 2.1-3 4.1-4 0.6-2.7 4.9-7.8 6.8-10.9z"/><path class="a" d="m252.9 106.9c1.5-0.6 0.4-0.8-3.3-3.7l-4.8-3.2c-2.5-1.7-5.6-5.3-10.1-6.8-2.3-1.3-3.4-1-4.2-3.4 2.9 1.1 6.8 2.8 10.2 4.4 4.3 2.1 6.2 4.9 9.4 6.6 2.3 2.7 1.7 0.6 4.7 4.5l7.5 7.8c0.1 0.2 0.3 0.3 0.4 0.4 0.1 0.1 0.3 0.3 0.4 0.4l4.3 5.2c1.4 0 1.1-0.3 0.7 1.2 1.5-0.5 0.8-0.5 0.4 1.2 1.2-0.2 0.9-0.4 0.7 0.9 1.1-0.2 0.8-0.3 0.7 1l0.7 0.8 1 0.8c-1.2 0-1 0.4-1-0.8l-0.7-0.8c-1.2 0-0.9 0.3-0.7-1-1.4 0.3-1.1 0.5-0.7-0.9l-0.4-1.2c-1.7 0.4-1.2 0.6-0.7-1.2-1.2-1-2.7-3-4.2-3.7-3.6-1.6-1.3 1.1-4.6-2.6-2.5-2.8-5.5-4.2-8.2-7-0.6 0-3 0-3.3 0-3.4-0.7-2.1-0.9-2.9-1.8 4.3-0.1 3.8-0.5 6.2 1.8 1.9 0.3 1.3 0.1 2.5 1.1zm-48.2-44.1c2.2-1.4 2.8-0.3 3.2-1.3 0.1-0.3 0.5-0.2 0.8-0.6l-3.2-1c0.6-0.4 0.8 0.9 0.9-1.7 0-0.3-0.1-0.4-0.2-0.6-5.9-1.4-10.9-1.6-16.8-3.4 0.4-3.1-0.2-1.1 1.4-1.6 5.3 0.7 8.6 1.7 14.1 0.9-2.1-0.1 0.1 0.3-0.9-1.4 3.4 0.2 4.4 0.2 5.5 2.8-3-0.2-1.9-0.7-5.5 0.2l8.9 3.4c-1 3-0.1 1.3-2.1 3.5 1-1 0.4-2.2 2.6 0.1 0.1 0.1 0.2 0.3 0.3 0.5 0 0.1 0.1 0.3 0.2 0.5 0.1 0.1 0.1 0.3 0.2 0.5l0.8 1.7zm60.1 248.4c3-0.7 4.3-2.7 6.6-4.4 0.2 0.1 1 0.4 1.1 0.5 0.1 0.1 0.4 0.3 0.5 0.3 0.1 0.1 0.3 0.2 0.5 0.4l0.2 5.4c-0.5 3-4.6 7.5-9 5.9l-0.4-1.1z"/><path class="h" d="m15.8 245.1l2.6 7.1q0.1 0.3 0.1 0.6c2 7.9 3.2 7.3 7.1 15.8 0.9 2.2 0.6 0.9 0.9 3.6-1.3-1.7-0.2 2.5-0.8-0.9-0.1-0.4-0.5-0.3-0.6-0.6l5.9 13.4c-0.2-0.2-0.5-0.4-0.6-0.6-0.2-0.2-0.4-0.4-0.6-0.6l-2.6-4.1c-4.4-7.8-7.8-14.7-10.5-23.6 0.4-0.6 1 1.3 0.5-2.2 0-0.2-0.2-0.9-0.3-1.1-1.3-2.2 0.6-1.8-0.8-0.1l-1-1.3c1.1-1.4 1.5 2.3 0.8-3.1l-0.7 2-0.9-1.4c1.5-1.6 1 1.4 1.5-2.9z"/><path class="b" d="m69.2 20.1c0.6-2 6.8-5 5.7 3.3l3.7 1.8c-0.2 3.2 0.3 3.3-1.6 4.9-1.3 1.1-7.4 2.9-5.4-5.3-1.7-1.4-3.4-1.3-2.4-4.7z"/><path class="a" d="m181.8 50.8c-2.9-0.9-0.4 0-1.6-0.9 4.3-2.6 7.7 0.8 11.4-1.9-4.9-1.3-3.5-1-3.8-2 4.8 1.3 6.8 2.2 11.6 2.3-4.8-1.1-4 0.1-5.1 1.3 0.7 1.4 0.4 0.1 2 1.1 2.7 0.6 4.4 1.8 7.7 1.4 1 1.7-1.2 1.3 0.9 1.4-5.5 0.8-8.8-0.2-14.1-0.9z"/><path class="b" d="m69.8 47c8.1 2.2 10.1-4.1 7-6.9-3.1-2.8-9.7-0.5-7 6.9zm-2.9-46.5c-4.6 10.5 7.9 10.4 7.2 1.9-0.2-2.2-4-2.5-7.2-1.9z"/><path class="a" d="m321.6 273.2c0.6-1.9 3.3-3.3 4.2-4.2 1.3-1.2 0.7-1.2 2.2-2.5 3.9 4.9 0.8 12.5-6.1 10z"/><path class="i" d="m299.8 156.5c2.9 1.1 1.9-1.1 2.7 12.2-1-0.4-4.4-2.4-4.9-2.8-2-1.8-1.9-3.1-1.5-6l1.5-0.2 0.7 0.5 0.2-2c1.8 0 1.1 0.4 1.3-1.7z"/><path class="a" d="m242 98.9c-2.5-0.8-1.8-0.9-3.8-2.1-2.4-1.3-2.5-0.8-4.5-1.7l1-1.9c4.5 1.5 7.6 5.1 10.1 6.8l4.8 3.2c3.7 2.9 4.8 3.1 3.3 3.7-1.2-1-0.6-0.8-2.5-1.1-2.4-2.3-1.9-1.9-6.2-1.8l-3.7-2.5c-0.1-0.4-0.3-0.4-0.5-0.6 2.3-1 1.6 1.4 2-2zm-15.8 3.8c1.4-1.4 0.5 0.5 0.6-2.1l2.4 0.3c2.7 4.5 8.3 5.6 10.5 11.8-1.7-1.3-5.3-4-7.8-5.6-2.7-1.8-6.1-2.2-9-4.6 1.9-0.6 1.5-0.5 3.3 0.2zm11 0.7c-0.6-0.7-1.3-1.5-1.9-2l-1.4-1.1c-6.1-3.8-6.6-1.1-9.4-5.2l9.3 2.4c1 0.4 1.4 0 3 1.9l-1.6 0.6c2.2 1.9 3.5 3 4.5 5.5-1.7-0.2-2.3-0.6-3.3-1.1l-2.6-2.1c2.4 0.7 0.9 0.2 3.4 1.1zm62.3 180c0.9-1.7 1-1.8 2.4-3.5l2.8-4.2c1.3 3.4-3.3 6.6-6 11.5l-3.7-0.1 0.2-1.4c2.4-2 2.4-1.7 3-4.7 2.2 1 0.6-0.5 1.3 2.4z"/><path class="f" d="m293.8 151.7c0.8 3.2-0.1-0.8 1 0.6l-0.2-4.1c0.4-0.1 0.7 1.1 1 1.8l3.3 5.7-0.3-5.3 1.6 4.6-2 1.4 0.3 1.8-0.2 2-0.7-0.5c-0.2-0.9-0.3-1.8-0.7-2.8-0.6-1.7-1.2-1.9-1.3-1.9l0.2 3.9c-0.3-0.2-3.2 0.5-1.4-3.2 2.2-2.6 1.6-0.1 1.3-3.6l-1 2.2c-2.4-2.3-0.8 0.1-1.6-3 0.2 0.2 0.6 0.1 0.7 0.4z"/><path class="b" d="m54 2.2c5.2-0.7 5.7 0.8 4.5 5.3l-4.3 0.2c-1.5-2.5-1.8-3-0.2-5.5z"/><path class="e" d="m357.1 251.6c-1.1-5.8-0.2-0.8 0.8-2.9 1.9 0.8 1.1 0.2 2.5 1.6l2.6 6.8c-3.3-1-5.7-4.6-5.9-5.5z"/><path class="i" d="m247.5 325c1.2-7.5-4.3-5.3-5.5-1.7 5 0.8 2.3-0.3 5.5 1.7z"/><path class="a" d="m234.7 251c2.4 0.4 1.7 5.1-1.7 4.2-1.1-0.3-1.6-1.7-1-2.6 2.2-3.5-2.4 2.1 1.4-0.7 1.1-0.8-1.5-1.3 1.3-0.9z"/><path class="b" d="m62.6 10.7c4.9-0.6 2.7 1.7 3.1-3.2-4.1 0.7-2.4-1-3.1 3.2z"/><path class="j" d="m151.8 78.4l2.8-0.3c-1.2 1.6-1 0.6-1.1 3.1l-2.8 0.3z"/><path class="f" d="m235.4 353.9c-3-1.1-1.2 1.6-2.4-2.4 1-1.7-1.3-1.5 2-1.3z"/><path class="a" d="m312.4 278.6c-0.5-3 0.7-1.4 1-1.9 1.1 1.3 1.2-2.1 1 2.5l-0.3 1c-1.9-0.7-1.4 0.6-1.7-1.6z"/><path fill-rule="evenodd" class="b" d="m189.2 250.8c-0.6 0-1.1 0-1.5-0.3-0.4-0.2-0.4-0.5-0.7-0.7q-0.1-0.1-0.1-0.1 0 0-0.1-0.1c0 0-0.2-0.1-0.2-0.1-0.4-0.1-0.7-0.1-1.2-0.1l-0.4-0.6q-0.1 0-0.1-0.1 0 0-0.2 0l-0.3 0.7-0.7-0.1q0 0-0.1 0 0-0.1 0-0.1l-0.4-0.2c-0.3-0.3-0.3-0.3-0.3-0.8 0.6-0.1 0.5-0.4 1.4-0.4 2.1 0.1 1.5 0.1 2-0.5 0.1-0.2 0.3-0.2 0.4-0.5-0.2-0.4-0.3-0.3-0.5-0.7-0.5 0-1 0.1-1.4-0.1l-0.8-0.5c-0.2-0.1 0 0-0.2-0.1-0.4-0.2-1.1-0.4-1.7-0.3l-0.1 1-1.5-1.6c-0.3-0.3-0.6-0.4-0.6-0.9 0.7 0.2 0.5 0.9 2.4 0.4 0.5-0.2 0.6-0.2 1 0 0.9 0.6 1 0.7 2.2 0.8 0.8 0 0.5 0.2 1.2 0.2 0.9 0 0.4-0.1 1.3 0.2 0.6 0.1 0.5-0.2 1.2-0.1 0.1 0.2 0.1 0.1 0.2 0.3l0.2 0.2c0.2 0.3 0.7 0.4 1.1 0.2l0.7-0.7c-0.9 0 0 0-0.8 0.2l-0.7-0.6c0.1-0.1 0.1-0.1 0.1-0.1h0.5c0.3 0.1 0.7 0.1 1 0 0.4-0.2 0.3-0.2 0.6-0.5 0.4-0.4 1.1-0.6 1.6-0.9-0.3-0.2-0.7-0.1-1.1 0.1l-0.3 0.1q0 0 0 0l-0.4 0.2c-0.3 0.2-0.6 0.3-0.7 0.7h-1.5c0-0.5 0.1-0.3 0.3-0.8-1.4-0.1-1.2 0.4-2.1 0.5-0.1-0.3 0 0-0.1-0.2-0.2-0.4-0.3-0.5-0.7-0.7l-1.1-0.9c-0.2-0.5-0.2-1-0.5-1.5-0.1-0.1 0 0.1-0.2-0.3q0-0.2 0-0.5c0-0.3 0-0.6 0-1 1 0 0.9-0.9 0.9-1.9h-0.8c-0.1-0.5 0-0.7-0.2-1-0.2 0.3-0.2 1-0.2 1.4l1-0.2c0 0.3 0 0.4-0.1 0.6 0 0.1-0.1 0.4-0.2 0.5-0.3 0.3-0.7 0.4-1 0.5-0.1 0.1-0.1 0.4-0.1 0.5-0.1 0.5-0.3 0.6-0.1 0.9 0.6 0.9 0.3 0.6 0.2 1.2 0 0.6 0.2 0.4 0.1 1.1l-0.5 0.2c-0.3 0.1 0.1 0-0.3 0.1-0.7 0.2-1.3-0.2-1.9-0.5-0.4-0.2-0.8-0.1-1.2 0-0.1 0.4-0.2 0.5-0.3 0.8-0.4-0.2-0.1-0.1-0.3-0.2-0.4-0.1-0.9-0.1-0.9-0.5-0.1-0.6 0.9-0.4 0.4-1.4-0.4 0.7-0.2 0.5-0.7 0.9-0.3 0.2-0.5 0.6-0.7 0.8-0.6 0.6-1.2 0.4-1.9 0.2-1.3-0.4-0.7-0.2-1.9-0.1-0.9 0.1-1.6 0.1-2.2 0.6-0.6 0.5-1 0.4-1.9 0.4 0 0.3 0 0.2-0.2 0.4-0.2 0.2-0.2 0.1-0.3 0.4-0.2 0.8 0.4-0.3 0.3 1-0.1 0.3-0.4 0.3-0.6 0.8 0 0.2 0.1 0.1 0 0.4-0.1 0-0.2 0.2-0.2 0.2l-0.4 0.6q0 0 0 0c-0.4 0.6-0.3 1-0.4 1.3q0 0 0 0l-0.2 0.3q0 0 0 0l-0.9 1.1c-0.2 0.4 0 0.1-0.4 0.5l-1.5 2c-0.4 0.4-0.3 0.3-0.7 0.6q-0.1 0-0.1 0l-0.7 0.7c-0.2 0.2-0.4 0.2-0.5 0.5-0.6 1.9-0.5 0.8-1.3 1.5-0.3 0.3-0.1 0.2-0.3 0.5q-0.1 0.1-0.1 0.1c-0.4 0.4-1.1 0.5-1.5 0.8q0 0-0.1 0.1 0 0 0 0 0 0-0.1 0.1l-1.1 1.1c-0.1 0.1-0.2 0.2-0.3 0.3l-3 1.6c0.1-0.3 0.1-0.7 0-1.1-0.1-0.5-0.3-0.4-0.5-0.8 0-0.1 0.1-0.3 0.1-0.7l0.1-0.7q0-0.1 0-0.1 0 0 0-0.1 0.1 0 0.1-0.1l-0.9-0.4-0.2 0.9c-0.1 0.5 0 0.5 0 1.1-0.7 0.2 0 0-0.5 0.2 0.1 0.4 0.3 1 0.2 1.6-0.1 0.4-0.1 0.2-0.1 0.3-0.1 0.3-0.1 0.1-0.1 0.6 0.2 0.1 0.5 0.2 0.7 0.3 0 0.4 0 0.5-0.3 0.7-0.1 0.2 0 0-0.2 0.3-0.2 0.2-0.1 0-0.2 0.3 0.6 0.2-0.2 0.1 0.5 0.2 0.2 0 0.5 0 0.7 0l0.3 0.6c0.1-0.6 0-0.5 0.4-0.6 0.1 0.1 0.1 0 0.1 0.3 0.1 0.6-0.4 0.8 0 1.3l0.5 0.7c-0.2 0.1 0 0-0.2 0.1l-0.7 0.8c-0.2 0.5 0.1 1.1-0.5 1.4-0.2-0.3 0.3-0.2-0.4-0.2 0.1-1.5 0.3-1.2-0.5-2.1l-0.3-0.3c-0.2-0.3 0-0.1-0.3-0.3l-1-0.4q0-0.1 0-0.1l-1.6-1c-0.5 0-1 0-1.3 0.2l-0.5 0.5q0 0.1 0 0.1l-0.1 0.3-1.8 0.1c-0.1 0-0.1 0-0.1 0.1 0 0.3-0.4 0.7-0.5 1-0.5-0.2-0.5-0.6-1.1-0.5-0.2 0.1-0.2 0.2-0.2 0.4-0.4 0.6-0.4 0.9-1 0.4l-0.7-0.8c-0.8-0.6-0.6 1.1-1 1.6l-0.1 0.3q-0.1 0.1-0.1 0.1 0 0.1 0 0.1c-0.5 0-0.6-0.1-0.6-0.6-0.9-0.1-1.1 0.1-1.8-0.4-0.9-0.8-1.1-0.4-1.5-0.8-0.6-0.4-0.4-0.7-1.2-1.1-0.9-0.4-0.6-1-1-1.7q0 0-0.1 0c-0.6-0.9-0.8-0.7-0.5-1.7 0.5 0 0.7 0 1.1 0.1 0.3 0.2 0.5 0.4 1 0.4 0-0.2 0-0.2 0.1-0.3 0.5-0.6 0.6-0.3 1.2 0 0.4 0.1 0.6 0.1 1 0.1 0.3-1.4 0.2-1.3-0.5-2.4-0.1-0.2 0 0.4-0.1-0.3 0-0.2 0-0.4 0-0.6 0.9-0.1 0 0 0.6-0.2 0.3-0.1 0.6-0.1 0.9-0.1l0.1-0.8c0.6-0.1 0.6-0.2 1.2-0.3 0.6 0 0.7-0.2 1-0.4 0-1.1-0.4-2.1 0.2-3.1 0 0 0 0 0.1-0.2 0.6 0 0.9-0.1 1.4 0.1l0.3 0.1c0.4 0.2 0.6 0.3 1 0.2 0.3-1.1-0.3-1.6-0.1-3.2l1.6-0.7c-0.1-0.3-0.5-0.4-0.8-0.7l-0.4-0.5c-0.4-1 0-1.4-0.3-2.1-0.3-0.4-0.4-0.2-0.4-0.8 0-0.4 0.1-0.4 0.2-0.7 0.3-0.3 0.4-0.6 1-0.6 0.4 0 0.8 0.1 1.3 0l0.3-0.4q0 0 0.1-0.1l0.3-0.7c1 0 0.9 0.7 0.8 1.5 0 0.4-0.1 0.7-0.2 0.9-0.1 0.3-0.3 0.5-0.1 0.6v0.3c0.4 0.1 0.6 0.1 0.9-0.1 0.6-0.3 0.4-1.9 1.2-1.8 0.5 0.1 0.1 0.9 0.7 1.1l0.3-0.2c0.3-0.3 0.4-1.8 1-1.1 0.2 0.2 0.1 0 0.2 0.4 0.1 0.9-0.2 1.3 0.6 1.8 0.4 0.3 0.3 0.3 0.8 0.5l0.1-0.2c0.1-0.1 0.1-0.2 0.1-0.2l0.7-0.8c0.5-0.7-0.3-0.7 0.1-1.4q0.1 0 0.1 0 0.1 0 0.1 0l0.2 0.1c0.3 0.2 0.4 0.6 0.5 0.9 0 0.7 0 1.2 0.3 1.7 1.1 0.2 0-0.1 0.9-0.2 0.5 0 0.2 0 0.4 0.2l0.4 0.3 0.3-0.4c0.5-0.5 0.7-0.3 1.2-0.2l0.3 0.1c0.3 0 0.3 0 0.5 0 0.1-0.7 0.1-0.8-0.4-1.1l-0.9-0.3c-0.1-0.6-0.3-0.8-0.8-0.9l0.2-1c0 0-0.1-0.2 0-0.4l0.3-0.3c0-0.5-0.1-0.5-0.3-0.8-0.2-0.5 0-0.4 0.1-0.8 0.1-1-0.2-0.1-0.2-0.8 0-0.5 0.3-0.2 0.2-1-0.1-0.3-0.2-0.5-0.4-0.8l-0.6-0.6c-0.5-0.4-0.9-0.2-1.4-0.3-0.5-0.1-0.2 0.1-0.4-0.2-0.3-0.2-0.2-0.6-0.3-1.1l-1.4 0.1c-0.1-0.5-0.4-0.8-0.1-1.3 0.3-0.5 0.4-0.3 0.4-1.2-1 0-1.4 0.1-1.4-0.9 0.8 0.1 0.1 0.2 1.1 0.3l-0.4-1c-0.3-0.4-0.3-1.1-0.1-1.6l0.1-0.3q0.1 0 0.1 0l0.2-0.3c0.3-0.6 0.4-0.8 0-1.3-0.3 0-0.5 0-0.8 0.2l-0.3 0.3c-0.1 0-0.2 0.1-0.2 0.1-0.3 0.1-0.3 0.1-0.7 0.1l-0.7-1.1c-0.5-0.6-0.8-1.2-1.1-1.9-0.4 0-0.2-0.1-0.6 0.1l-0.6 0.1c-0.3-0.9-1-1.7-0.2-2.7 0.2-0.2 1-1.4 0.9-1.8l-0.2-1.4 0.9-0.5-0.4-0.4c0-0.1-0.2-0.3-0.2-0.3-0.1-0.3-0.1-0.4 0.1-0.6 0.3-0.4 0.3-0.5 0.3-1 0 0 0-0.1 0-0.1l-0.6-0.2c0 0-0.4-0.2-0.5-0.2l-0.1-1.1h-1c-0.1 0.4-0.3 0.6-0.6 1-0.1 0.1-0.1 0.1-0.1 0.1 0 0 0 0-0.1 0.1l-0.5-0.4c-0.5-1-1.3-1.1-1.4-2.2-0.1-0.4-0.1-0.4-0.2-0.6l-0.3-0.8c-1.4 0-1.9-0.6-3.3-0.4-0.3 0.5-0.3 1-0.9 1.1-0.1-0.3 0 0-0.1-0.3-0.1-0.2-0.1-0.2-0.1-0.4l-0.1-0.2c-0.1-0.4-0.1-0.4-0.4-0.5-0.1 0.4-0.2 0.2-0.8 0.3 0.1-0.8 0.2-1.3 0.1-2.1-1.1-0.1-1.1 0.7-2 0.6l-0.1-0.8c-0.9-0.1 0 0.3-1.1 0.2l-0.1-1.4c-0.6-0.1-1.3 0-1.7-0.3l-0.6-1.4h-0.6c-0.1-0.2-0.4-1-0.4-1.1l-0.6 0.2c-0.3 0.2-0.2 0.2-0.7 0.2l-0.6-1.1c-0.1-0.3 0 0.2-0.1-0.4h-0.2c-0.1 0.4 0 0-0.1 0.2l-0.1 0.2q0 0 0 0.1c-0.1 0.2-0.1 0.3-0.2 0.5-0.4 0-0.6-0.3-0.9-0.4-0.4 0.7-0.8 1.5-1.7 0.6l-0.5-0.4c-0.1 0.8 0.1 1-0.3 1.2v0.3c-2.7 0.1-1.7-0.7-2.9-1-0.4-0.1-0.2 0-0.6 0-0.1 0.1-0.1 0.2-0.1 0.3l-0.2 0.4c-0.4 0-0.7 0-0.9-0.1l-0.3-0.4q-0.1-0.1-0.1-0.1 0 0-0.1 0c-0.1-0.2-0.3-0.4-0.6-0.3-0.3 0.1-0.2 0.2-0.5 0.3-0.1 0.6 0 0.9-0.6 1.1-0.7 0.2-0.7-0.3-1.2 0.2-0.5 0.2-0.1-0.1-0.3 0.4-0.3 0.6-0.6 0.8-1.3 0.9-1 0.3-1.6 0.2-2.6 0.3l-0.4 0.1q0 0.1-0.1 0.1 0 0 0 0.1c-0.2 0.1 0-0.1-0.2 0.2-0.5 0.9-0.7 2.1-1.3 3 0 0.1-0.1 0.1-0.1 0.2-1.2 0.2-2.5-0.7-3.5 0q0 0-0.1 0c-1 0.8-2.2-0.1-3.3 0-0.7 0.1-0.4 0.3-1.3 0.3-1.3 0.1-1.7-0.3-2.9-0.2l-0.3 0.5c-0.4 0.6-1.3 0.4-2.1 0.4 0 0.6 0 0.1-0.2 0.6-0.6 1.2 0.1 2.4-2.5 2-0.2 0-0.2 0-0.3-0.1l-0.8-0.6c-0.7-1.1-0.1-1.5-1.3-2.2-0.5-0.3-0.9-0.7-0.9-1l-0.5-1.3c-1.1 0.1-0.8 1-2.1-0.2l-0.7-0.4-0.7 1.3c-0.5 0-0.4 0-0.8-0.1 0 0-0.3-0.2-0.3-0.2l-0.5-0.3q-0.1 0-0.1 0c-0.4-0.2-0.6-0.4-0.9-0.5-1-0.3-0.9 0.4-2.2-0.4l-0.9-0.7c-0.9-0.4-0.9 0.3-1.5-0.2-2.1-1.7-3-0.3-3.6-0.5-0.1 0-0.2-0.1-0.3-0.1q0 0 0-0.1l-0.7-0.5q-0.1 0-0.1 0l-0.4-0.3q-0.1 0-0.1-0.1l-0.1-0.1c-0.5-0.5-0.8-1.2-1-1.9l-0.4-0.7c-0.2-0.2-0.1-0.1-0.2-0.2l-0.4-1c-0.2-0.5-0.1-0.8-0.2-1.3-0.1-0.4-0.2-0.6-0.3-1.2-0.3 0-0.4-0.1-0.6-0.2-0.7-0.2-0.4 0.1-0.6-0.3h-0.1c0.2-0.7 0.5-1 0.8-1.6 0.4-1.2-0.5-2.3-1.1-3.2l-0.5-0.9c-0.9-0.9-1.5-2.7-0.9-4 0.2-0.4 0.4-0.8 0.9-1l1.1-0.6q0 0 0.1 0c0.5-0.3 1.1-0.4 1.5-0.7 0.1-0.1 0-0.1 0.2-0.2-0.1-0.4-0.3-0.7-0.6-1l-0.8-1q0 0-0.1-0.1l-0.1-0.1c0-0.1-0.1-0.2-0.2-0.3q0 0-0.1-0.1l-0.9-1.5c0 0 0-0.1-0.1-0.1 0-0.1 0 0.1-0.1-0.2 0-0.1-0.1-0.4-0.1-0.4-0.3-1.2-0.2-2.7 0.7-3.6 0.3-0.4 0.8-0.4 1.4-0.4 0-0.3 0-0.2-0.1-0.4l-0.2-0.2c-0.7-0.8-1-1.4-0.3-2.4 0 0 0.1-0.1 0.1-0.2l0.3-0.3q0.1 0 0.1 0c0 0 0.1-0.1 0.1-0.1l0.1-0.2c0.9-0.7 2.1-0.7 2.7-1.5 0.5-0.6 0.6-1.5 1.1-2l0.7-0.6q0 0 0.1 0l1.8-1.5 0.7-1.1q0.1 0 0.1-0.1 0 0 0 0 0.1-0.1 0.1-0.1c0.1-0.1 0 0 0.1-0.1q0-0.1 0-0.1 0-0.1 0-0.1c0.1-0.2 0.1-0.3 0.2-0.4l0.7-1c0.2-0.1-0.1 0 0.3-0.1 0.7-0.3 1.6 0.4 2.2 0l0.2-0.1q0.1-0.1 0.1-0.1l1.4-2.2c0.4-0.4 1.2-0.3 1.7 0 0.1 0.1 0.3 0.2 0.4 0.3 0.3 0.2 0.4 0.3 0.8 0.3 0-0.6 0 0 0.1-0.5 0.1-0.2 0.1-0.4 0.1-0.6 0.1-0.4 0.4-0.7 0.8-0.7l0.3-1.4 1-0.1c0-0.7 0.1-0.5-0.3-1.2l-0.2-0.6c0 0 0 0 0 0l0.4-0.2c0.3-0.2 0.5-0.4-0.2-0.9 0 0 0-0.1-0.2-0.1-0.1-1.2 0.3-0.5 0.1-1.1l-0.7-0.8c-0.3-0.3-0.2-0.2-0.2-0.9 0.6-0.1 0.4-0.3 1.1 0.1 0.9 0.5 0.8 0.1 0.9 0 0-0.1 0.6-0.1 0-0.7-0.2-0.3-0.6-0.4-0.9-0.6-1-0.8-0.7-1.4-1.1-1.7-0.2-0.1-0.3 0-0.5-0.2-0.2-1.3 1.4-1-0.2-1.8-0.3-0.1 0.1 0-0.4-0.2v-0.4c1.1-0.5 0.2-0.9-0.2-1.4-0.3-0.2-0.4-0.5-0.8-0.7 0-0.9 0.3-0.8 0.3-1.5-0.3-0.1-0.6-0.2-0.8-0.5-0.3-0.4 0-0.7 0.3-0.9l0.1-0.1c0.2-0.2 0.5-0.3 0.2-0.7-0.4-0.5-0.1-0.3-0.1-1 0-0.7 0.1-0.2-0.1-0.5-0.4-0.6-0.5-0.4 0-1.1 0.1-0.2 0.4-0.2 0-0.7-0.3-0.3-0.5-0.4-0.5-0.8 0-0.6 0-0.2 0.1-0.3 0.2-0.2 0.1-0.4 0.8-0.2 0.4 0.1 0.2 0.2 0.8 0.2 0.5-0.1 0.8-0.4 1.4-0.3 0.6 0.2 0.2-0.1 0.4 0.3q0.1 0.1 0.1 0.1c0 0 0 0.2 0.1 0.7 0.1 0.4 0.1 0.6 0.7 0.6l1-0.7q0 0 0.1 0 0-0.1 0-0.1l2.1-1.2c0.3-0.1-0.1 0 0.3-0.1 0.1-0.7-0.1-1 0.2-1.4 0.4-0.4 0.8-0.2 1.1-0.7 0.1-0.2 0.2-0.6 0.5-0.8q0 0 0.1 0 0 0 0-0.1c0.9-0.4 2.2-0.1 3 0.2 0.6 0.3 0.7 0.3 1.6 0.2 0.6-0.1 0.8-0.3 1.4-0.2 0.4 0.1 1.1 0.2 1.7 0.1l1.4-0.6c0.4-0.3 0.9-0.4 1.2-0.2l2.9 1.5c0.7 0.3 1.8 0.4 2.5-0.1l0.3-0.2c0.4-0.3 0.7-0.3 1.2-0.3 0.1 0.4 0 0 0.2 0.3 0.1 0.2 0.1 0.2 0.1 0.3 0.6 0.8 1.7 0.5 2.6 0.5 0.2 0.5 0-0.1 0.2 0.3 1.1 2 2.1 0.9 3.6 0.9 0.2 0.6 0.1-0.1 0.3 0.6 0.1 0.9 0 0.5 0.2 0.8 0.1 0.1 0 0.4 1 0.1 0.3-0.1 0.1-0.1 0.6-0.1 0.2-0.1 0.5-0.1 0.8 0 0 0.2 0 0 0.1 0.2 0 0 0.2 0.2 0.2 0.2l0.3 0.5c0.9 0.1 1-0.2 1.6 0.4 0 0 0.2 0.2 0.2 0.2 0.4 0.3 0.7 0.5 1.2 0.3q0 0 0.1 0l0.1-0.1c0.1-0.1 0.3-0.2 0.3-0.2 0.5-0.2 1-0.2 1.7-0.2l-0.1 2.4c0.4-0.1 0.2-0.2 0.5-0.3 0.4-0.2 0.3-0.2 0.8-0.2-0.1 1-0.8 0.7-0.7 1.6 0.8 0.2 0.8-0.3 1.5-0.3 0.1 0.2 0.1 0.2 0.3 0.4 0.1 0.2 0.3 0.2 0.6 0.2 0.1-0.1 0.1-0.3 0.2-0.4l0.2-0.5c0.7 0.1 0.1 0 0.6 0.2 0.3 0.1 0.4 0.1 0.7 0.2 0.2 0 0.8 0.3 1 0.4 0.1 1-0.3 1.3-0.3 2.1 0.1 0.6 0.2 0.7 0.5 0.8 0.2 0 0.3 0.1 0.4 0l0.4-0.2q0 0 0.1-0.1c1.1-1.3-1.3-2 0.5-3 0.3-0.2 0.2-0.1 0.7-0.1l0.1 0.1q0.1 0.1 0.1 0.2c0.1 0.2 0 0.2 0.1 0.5 0.1 0.4 0 0.1 0.2 0.3l0.1 0.3c1 0.1 1.2 0.3 2 0.4 0-0.2 0.2-0.7 0.3-1 0 0 0.1-0.3 0.2-0.4l0.3-0.4c0.9-0.2 0.7 0.1 1.7-0.3 0 0.8 0 0.3-0.1 0.6-0.1 0-0.7 0.7 0 1.2 0 0 0.3 0.1 0.3 0.1 0.1 0.9-0.2 0.3-0.1 1.1h0.5c0.1-0.1 0.1 0.1 0.1-0.3 0.2-0.4 0.1-0.7 0.5-0.9 0.3 0.1 0.4 0.4 0.6 0.7h0.3c0-0.2 0-0.2 0.1-0.3 0.4-0.6 0.6-0.5 0.6 0.2l0.8-0.2c0 0.4-0.1 0.6 0.1 0.8l0.3 0.5c-0.6 0.3-0.4 0.7-0.1 1.2v0.1c0.1 0 0.1 0.1 0.1 0.2l0.5 0.4q0.1 0 0.1 0.1c0.6 0.2 0.8-0.4 0.8-1-0.5-0.2 0-0.1-0.3-0.2-0.1 0 0 0-0.3-0.1v-0.2c0.2 0 0.1 0 0.3-0.1 0.2-0.1 0.3-0.4 0.3-0.5l0.1-0.4c0.2-0.1 0.4-0.1 0.6-0.2l0.3-0.4q0-0.1 0.1-0.1c0.4 0 0.8 0 1.2 0.3 0-0.1 0-0.1 0-0.1l0.4-0.5q0-0.1 0-0.1l0.1-0.2c0.1-0.3 0.2-0.7 0.7-0.7 0.3 0 0.3 0.2 0.4 0.4 0.6 0 0.7-0.4 0.9 0 0.3 0.5 0 0.5-0.1 1.1l0.7 0.4c0.6 0.4 0.1 0.5 0 1.2q0 0 0 0.1l-0.2 0.9c0.6 0.2-0.2 0.1 0.6 0.2 0 0.4-0.1 0.8 0.2 1 0.2 0.3 0 0.2 0.6 0.2l0.2-0.6c0.5 0 0.3-0.1 0.5 0.1q0 0 0 0.1c0.2 0.1 0.1-0.1 0.2 0.2 0 0 0-0.1 0-0.1 0.2 0.3 0.1-0.3 0.7-0.1q0.2 0.1 0.3 0.2l-0.1-1.3c0.5 0 0.7 0.1 0.9 0.5l0.4-1.3 1.5 0.1v1c0.7 0.2 0 0.1 0.6 0.2 0.9 0.2 0.4-0.5 1.3 0 0.2 0 0.1 0.1 0.4 0.1l0.3-0.6c0.1-0.2 0-0.1 0.1-0.2 0.9 0.1 0.1 0.2 0.6 0.2 0.7 0.1-0.1-0.2 0.7-0.1 0.8 0-0.1 0.1 0.6 0.1 0.6 0-0.2-0.2 0.8-0.2 0.1 0.3 0 0.1 0.1 0.3q0 0 0.1 0l1.2 1.3c0.7-0.1 0.6-0.1 1 0.3-0.3 0.2-0.5 0.6-0.8 0.8l0.6 0.9c0.5 0.5 0.6 0.5 1.5 0.5l0.2 0.3c0.2 0.4-0.1 0.3 0.4 0.3l0.3-0.9c0.7 0 0.5-0.1 0.9-0.2 0-0.9-0.3-1-0.3-1.4-0.1-0.5 0.1 0.2 0.1-0.6 0-0.5 0-0.2-0.3-0.4q-0.1 0-0.2 0 0 0-0.1-0.1c0.2-1 0.2 0.1 0.3-0.7l-0.6-0.7 0.4-0.5-1.2-0.6c0.2-0.5 0.8-0.7 0.7-1.1-0.1-0.5 0.1-0.2-0.3-0.3 0.1-0.2 0 0 0.1-0.1l0.5-0.4c0.1 0 0.3 0 0.4 0-0.1-0.7-0.1 0-0.2-0.7 0.7-0.4 0.5 0 0.5-1.3l0.9-0.9c0-0.1 0.1-0.4 0.1-0.5 0.3-0.3 0.2-0.1 0.5-0.4 0.4-0.4 0.1-0.6 0.5-0.8q0.1-0.1 0.1-0.1 0 0 0.1 0c0.1 0 0.1 0.1 0.6 0.2v-1.2c0.9 0 0.1 0.2 0.9 0.1v-0.6l0.6-0.3-0.1-1.3c0.9 0 0.6 0.3 1.3 0h0.2c0.1 0.4 0.7 0 0.9-0.1 0.1 0.4 0 0.1 0.1 0.4l0.3 0.3c0.7 1 0.7 0.5 0.9 0.2 0.6-0.7 0.6-1.4 1.7-1.1 0.7 0.1 0.4-0.2 1.2-0.2l0.2 0.5c0.6 0 0.5-0.3 1.1-0.2 0.7 0.1 0.5 0.4 1.5 0 0.5-0.1 0.2-0.1 0.7-0.1 1.5 0 0.9 0 1.1 0.3 0.4 0.3-0.1-0.1 0 1.5 0.3-0.1 0.5-0.4 0.7-0.8 1 0.1 0.8 0.9 1.8 1v-1c0.4 0 0.6 0.1 0.8 0.5 0.4-0.2 0.1-0.5 0.4-0.8l1-0.1c-0.1-0.8-0.3-0.4-0.2-1.2l0.6-0.1v-0.9c0.4-0.3 0.3 0 0.4-0.4 0.1-0.7-0.1 0.2-0.2-0.6 0.3-0.2 0.4-0.1 0.5-0.4l-0.4-0.2c0-0.5 0.1-0.8 0.3-1.1 0.4 0 0.8 0.1 0.8 0.6h0.2c0.1-0.5-0.1-0.8 0.5-0.6l0.3 0.4q0.2 0.2 0.1 0.2 0.1 0 0.1 0v0.2c1.2 0 0.7 0.2 1.6 0.6 0.3 0.1 0.2 0 0.5 0.2 0.5 0.2 0.4 0.2 1.1 0.2 0.5 0 0.7 0.3 1.2 0.3 0.2-0.7 0.7-0.4 1.1-0.9 0.3-0.3 0.9-0.4 1-0.9 0.5 0.2-0.4 0.3 0.7 0.3 0-0.4 0.1-0.6 0.4-0.9l0.8 0.1q0.1-0.2 0.1-0.2c0 0 0 0 0.1-0.1l0.2-0.2 0.8 0.5c1 0.5 0.2-0.1 1.2-0.1 0.3 0.5 0.1 0.9 0.4 1.3 0.2 0.2 0.2 0.3 0.7 0.3 0-0.6-0.2-0.7-0.2-1.3 0.7 0 1.3 0.4 2-0.1 0.7-0.5 0.4-0.5 1.3-0.1 0.3 0.2 0.4 0.2 0.7 0.2 0 0.9-0.1 0.5 0.2 0.7 0.1 0.1 0.1 0.1 0.2 0.2 0.4 0.2 0.3 0.7 0.6 0.9 0.2 0.2 0.1 0.1 0.2 0.2l0.4 0.2c0.3 0.2 0.4 0.6 0.6 0.8l0.3 0.2c0 1-0.5 1.4 0 2.3 0 0 0 0.1 0.1 0.1 0.2 0.4 0.4 0.6 0.2 1.3-0.1 0.5-0.1-0.1-0.3 0.5l0.4 0.1q0 0 0.1 0 0 0 0.1 0.1c0.4 0.1 0.5 0 0.8 0.4 0 0 0.1 0.2 0.1 0.3l0.3 0.5c0.5 0 0.8-0.1 1.2 0.2q0.1 0 0.1 0c0 0 0.1 0.1 0.1 0.1l1 1.1 0.2 0.9c-0.1 0.9-0.3 0.5-1.1 0.9l-0.6 0.7h-0.9c-0.3 0.1-0.2 0.1-0.2 0.1-0.7 0.3-0.5 0.2-1.3 0.1 0.1 0.9 0.5 0.7 0.9 1.3l0.7 1.1c0.4 0.7 0 1-0.2 1.7-0.2 0.4-0.2 0.6-0.1 1 0.2 0.5 0.1 0.1 0.2 0.4q0 0 0 0l0.2 0.3c0.8 0.1 1.6 0.3 0.6 1.2l-0.1 0.1c0 0-0.2 0.1-0.2 0.2l-0.7 0.8c0.3 0.1 0.4 0.5 0.7 0.7h0.2c0.1 0.1 0.1 0.1 0.3 0.1l0.1-0.8c0.9-0.2 1.9-0.2 2.6 0.3 0.5 0.3 0.4 0.2 1 0.2 0 0 0-0.1 0-0.1 0 0 0.1-0.4 0.6-0.4 0.1 0.3 0.1 0.6 0.1 0.9l0.3 0.4c0.1 0.1 0.1 0 0.2 0.2l1.8-0.3q0.1 0 0.1 0l1.1-0.6q0.2-0.1 0.2-0.2 0.1 0.1 0.3 0.2c0 0-0.1 0.3 0.4 0.2 0.9-0.1-0.3-0.3 0.9-0.3 0.1 0.9 0.1-0.1 0.3 0.8 0 0.5-0.1 1.1 0.1 1.5 0.4 0.4 0.6 0.3 0.6 1h2c0 0.9 0.1 0.5-0.4 0.8-0.3 0.1-0.8 0.5-0.5 0.9 0.4 0.5 0.7 0 0.9 0.5 0.3 0.1 0.1 0 0.2 0.3 0.1 0.2 0.1 0.3 0.1 0.5 0.1 0.8 0 0.2 0.3 0.8 0.2 0.5 0.1 0.8 0.5 1.2l0.4 0.2c-0.1 0.7-0.2 0.4-0.3 1.2l0.5 0.2c0 0 0.1 0.2 0.1 0.2l0.1 0.4c-0.3 0.2-0.8 0.2-1.2 0.3 0 0.9 0.4 2.3 0.9 3 0.1 0 0.5 0.1 0.5 0.1 0.4 0.1 0.2-0.1 0.4 0.2 0.2 0.2 0.2 0.6 0.3 0.9q0 0 0 0.1l0.3 1c0.7 0.1 1.1 0.4 1.9 0.3v-1.1c0.9-0.1 1 0 1.3-0.5l0.1-0.2c0.8-0.1 1.1 0.4 1.8 0.1l0.4-0.2c0.1 0 0.5 0 0.6 0.1 0.4 0 0.9 0.2 1 0.6 0.2 0.2 0.1 0.2 0.1 0.5 0.1 0.2 0 0.2 0.1 0.4 0 0 0.1 0.1 0.1 0.2 0.3 0.5 0.9 0.2 1.2 1.3h0.7l0.4-1c0.8 0 0.7 0.3 1.5 0.6 0.4 0.2 0.2 0.2 0.5 0 0.4-0.2 0.3-0.3 0.8-0.3 0 0.8-0.4 0.6-0.4 1.4l1.1 0.1q0-0.1 0-0.1c0 0 0 0 0.1-0.2 0.6-1.1 0.7-0.7 1.7-1.3q0 0 0.1-0.1c1.1-0.8-0.2-0.5 2.3-0.8 0.4-0.1 0.8-0.4 1.1-0.5 0.8-0.3 0.6 0.2 1.3-0.4 0.4-0.3 0.6-0.5 1.1-0.7 0.4-0.2 0.7-0.4 1.3-0.4l0.4 0.7c-0.5 0.3-0.5 1 0 1.4q0 0 0 0 0.1 0.1 0.1 0.1c0.3 0.2 0.6 0 0.9 0.3 0.7 0.6-0.3 0.5 1.3 1v0.5c-0.4 0.2-0.3 1 0 1.3 0.2 0.4 0.6 0.7 0.7 1.1q0.1 0.1 0.1 0.2 0 0 0 0c0.3 0.6 0.3 0.2 1.3 0.7 0.7 0.3 0.9 0.1 1.6 0.2 0.1 0.6 0.6 0.8 1.1 1 0.5 0.2 1.3 0.7 2.1 0.2l1-1c0.2-0.6 0-1.1 0.1-1.7h1.3l0.3 1.2c0 0.5 0.1 0.8 0.6 0.8 0.1-0.2 0.1-0.1 0.1-0.4l0.2-0.4c0.3 0 0.8 0 1 0.1 0.1 0.1 0.2 0.2 0.3 0.3 0.7 0.6 0.5-0.6 1.7-0.5 0.1 0.3 0.1 0.3 0.1 0.7-0.1 0.7-0.2-0.1-0.2 0.7 0 0 0 0 0.1 0.1 0 0 0 0 0 0 2.2 1.6 2.7-0.9 2.9 1.6 0.4 0 0.4 0 0.7-0.2 0.4-0.3 0.3-0.1 0.8-0.3l0.5-0.4c0.4-0.3 0.5-0.3 1-0.2 0.1 0.6-0.1 0.8 0.3 1.2l0.7 0.6q0 0 0.1 0l0.7 0.5q0 0 0 0.1l0.8 0.6c0.1-0.7 0 0 0.1-0.5 0.6-0.1 0.9 0 1.4 0 0.6 0.1 0.9 0 1.5 0 0.1 0.3 0.4 0.5 0.6 0.8 0.4 0.4 0.3 0.7 0.4 1.1 0.1 1.1 1.7 0.8 2.5 0.6l0.7-0.4c0.7-0.4 1.2-0.7 2.1-0.6 0.1 0.4 0 0 0.2 0.3l0.7 0.8c0.4 0.3 0.3 0.5 0.2 0.6 0 0.1-0.1 0.2-0.2 0.2-0.2 0.1-0.1 0.1-0.4 0.1-0.2 0-0.5 0-0.6 0-0.5 0.1-0.3-0.1-0.4 0.2-0.1 0.1-0.6 0-0.1 1.1 0.2 0.5 0.2 0.8 0.5 1.1 0.2 0.1 1 0.3 1.5 0.6 1 0.7-0.5 1-0.8 1.5l-0.4 0.9c0 0.2 0 0.2-0.1 0.4-0.2 0.5-0.4 0.3-0.7 0.7-0.4 0.5 0.2 1.2 0.1 2.1l-0.8-0.2q0 0-0.1 0 0 0 0-0.1-0.1 0-0.1 0c-0.5-0.3-1.9-0.3-2.3 0l-0.6 0.4c-0.2 0.2-0.5 0-0.9-0.1-0.1 1 0.8 0.8 1.5 1.6 0.2 0.1 0 0 0.2 0.1l1 0.9c0.4 0.3 1.2 0.6 1.6 0.2 0.4-0.3 0.2-1.1 0.7-1.1 0.7-0.1 1.3 1.6 0.2 2.1l-1.3 0.4c-0.3 0.1-0.2 0.1-0.6 0.1-0.6-0.1-0.1-0.3-0.9-0.3-0.4 0.6-0.3 1-0.4 1.8h-0.9c-0.1 1.4 0.4 1.2 0.4 1.8 0 0.2-0.3 0.5-0.3 0.5-0.1 0.3-0.1 0-0.1 0.4 0.6 0.3 1.4 0.3 1.8 0.9 0.8 0.9 0.5 2 0.6 3.3 0.6 0 0.7 0.4 1 0.7l1.1 1.1c0.2 0.4 0.2 0.9-0.3 1.1-0.1 0-0.7 0.2-0.8 0.2 0 0.9 0.2 1.8 0 2.6l-1.3 0.2c0 0.8 0.2 1.4 0.5 2l0.4 1c0.2 0.7 0.3 0.9-0.2 1-0.2 0.1-1.3-0.1-1.4 0.1l-0.5 0.5q0 0-0.1 0l-0.3 0.5c-0.2 0-0.3 0.1-0.5 0-0.3 0-0.3-0.2-0.6-0.4-0.1 0-0.2-0.1-0.2-0.1-0.1-0.1-0.2-0.1-0.3-0.1l-0.4-0.5c-0.3-0.4-0.3-0.7-0.8-0.6-0.4 0-0.3 0.4-0.9-0.1-0.7-0.5-1.7-0.2-2.3 0.4q0 0.1-0.1 0.1 0 0 0 0.1c-0.4 0.4-0.5 0.5-1.2 0.4l-0.4-0.5c-0.2-0.3-0.5-0.5-0.8-0.6-0.2-0.1-0.1-0.1-0.3-0.1-0.3 0-0.4 0-0.6 0.1 0 0-0.2 0.1-0.2 0.2 0 0-0.2 0.1-0.2 0.2 0 0-0.1 0-0.2 0.2l-1.5 2.6q0 0 0 0l-0.7 1.3c-0.1 0.4-0.2 0.7-0.6 0.9-0.2 0.1-0.3 0-0.6 0.1-0.7 0.1-0.4 0.2-0.9 0.5-1.3 0.7-2.5-0.1-3.1 1.3-0.1 0.3-0.4 0.8-0.4 1.1l0.2 0.3c0.3 0.6 0.6 0.1 0 1.1-0.2 0.4-0.1-0.2-0.2 0.5l0.7 0.2c0.1 1-0.8 0.7-0.6 2.6 0.1 0.9 0.6 2.1 0.6 2.7-0.2 0.1-0.3 0.3-0.5 0.5-0.1 0-0.1 0.1-0.1 0.1-0.8 0.9-0.3 0.9-1.1 1 0-1.1 0.2-0.3 0.3-1.2-0.3-0.1-0.1 0.1-0.3-0.2-0.2-0.2 0 0.1-0.1-0.2-0.8 0-1.8 0.8-2.4 0.3-0.2-0.2-0.1-0.1-0.2-0.3l-0.9 0.4q-0.1 0-0.1 0.1l-0.1 0.1c-0.2 0.1 0 0-0.3 0.1-0.6 0.2-1.8 0.3-2.4 0.2-0.2-0.1 0.1-0.2-0.5-0.1l-0.2 0.2c-0.2 0.6-0.5 0.9-1 1.3l-0.5 0.4c-0.2 0.3-1.3 2-1.4 2.4h-0.3c0-0.6-0.6-1.8-1.3-1.1l-0.3 0.3c-0.4 0.3-1 0.6-1.5 0.8l-1.7 1c-0.2 0.2-0.4 0.2-0.7 0.2 0.1 1.1 0.2 0.3-0.4 1.5-0.1 0.2 0-0.1-0.1 0.3l-0.4 1.4c-0.3-0.5 0-0.8 0-1.4-0.1-1-0.5-0.3-0.6-1.1h-1.9c0 0.2 0 0.2 0 0.3l-1.6 0.6c-0.3 0.1-0.3 0.1-0.6 0.2-0.6 0.3-0.9 0.7-1.3 1.2l-0.4 0.5c-0.2 0.3 0.1 0.3-0.6 0.2-0.2-0.3 0-0.3-0.3-0.7l-2.6 0.2c-0.8 0.2-1.7 0.1-2.3 0.5-0.4 0.2-0.5 0.6-0.8 0.8-0.5 0.3-0.2-0.1-0.5 0.3-0.2 0.3 0 0.1-0.3 0.4l-1.5 1.5c-1.8 0.9-0.9 0.2-1.6 1.1l-1.5 1.7c-0.1 0.1 0-0.1-0.1 0.2q0 0.2-0.1 0.3c-0.1 0.2 0 0-0.1 0.2l-0.6 0.8c-0.3 0.3-0.4 0.7-0.6 1.1l-0.5 0.8c-0.1 0.4 0.2 0.2-0.2 0.3 0 0.1-0.1 0.1-0.1 0.1 0 0-0.1 0.1-0.3 0.2-0.3 0.1-0.3 0.1-0.4 0.3-0.3 0.1-0.6 0-0.8 0.2-0.3 0.1-0.3 0.2-0.4 0.4l-0.7-0.1c0-0.3 0.2-0.5 0.4-0.6 0.1 0 0.1-0.1 0.2-0.1l0.6-0.7c0.4-0.4 0.9-0.3 1.3-0.4 0.4-0.3 0.5-0.7 0.7-1l0.4-0.3c0.1-0.2 0.1-0.1 0.1-0.2l0.2-0.3q0.1-0.1 0.1-0.1l0.1-0.9q0.1 0 0.2-0.1 0 0 0.1-0.1l-0.6-0.3v-1.6c-0.3-0.1-0.5-0.3-0.8-0.5q0-0.1-0.1-0.1c-0.1-0.2-0.1-0.3-0.4-0.5 0 0.7 0.1 0.8 0.6 1.3 0.4 0.4-0.1 0.6-0.4 1l-0.8 1.4c-0.1 0-0.1 0.1-0.1 0.1-0.2 0.2-0.4 0.3-0.5 0.5l-1 0.5c-0.1 0-0.6 0.2-0.8 0.1-0.4-0.1-0.2 0.1-0.3-0.3-0.4 0.2-0.3 0.3-0.5 0.5-0.2 0.3 0 0.1-0.2 0.2-0.3 0.2-0.8 0.2-0.4 1.6 0.1 0.6 0 0.8 0.1 1.4 0.1 0.7 0.2 0.4 0.3 1.3 0 0.4 0 0.3 0.2 0.6l0.8 1.7c0.1 0.3 0.2 0.9 0.4 1.2l0.3 0.5q0 0 0.1 0l1 1.6c0.3 0.5 0.5 1 0.9 1.5q0 0 0.1 0l0.8 1.2c0.4 0.6 0.8 1.3 1.3 1.9l1.4 1.3c1.2 0.7 1.2 0.4 1.3 0.9 0.6 0 0.4 0.1 0.8-0.2l0.2-0.2c0.6-0.3 1.5-0.2 2-0.7l1.3-2c0.2-0.4 0.1-0.4 0.7-0.5 0 0.8-0.6 0.9-0.1 1.4 0.3 0.3 0.9 0.4 1.3 0.6 0.5 0.2 0.4 0.2 1.1 0.1l0.2-1.2 0.8-0.4c0.3-0.2 0.2 0 0.2-0.5h0.4c0 0.4 0 0.5 0.6 0.4 0.3-0.1 0.5-0.6 1-0.2 0.3 0.2 0.6 0.1 0.9 0.2 0.4 0.1 0.9 0.4 1.3 0 0.2-0.2 0.1 0 0.2-0.3h0.1c0.1 0.4 0.4 0.6 0.5 0.8 0.4 0 0.3 0 0.7-0.1l0.3-0.1c0.2-0.1 0.1 0 0.4 0l0.1 1.2c-1 0-1.3-0.3-1.9-0.2-0.2 1.3 0.3 0.5 0.2 1.5-0.3 0.2-0.6 0.2-0.8 0.3l-0.3 0.8c-0.2 0.8 0 1.5 0.4 2 0.3 0.4 0.5 0.5 0.4 1l-0.9 0.6c-0.3 0.1-1.2 0-1.6 0 0 0.2-0.2 0.6-0.3 0.7l-1.1-0.2c-0.8-0.2-0.1-0.5-1.6-0.5l-0.2 0.4c-0.2 0.2-0.3 0.5-0.6 0.6-0.2-0.5-1.3 0-1.9 0 0 0 0-0.1 0 0 0 0-0.1-0.1-0.1-0.1 0-0.1-0.1-0.2-0.1-0.3l-0.8-0.9c-0.9-0.6-2.4-1.1-3.3-0.6l-0.9 0.5c0 0.1-0.1 0.1-0.1 0.2-0.3 0.2-0.5 0.2-0.6 0.5-0.1 0.5 0.3 0.5 0.6 0.7q0 0.1 0 0.1l-0.1 0.4q0 0 0 0.1l-0.3 0.7c-0.3 0-0.1 0-0.4-0.1l-0.3-0.2q0 0 0 0h-0.4q0 0 0 0c-0.4 0-0.7-0.2-0.9 0.1l-0.4 0.7c-0.4 0-0.6 0-1 0.3-0.5 0.4-0.6 1.4-0.8 2l-0.8-0.3c-0.2-0.2-0.1-0.4-0.3-0.7-0.4-0.1-0.7-0.2-1 0-0.4 0.2-0.4 0.3-0.4 0.8-0.4-0.1-0.4-0.2-0.6-0.4q0 0-0.1 0l-0.1 0.2c-0.6 0.5-0.7-0.1-1-0.2-0.3-0.1-0.7 0-1 0-0.1 0.6-0.3 0.6-0.4 1.1-0.4 0-0.9 0-1.2 0.1q-0.1 0-0.1 0 0 0.1-0.1 0.1l-1.3 1.2q0 0-0.1 0.1c0 0.1 0-0.1-0.1 0.2 0 0.2 0 0.2 0 0.3l-0.4 0.6c-0.2 0.1-0.7 0.5-0.8 1.2-0.1 0.6-0.3 0.8-0.4 1.4l-0.2 0.5q0 0.1 0 0.1c-0.6-0.7 0-1-0.8-1.1-0.1 0.3 0 0.1-0.1 0.2l-0.1 0.3c-0.5 0.8-1.2 0.5-1.4 1.4-0.5 0-0.7 0-1.1 0.1-0.1 0-0.3 0.1-0.4 0.2-0.1 0-0.4 0.2-0.5 0.2-1 0.5-1-0.6-2.6 0-0.3 0.1-0.3 0.2-0.6 0.1-0.4-0.1-0.7-0.4-1.1-0.6-0.7-0.7-0.3-0.1-0.7-1-0.6-0.1-1 0-1.5-0.4l-1.6-1.6c0.2-0.1 0.5-0.2 0.8-0.3l0.7-0.4c0.1-0.1 0.1-0.1 0.2-0.2l0.1-0.2c0 0 0.1 0 0.2-0.2 0.2-0.3 0.2-0.5 0.2-1 0-0.8-0.4-1.1-0.2-1.9l0.1-0.3c0.2-0.6 0.6-0.6 0.9-0.9 0.8-0.7 0.4-1.6 0.1-2.1l-0.2-0.3c-0.5-0.7-0.1-1.2-0.4-1.8q0 0 0 0l-0.2-0.2c-0.4-0.3-0.6-0.5-0.9-0.9q0 0-0.1-0.1c-0.5-0.8-1.7-0.5-2.2 0-0.3 0.4-0.4 0.6-0.8 0.1q0 0 0-0.1c-0.1-0.1-0.1-0.2-0.2-0.4-0.3 0-0.4 0-0.7 0-0.4-0.1-0.2-0.2-0.5-0.4q-0.1 0-0.1-0.1l-2.1-1.8c-1-0.9-1.1-0.9-2.7-0.7-0.7 0-0.4 0.1-1 0.2l-0.2 0.8-0.5-0.2q0 0-0.1 0l-0.8-0.1c-0.1-0.5-0.5-0.5-1-0.6 0-0.6 0.1-0.7-0.3-0.9v-0.3c0.7-0.2 0.3-0.6 1.4-1.2l0.3-0.3c0-0.1 0.1-0.1 0.1-0.2l0.4-0.5c0.5 0.2 0.7 0.3 1.2-0.2 0 0 0-0.1 0.1-0.2l0.2-0.4c0.6 0.2 0.5 0.3 1 0.3v-0.9l1.5-1c0.3-0.2 0.2-0.1 0.4-0.2 0.2-0.2 0.3-0.4 0.4-0.7 0.8 0 0.5 0.3 1.1 0.1l0.5-0.3c0.1-0.1 0.2-0.1 0.2-0.1 0.1-0.1 0.6-0.2 0.7-0.4l-0.4-0.6 0.5 0.3c0.8 0.6 0.7 0.5 1.6-0.1l0.1-0.1q0.1 0 0.1 0c0.5-0.4 0.9-0.5 1-1.1 0.2 0 0.3 0 0.5-0.1l0.4-0.2c0.4 0.2 0.4 0.3 0.8 0.3 0.1-0.2 0.2-0.5 0.3-0.7l1-0.1c0.1 0.3 0.1 0.2 0.2 0.3q0 0 0 0.1l0.5 0.1c0.1-0.3 0-0.1 0.2-0.2-0.2-0.5-0.1 0.2-0.2-0.6 0.3-0.2 0.9-0.3 1.1-0.6-0.8-0.2-1-0.6-1.7-0.3q-0.1 0.1-0.2 0.1c0.1-0.5 0.1-0.9 0.1-1.4 0-0.2 0-0.5 0-0.7 0-0.5 0-0.4 0.2-0.5v-0.2c-0.4-0.2-0.6-0.7-0.7-1h-0.4c-0.1 0.3-0.1 0.4-0.5 0.4 0.1 0.9 0.1 0.3 0.3 0.8-0.5 0-0.6 0-0.8 0.3v0.3c-0.7-0.2-0.4 0-0.9 0.1-0.1-0.2 0-0.1-0.1-0.2l-0.3-0.3c-0.1-0.1-0.2-0.1-0.3-0.4-0.9-0.1-0.7-0.1-0.9 0.2-0.4-0.2-0.1-0.1 0.1-0.7l-1.1-0.4v-1.2c-0.4 0.2-0.4 0.6-0.5 1-0.7 0.2-0.4 0.5-1.1 0.4-0.4-0.1-0.6-0.5-0.9-0.6 0 0.2 0 0.5-0.1 0.8-0.8 0.1-1.9 0.1-2.7 0-0.6-0.1-0.6-0.3-1 0-0.7 0.4-1.8 0.2-2.5 0.6l0.5 0.5c-0.5 0.1-0.2 0.1-0.6 0-0.1-0.1 0 0-0.3-0.1l-2.5-0.8c-0.2-0.1-0.9-0.3-1.1-0.3zm39.7-2.7v0.1c-0.1 0 0.2-0.2 0-0.1zm-5.4-91.2q0.1-0.1 0.1-0.1 0 0-0.1 0 0 0 0 0 0 0 0 0.1 0 0 0 0 0 0 0 0zm-65.6-4.2c-0.7-0.2 0.3 0.1 0-0.1zm-18.8-5.7c-0.2-0.3 0.1 0.3 0 0q0 0 0 0zm84.4 9.9q0 0 0 0c-0.4 0.2-0.2 0.1 0 0q0 0 0 0 0.1 0 0.1 0c0.1 0.1 0.4 0.2-0.1 0q0 0 0 0zm-29.1 85.8c-0.4 0.3-0.4 0.1-0.7 0.3 0.2 0.2 0.3 0.1 0.7 0.1zm-14.2-1.6l0.5-1.2q0 0 0 0l-0.4 0.2c-0.2 0.2-0.2 0.8-0.7 0.2-0.2-0.2-0.1 0-0.2-0.3-0.4 0.1-0.3-0.2-0.3 0.3 0 0.6 0 0.1 0.3 0.3zm4.5-5.9c0.1-0.5 0 0.2 0.2-0.4 0.1-0.7 0-0.7-0.4-1.1q-0.1 0-0.1 0 0-0.1 0-0.1c-0.4-0.5-0.1-0.9-0.3-1.3-0.2 0.2-0.3 1 0.2 1.6l0.2 0.2c0.5 0.6-0.3 0.8-0.3 1.5l0.5 0.3c0 0 0.1 0.2 0.4 0-0.4-0.3-0.5 0-0.4-0.7zm8.4 17.7c-0.4 0 0.1 0.5 0.1 0.2 0-0.1 0.2-0.1-0.1-0.2z"/><text style="transform:matrix(1,0,0,1,-38.273,432.156)" ><tspan x="0" y="0" class="k">  SUPPORT PORTAL 
</tspan></text><text style="transform:matrix(1,0,0,1,20.994,498.978)" ><tspan x="0" y="0" class="k">FOR UKRAINE
</tspan></text></g></svg>